<svg width="20" height="20" fill="none" xmlns="http://www.w3.org/2000/svg"><g filter="url(#filter0_b_863_1927)"><path fill-rule="evenodd" clip-rule="evenodd" d="M10 20c5.523 0 10-4.477 10-10S15.523 0 10 0 0 4.477 0 10s4.477 10 10 10z" fill="#EEF8E1"/></g><path fill-rule="evenodd" clip-rule="evenodd" d="M13.75 6.417a.807.807 0 00-1.14 0l-2.661 2.66-2.61-2.609A.807.807 0 006.2 7.61l2.609 2.61-2.66 2.66a.807.807 0 101.14 1.14l2.66-2.66 2.61 2.61a.807.807 0 001.141-1.14l-2.61-2.61 2.661-2.661a.807.807 0 000-1.141z" fill="#3B2027"/><defs><filter id="filter0_b_863_1927" x="-36.069" y="-36.069" width="92.139" height="92.139" filterUnits="userSpaceOnUse" color-interpolation-filters="sRGB"><feFlood flood-opacity="0" result="BackgroundImageFix"/><feGaussianBlur in="BackgroundImageFix" stdDeviation="18.035"/><feComposite in2="SourceAlpha" operator="in" result="effect1_backgroundBlur_863_1927"/><feBlend in="SourceGraphic" in2="effect1_backgroundBlur_863_1927" result="shape"/></filter></defs></svg>