<svg width="35" height="33" fill="none" xmlns="http://www.w3.org/2000/svg"><g clip-path="url(#clip0_323_62954)"><path d="M18.846 29.614h-2.692v2.691h2.692v-2.691zm2.691-2.691h-2.691v2.69h2.69v-2.69z" fill="#3B2027"/><path d="M18.846 26.923h-2.692v2.69h2.692v-2.69z" fill="#AD2F45"/><path d="M16.15 26.923h-2.69v2.69h2.69v-2.69zm8.078-2.691h-2.691v2.69h2.69v-2.69z" fill="#3B2027"/><path d="M21.537 24.232h-2.691v2.69h2.69v-2.69zm-2.691 0h-2.692v2.69h2.692v-2.69zm-2.696 0h-2.69v2.69h2.69v-2.69z" fill="#AD2F45"/><path d="M13.46 24.232h-2.692v2.69h2.691v-2.69zm13.463-2.695h-2.691v2.69h2.69v-2.69z" fill="#3B2027"/><path d="M24.228 21.537h-2.691v2.69h2.69v-2.69zm-2.691 0h-2.691v2.69h2.69v-2.69zm-2.691 0h-2.692v2.69h2.692v-2.69zm-2.696 0h-2.69v2.69h2.69v-2.69zm-2.69 0h-2.692v2.69h2.691v-2.69z" fill="#AD2F45"/><path d="M10.768 21.537h-2.69v2.69h2.69v-2.69zm18.846-2.691h-2.691v2.69h2.691v-2.69z" fill="#3B2027"/><path d="M26.923 18.846h-2.691v2.69h2.69v-2.69zm-2.695 0h-2.691v2.69h2.69v-2.69zm-2.691 0h-2.691v2.69h2.69v-2.69zm-2.691 0h-2.692v2.69h2.692v-2.69zm-2.696 0h-2.69v2.69h2.69v-2.69z" fill="#AD2F45"/><path d="M13.46 18.846h-2.692v2.69h2.691v-2.69zm-2.692 0h-2.69v2.69h2.69v-2.69z" fill="#AD2F45"/><path d="M8.077 18.846H5.386v2.69h2.691v-2.69zm24.228-2.692h-2.691v2.692h2.691v-2.692z" fill="#3B2027"/><path d="M29.614 16.154h-2.691v2.692h2.691v-2.692zm-2.691 0h-2.691v2.692h2.69v-2.692zm-2.695 0h-2.691v2.692h2.69v-2.692zm-2.691 0h-2.691v2.692h2.69v-2.692z" fill="#AD2F45"/><path d="M18.846 16.154h-2.692v2.692h2.692v-2.692z" fill="#E64539"/><path d="M16.15 16.154h-2.69v2.692h2.69v-2.692z" fill="#AD2F45"/><path d="M13.46 16.154h-2.692v2.692h2.691v-2.692zm-2.692 0h-2.69v2.692h2.69v-2.692zm-2.691 0H5.386v2.692h2.691v-2.692z" fill="#AD2F45"/><path d="M5.382 16.154h-2.69v2.692h2.69v-2.692zM35 13.46h-2.691v2.69H35v-2.69z" fill="#3B2027"/><path d="M32.305 13.46h-2.691v2.69h2.691v-2.69zm-2.691 0h-2.691v2.69h2.691v-2.69zm-2.691 0h-2.691v2.69h2.69v-2.69z" fill="#AD2F45"/><path d="M24.228 13.46h-2.691v2.69h2.69v-2.69zm-2.691 0h-2.691v2.69h2.69v-2.69zm-2.691 0h-2.692v2.69h2.692v-2.69zm-2.696 0h-2.69v2.69h2.69v-2.69zm-2.69 0h-2.692v2.69h2.691v-2.69z" fill="#E64539"/><path d="M10.768 13.46h-2.69v2.69h2.69v-2.69zm-2.691 0H5.386v2.69h2.691v-2.69zm-2.695 0h-2.69v2.69h2.69v-2.69z" fill="#AD2F45"/><path d="M2.691 13.46H0v2.69h2.691v-2.69zM35 10.768h-2.691v2.691H35v-2.69z" fill="#3B2027"/><path d="M32.305 10.768h-2.691v2.691h2.691v-2.69zm-2.691 0h-2.691v2.691h2.691v-2.69z" fill="#AD2F45"/><path d="M26.923 10.768h-2.691v2.691h2.69v-2.69zm-2.695 0h-2.691v2.691h2.69v-2.69zm-2.691 0h-2.691v2.691h2.69v-2.69zm-2.691 0h-2.692v2.691h2.692v-2.69zm-2.696 0h-2.69v2.691h2.69v-2.69z" fill="#E64539"/><path d="M13.46 10.768h-2.692v2.691h2.691v-2.69zm-2.692 0h-2.69v2.691h2.69v-2.69z" fill="#E64539"/><path d="M8.077 10.768H5.386v2.691h2.691v-2.69zm-2.695 0h-2.69v2.691h2.69v-2.69z" fill="#AD2F45"/><path d="M2.691 10.768H0v2.691h2.691v-2.69zM35 8.077h-2.691v2.691H35v-2.69z" fill="#3B2027"/><path d="M32.305 8.077h-2.691v2.691h2.691v-2.69z" fill="#AD2F45"/><path d="M29.614 8.077h-2.691v2.691h2.691v-2.69zm-2.691 0h-2.691v2.691h2.69v-2.69zm-2.695 0h-2.691v2.691h2.69v-2.69zm-2.691 0h-2.691v2.691h2.69v-2.69z" fill="#E64539"/><path d="M18.846 8.077h-2.692v2.691h2.692v-2.69z" fill="#AD2F45"/><path d="M16.15 8.077h-2.69v2.691h2.69v-2.69z" fill="#E64539"/><path d="M13.46 8.077h-2.692v2.691h2.691v-2.69zm-2.692 0h-2.69v2.691h2.69v-2.69zm-2.691 0H5.386v2.691h2.691v-2.69z" fill="#E64539"/><path d="M5.382 8.077h-2.69v2.691h2.69v-2.69z" fill="#AD2F45"/><path d="M2.691 8.077H0v2.691h2.691v-2.69zM35 5.386h-2.691v2.691H35v-2.69z" fill="#3B2027"/><path d="M32.305 5.386h-2.691v2.691h2.691v-2.69zm-2.691 0h-2.691v2.691h2.691v-2.69z" fill="#AD2F45"/><path d="M26.923 5.386h-2.691v2.691h2.69v-2.69zm-2.695 0h-2.691v2.691h2.69v-2.69z" fill="#E64539"/><path d="M21.537 5.386h-2.691v2.691h2.69v-2.69z" fill="#AD2F45"/><path d="M18.846 5.386h-2.692v2.691h2.692v-2.69z" fill="#3B2027"/><path d="M16.15 5.386h-2.69v2.691h2.69v-2.69z" fill="#AD2F45"/><path d="M13.46 5.386h-2.692v2.691h2.691v-2.69zm-2.692 0h-2.69v2.691h2.69v-2.69z" fill="#E64539"/><path d="M8.077 5.386H5.386v2.691h2.691v-2.69zm-2.695 0h-2.69v2.691h2.69v-2.69z" fill="#AD2F45"/><path d="M2.691 5.386H0v2.691h2.691v-2.69zm29.614-2.695h-2.691v2.691h2.691v-2.69z" fill="#3B2027"/><path d="M29.614 2.691h-2.691v2.691h2.691v-2.69zm-2.691 0h-2.691v2.691h2.69v-2.69zm-2.695 0h-2.691v2.691h2.69v-2.69z" fill="#AD2F45"/><path d="M21.537 2.691h-2.691v2.691h2.69v-2.69zm-5.387 0h-2.69v2.691h2.69v-2.69z" fill="#3B2027"/><path d="M13.46 2.691h-2.692v2.691h2.691v-2.69zm-2.692 0h-2.69v2.691h2.69v-2.69zm-2.691 0H5.386v2.691h2.691v-2.69z" fill="#AD2F45"/><path d="M5.382 2.691h-2.69v2.691h2.69v-2.69zM29.614 0h-2.691v2.691h2.691V0zm-2.691 0h-2.691v2.691h2.69V0zm-2.695 0h-2.691v2.691h2.69V0zM13.46 0h-2.692v2.691h2.691V0zm-2.692 0h-2.69v2.691h2.69V0zM8.077 0H5.386v2.691h2.691V0z" fill="#3B2027"/></g><defs><clipPath id="clip0_323_62954"><path fill="#fff" d="M0 0h35v32.309H0z"/></clipPath></defs></svg>