<svg width="18" height="20" fill="none" xmlns="http://www.w3.org/2000/svg"><g clip-path="url(#clip0_323_48992)"><path d="M16.363 18.198h-1.636v1.636h1.636v-1.636zm-1.636 0h-1.636v1.636h1.636v-1.636zm-1.636 0h-1.636v1.636h1.636v-1.636zm-1.636 0H9.818v1.636h1.637v-1.636zm-1.637 0H8.182v1.636h1.636v-1.636zm-1.636 0H6.545v1.636h1.637v-1.636z" fill="#3B2027"/><path d="M6.546 18.198H4.909v1.636h1.637v-1.636z" fill="#3B2027"/><path d="M4.91 18.198H3.272v1.636h1.636v-1.636z" fill="#3B2027"/><path d="M3.273 18.198H1.636v1.636h1.637v-1.636zM18 16.561h-1.636v1.637H18V16.56z" fill="#3B2027"/><path d="M16.363 16.561h-1.636v1.637h1.636V16.56zm-1.636 0h-1.636v1.637h1.636V16.56z" fill="#BABBC8"/><path d="M13.091 16.561h-1.636v1.637h1.636V16.56zm-1.636 0H9.818v1.637h1.637V16.56zm-1.637 0H8.182v1.637h1.636V16.56zm-1.636 0H6.545v1.637h1.637V16.56z" fill="#F5FFE8"/><path d="M6.546 16.561H4.909v1.637h1.637V16.56z" fill="#F5FFE8"/><path d="M4.91 16.561H3.272v1.637h1.636V16.56z" fill="#F5FFE8"/><path d="M3.273 16.561H1.636v1.637h1.637V16.56z" fill="#F5FFE8"/><path d="M1.636 16.561H0v1.637h1.636V16.56zM18 14.925h-1.636v1.636H18v-1.636z" fill="#3B2027"/><path d="M16.363 14.925h-1.636v1.636h1.636v-1.636z" fill="#BABBC8"/><path d="M14.727 14.925h-1.636v1.636h1.636v-1.636zm-1.636 0h-1.636v1.636h1.636v-1.636zm-1.636 0H9.818v1.636h1.637v-1.636zm-1.637 0H8.182v1.636h1.636v-1.636zm-1.636 0H6.545v1.636h1.637v-1.636z" fill="#F5FFE8"/><path d="M6.546 14.925H4.909v1.636h1.637v-1.636z" fill="#F5FFE8"/><path d="M4.91 14.925H3.272v1.636h1.636v-1.636z" fill="#F5FFE8"/><path d="M3.273 14.925H1.636v1.636h1.637v-1.636z" fill="#F5FFE8"/><path d="M1.636 14.925H0v1.636h1.636v-1.636zM18 13.289h-1.636v1.636H18V13.29z" fill="#3B2027"/><path d="M16.363 13.289h-1.636v1.636h1.636V13.29z" fill="#BABBC8"/><path d="M14.727 13.289h-1.636v1.636h1.636V13.29zm-1.636 0h-1.636v1.636h1.636V13.29zm-1.636 0H9.818v1.636h1.637V13.29zm-1.637 0H8.182v1.636h1.636V13.29zm-1.636 0H6.545v1.636h1.637V13.29z" fill="#F5FFE8"/><path d="M6.546 13.289H4.909v1.636h1.637V13.29z" fill="#F5FFE8"/><path d="M4.91 13.289H3.272v1.636h1.636V13.29z" fill="#F5FFE8"/><path d="M3.273 13.289H1.636v1.636h1.637V13.29z" fill="#F5FFE8"/><path d="M1.636 13.289H0v1.636h1.636V13.29zM18 11.652h-1.636v1.637H18v-1.637z" fill="#3B2027"/><path d="M16.363 11.652h-1.636v1.637h1.636v-1.637z" fill="#BABBC8"/><path d="M14.727 11.652h-1.636v1.637h1.636v-1.637zm-1.636 0h-1.636v1.637h1.636v-1.637zm-1.636 0H9.818v1.637h1.637v-1.637zm-1.637 0H8.182v1.637h1.636v-1.637zm-1.636 0H6.545v1.637h1.637v-1.637z" fill="#F5FFE8"/><path d="M6.546 11.652H4.909v1.637h1.637v-1.637z" fill="#F5FFE8"/><path d="M4.91 11.652H3.272v1.637h1.636v-1.637z" fill="#F5FFE8"/><path d="M3.273 11.652H1.636v1.637h1.637v-1.637z" fill="#F5FFE8"/><path d="M1.636 11.652H0v1.637h1.636v-1.637zM18 10.016h-1.636v1.636H18v-1.636z" fill="#3B2027"/><path d="M16.363 10.016h-1.636v1.636h1.636v-1.636z" fill="#BABBC8"/><path d="M14.727 10.016h-1.636v1.636h1.636v-1.636zm-1.636 0h-1.636v1.636h1.636v-1.636zm-1.636 0H9.818v1.636h1.637v-1.636zm-1.637 0H8.182v1.636h1.636v-1.636zm-1.636 0H6.545v1.636h1.637v-1.636z" fill="#F5FFE8"/><path d="M6.546 10.016H4.909v1.636h1.637v-1.636z" fill="#F5FFE8"/><path d="M4.91 10.016H3.272v1.636h1.636v-1.636z" fill="#F5FFE8"/><path d="M3.273 10.016H1.636v1.636h1.637v-1.636z" fill="#F5FFE8"/><path d="M1.636 10.016H0v1.636h1.636v-1.636zM18 8.38h-1.636v1.636H18V8.38z" fill="#3B2027"/><path d="M16.363 8.38h-1.636v1.636h1.636V8.38z" fill="#BABBC8"/><path d="M14.727 8.38h-1.636v1.636h1.636V8.38zm-1.636 0h-1.636v1.636h1.636V8.38zm-1.636 0H9.818v1.636h1.637V8.38zm-1.637 0H8.182v1.636h1.636V8.38zm-1.636 0H6.545v1.636h1.637V8.38z" fill="#F5FFE8"/><path d="M6.546 8.38H4.909v1.636h1.637V8.38z" fill="#F5FFE8"/><path d="M4.91 8.38H3.272v1.636h1.636V8.38z" fill="#F5FFE8"/><path d="M3.273 8.38H1.636v1.636h1.637V8.38z" fill="#F5FFE8"/><path d="M1.636 8.38H0v1.636h1.636V8.38zM18 6.743h-1.636V8.38H18V6.743zm-1.637 0h-1.636V8.38h1.636V6.743z" fill="#3B2027"/><path d="M14.727 6.743h-1.636V8.38h1.636V6.743z" fill="#BABBC8"/><path d="M13.091 6.743h-1.636V8.38h1.636V6.743zm-1.636 0H9.818V8.38h1.637V6.743zm-1.637 0H8.182V8.38h1.636V6.743zm-1.636 0H6.545V8.38h1.637V6.743z" fill="#3B2027"/><path d="M6.546 6.743H4.909V8.38h1.637V6.743z" fill="#3B2027"/><path d="M4.91 6.743H3.272V8.38h1.636V6.743z" fill="#BABBC8"/><path d="M3.273 6.743H1.636V8.38h1.637V6.743zm-1.637 0H0V8.38h1.636V6.743zm14.727-1.636h-1.636v1.636h1.636V5.107z" fill="#3B2027"/><path d="M14.727 5.107h-1.636v1.636h1.636V5.107z" fill="#F5FFE8"/><path d="M13.091 5.107h-1.636v1.636h1.636V5.107zm-6.545 0H4.909v1.636h1.637V5.107z" fill="#3B2027"/><path d="M4.91 5.107H3.272v1.636h1.636V5.107z" fill="#F5FFE8"/><path d="M3.273 5.107H1.636v1.636h1.637V5.107zm13.09-1.637h-1.636v1.637h1.636V3.471z" fill="#3B2027"/><path d="M14.727 3.47h-1.636v1.637h1.636V3.471z" fill="#F5FFE8"/><path d="M13.091 3.47h-1.636v1.637h1.636V3.471zm-1.636 0H9.818v1.637h1.637V3.471zm-1.637 0H8.182v1.637h1.636V3.471zm-1.636 0H6.545v1.637h1.637V3.471z" fill="#3B2027"/><path d="M6.546 3.47H4.909v1.637h1.637V3.471z" fill="#3B2027"/><path d="M4.91 3.47H3.272v1.637h1.636V3.471z" fill="#F5FFE8"/><path d="M3.273 3.47H1.636v1.637h1.637V3.471zm11.454-1.636h-1.636v1.637h1.636V1.834z" fill="#3B2027"/><path d="M13.091 1.834h-1.636v1.637h1.636V1.834zm-1.636 0H9.818v1.637h1.637V1.834zm-1.637 0H8.182v1.637h1.636V1.834zm-1.636 0H6.545v1.637h1.637V1.834z" fill="#F5FFE8"/><path d="M6.546 1.834H4.909v1.637h1.637V1.834z" fill="#F5FFE8"/><path d="M4.91 1.834H3.272v1.637h1.636V1.834zM13.091.198h-1.636v1.636h1.636V.198zm-1.636 0H9.818v1.636h1.637V.198zm-1.637 0H8.182v1.636h1.636V.198zm-1.636 0H6.545v1.636h1.637V.198z" fill="#3B2027"/><path d="M6.546.198H4.909v1.636h1.637V.198z" fill="#3B2027"/></g><defs><clipPath id="clip0_323_48992"><path fill="#fff" transform="translate(0 .198)" d="M0 0h18v19.636H0z"/></clipPath></defs></svg>