<svg width="54" height="73" fill="none" xmlns="http://www.w3.org/2000/svg"><g clip-path="url(#clip0_323_50524)"><path d="M22.322 67.75v4.421H8.933V63.33H4.41v-4.524s.113-.102.159-.147c.521-.261 1.088-.204 1.632-.204h5.669c.51 0 1.043-.034 1.496.306.578.873.272 1.859.329 2.789.034.544.034 1.1-.011 1.655.068 1.326-.102 2.664.136 4.059 1.349.306 2.686.067 4.002.17 1.44.056 2.902-.205 4.33.18.057.046.102.092.159.137h.011zm26.653-8.956v4.444h-4.444v8.933H31.074V67.75s.102-.09.159-.136c1.428-.374 2.868-.125 4.308-.181 1.292-.069 2.585.079 4.002-.125.295-1.36.068-2.732.159-4.082.079-1.485-.318-3.004.294-4.444.261-.238.601-.306.93-.306a221.3 221.3 0 017.256 0c.226 0 .442.068.646.17.056.046.113.102.158.148h-.01zM22.322 5.284H40.02v4.478s-.113.102-.17.147c-.487.25-1.009.204-1.53.204H24.057c-.59 0-1.19.046-1.848-.397-.363-1.36-.34-2.811-.023-4.274.046-.056.102-.113.148-.17l-.012.012zm26.642 17.901v13.218h-4.467s-.09-.102-.147-.158c-.397-1.44-.125-2.902-.181-4.365a88.138 88.138 0 010-4.24c.034-1.497-.239-3.016.26-4.58a9.514 9.514 0 014.376-.045c.057.045.114.102.17.147l-.011.023zM4.41 49.849v-4.478h8.956s.09.102.147.159c.239 1.474.465 2.936-.147 4.376-.238.193-.533.26-.827.272a196.92 196.92 0 01-7.324 0c-.227 0-.442-.068-.635-.17-.057-.046-.102-.102-.159-.148l-.011-.011zm35.61-4.489h8.955v4.478s-.102.102-.158.147c-.556.272-1.157.193-1.735.204h-5.646c-.476 0-.963.023-1.383-.272-.657-1.44-.397-2.913-.17-4.399.045-.056.102-.102.148-.158h-.012z" fill="#141414"/><path d="M48.964 14.24h4.421v8.945h-4.42l.01.011c-.555-.714-.317-1.553-.351-2.335a21.313 21.313 0 01.011-2.086c.057-1.463-.204-2.937.182-4.376.045-.057.09-.102.147-.16zM4.41 58.794H0v-8.956h4.41c.329.351.351.805.363 1.247.011 2.154.011 4.308 0 6.462 0 .453-.034.895-.363 1.258v-.011zm44.565-8.945h4.41v8.956h-4.41c-.328-.351-.35-.805-.362-1.247a610.512 610.512 0 010-6.462c0-.453.034-.896.362-1.258v.011z" fill="#141414"/><path d="M40.008 9.762h8.956v4.478h.011c-.328.272-.725.34-1.133.34-2.256.022-4.512.022-6.78 0-.374 0-.737-.046-1.054-.295-.556-1.519-.578-3.027 0-4.546h-.011l.01.023zM8.9 14.24V5.284h4.478s.09.102.136.158c.385 1.44.125 2.903.181 4.365-.068 1.485.272 2.982-.238 4.433-1.451.6-2.925.385-4.399.147a1.767 1.767 0 01-.158-.147z" fill="#141414"/><path d="M13.378 5.284V.862h8.945v4.422h.01c-.362.306-.804.34-1.258.351-2.154.011-4.308.011-6.462 0-.453 0-.895-.034-1.258-.363h.011l.012.012zM4.421 27.663H0v-8.945h4.421s.091.102.148.159c.272.555.192 1.167.192 1.757v5.68c0 .408 0 .816-.192 1.201a1.79 1.79 0 01-.148.159v-.011z" fill="#141414"/><path d="M8.888 36.404H4.421v-8.741H4.41c1.496-.59 2.993-.476 4.512-.068.646 1.383.215 2.845.306 4.262-.057 1.463.215 2.948-.181 4.4-.046.056-.102.101-.148.158l-.011-.011zM31.063 67.75h-8.752.011c-.6-1.485-.521-3.004-.056-4.523.306-.25.68-.284 1.054-.295 2.233-.023 4.455-.023 6.689 0 .374 0 .748.045 1.065.272.51 1.519.567 3.05-.034 4.569h.012l.011-.023z" fill="#141414"/><path d="M13.366 40.882H8.888v-4.478c1.474-.601 2.96-.465 4.456-.08.657 1.44.408 2.925.17 4.399-.046.056-.102.102-.148.159zM4.421 18.718V14.24H8.9h-.011c.692 1.485.374 2.981.159 4.625-1.633.216-3.14.533-4.637-.158h.011v.01zm40.076 17.686v4.477H40.02s-.102-.102-.147-.158c-.25-1.474-.465-2.948.147-4.388 1.497-.43 2.982-.51 4.467.057l.011.011z" fill="#141414"/><path d="M13.366 45.36v-4.478c1.497-.567 2.993-.522 4.501-.034.533 1.507.487 3.038.045 4.557-1.519.476-3.038.533-4.546-.045zm26.653-4.478v4.478c-1.496.578-3.004.487-4.523.068-.5-1.52-.488-3.039 0-4.558 1.507-.533 3.015-.555 4.523 0v.012z" fill="#141414"/><path d="M31.063 63.317h-8.73c-.997.578-2.096.216-3.14.306-.442.034-.884.012-1.326-.011-1.066.045-2.143.023-3.208.011-.442 0-.896 0-1.247-.34-.023-1.485-.034-2.97-.057-4.455.045-.057.102-.102.147-.159 1.463-.43 2.96-.136 4.433-.204a900.649 900.649 0 0117.504 0c1.485.068 2.982-.238 4.444.204.046.057.102.102.148.159-.023 1.485-.034 2.97-.057 4.455-.635.533-1.406.318-2.12.34a26.51 26.51 0 01-2.324-.011c-1.111.045-2.21.023-3.322.011-.408 0-.816-.022-1.156-.306h.011z" fill="#D0630B"/><path d="M4.41 58.805v-8.967c2.97 0 5.952 0 8.922-.012.057.046.102.091.159.136.442 1.44.136 2.925.204 4.388.045 1.1.023 2.188.011 3.287 0 .397 0 .805-.306 1.134l-.056.057c-2.982 0-5.964-.012-8.945-.023h.011z" fill="#B68031"/><path d="M13.4 63.283l4.444.034c.544 1.474.544 2.937 0 4.41H13.39v-4.444h.011z" fill="#10A7B1"/><path d="M17.856 67.727v-4.41h4.478v4.456c-1.497-.012-2.982-.034-4.478-.046z" fill="#0FC6D2"/><path d="M48.975 49.838v8.967c-2.981 0-5.963.011-8.944.023l-.057-.057c-.567-.93-.227-1.95-.306-2.925a8.718 8.718 0 01.011-1.44c.034-1.417-.125-2.845.114-4.262a.698.698 0 01.249-.318c2.97 0 5.952 0 8.922.012h.011z" fill="#B67F31"/><path d="M31.063 63.317h4.478c.556 1.474.556 2.937 0 4.41-1.496.012-2.981.034-4.478.046v-4.456z" fill="#0FC6D2"/><path d="M35.53 67.727v-4.41l4.444-.034v4.444h-4.455.01z" fill="#10A7B1"/><path d="M13.355 5.261h8.979v4.478H40.03v4.478l-.136.136c-.771.352-1.599.159-2.404.204-.476.034-.964-.068-1.428.227-.533 1.258.215 2.71-.51 3.957-.635.43-1.361.26-2.041.306-.624.045-1.259-.102-1.905.181-.555 1.258.193 2.72-.499 3.968-.623.465-1.349.283-2.029.329-.623.034-1.258-.091-1.893.158-.42.59-.193 1.27-.25 1.916-.068.726.16 1.485-.328 2.143-1.429.42-2.857.465-4.286-.034-.578-.828-.294-1.768-.34-2.653a14.541 14.541 0 01.012-1.86c.056-1.495-.261-3.003.215-4.477.499-.454 1.122-.318 1.7-.363.703-.045 1.418.125 2.189-.227a9.159 9.159 0 00-.023-3.423c-2.721-.386-5.42.113-8.072-.284a.73.73 0 01-.306-.25c-.476-1.235.034-2.573-.352-3.842-.68-.42-1.44-.182-2.154-.239-.612-.056-1.27.125-1.802-.35-.011-1.497-.034-2.983-.045-4.479h.01z" fill="#0FC6D2"/><path d="M48.941 18.707c.012 1.496.034 2.992.046 4.489h-4.524v4.478c-1.485.556-2.97.499-4.455.034-.578-.873-.272-1.86-.329-2.8a11.516 11.516 0 01.012-1.655c.045-1.474-.182-2.96.158-4.422a.643.643 0 01.306-.294c1.576-.363 3.175-.114 4.762-.17a49.056 49.056 0 012.89 0c.409 0 .828.01 1.146.34h-.012z" fill="#10A7B1"/><path d="M44.497 36.404c-1.474.01-2.959.033-4.432.045a.974.974 0 01-.16-.148c-.317-1.485-.441-2.97.08-4.444 1.497-.42 2.993-.51 4.478.068 0 1.497.023 2.993.034 4.479z" fill="#885135"/><path d="M44.463 31.925h-4.41c-.691-1.28-.317-2.63-.26-3.968a.71.71 0 01.249-.328l4.421.045v4.251z" fill="#0FC6D2"/><path d="M13.366 45.36c1.485 0 2.982-.023 4.467-.023 1.52-.51 3.027-.522 4.535.011.59 1.486.317 2.97.17 4.308-.488.51-.941.533-1.383.544-2.2.023-4.388.023-6.587 0-.408 0-.828-.01-1.145-.328l-.09-.046.033-4.466zm22.187-.023c1.485 0 2.981.023 4.466.023l.034 4.466-.09.046c-.295.283-.67.317-1.032.317-2.267.023-4.523.034-6.79 0-.375 0-.738-.057-1.225-.42-.284-1.371-.442-2.879.09-4.398 1.52-.59 3.039-.544 4.558-.034h-.011z" fill="#C1B60E"/><path d="M48.941 18.707c-2.959 0-5.929-.012-8.888-.023-.623-1.474-.567-2.959-.045-4.444h.011c2.982-.011 5.975-.011 8.956-.011-.011 1.496-.034 2.981-.045 4.478h.011zm-44.542 0h4.478v-4.479h4.455c1.508-.532 3.004-.555 4.512.023.624 1.406.34 2.857.193 4.308a.756.756 0 01-.26.306c-1.248.465-2.586-.056-3.855.363-.567 1.292.204 2.755-.533 4.013-.635.431-1.36.261-2.052.306-.624.046-1.258-.113-1.905.193-.351.714-.136 1.508-.192 2.268-.046.578.113 1.201-.352 1.689-1.496 0-2.993 0-4.478-.012v-8.978h-.011z" fill="#0FC6D2"/><path d="M17.844 14.228c-1.507 0-3.004-.01-4.512-.022l.068-4.478h4.444v4.5zM8.888 27.685v-4.534h4.444s.102.09.159.147c.442 1.451.136 2.936.204 4.41-.08 1.429.306 2.88-.272 4.274-1.508.453-3.004.533-4.5-.057l-.035-4.228v-.012z" fill="#10A7B1"/><path d="M8.922 31.925h4.41c.714 1.36.329 2.79.25 4.206a.652.652 0 01-.261.318l-4.433-.045c0-1.497.023-2.994.034-4.479z" fill="#885135"/><path d="M17.822 40.916c-1.485 0-2.97-.023-4.444-.034-.012-1.474-.034-2.96-.046-4.433l.068-.068c1.463-.556 2.925-.42 4.399-.068.714 1.383.34 2.834.272 4.274a.711.711 0 01-.25.329zm22.198-.034c-1.486 0-2.971.022-4.445.034-.056-.046-.102-.102-.159-.148-.283-1.474-.464-2.947.125-4.41 1.485-.465 2.97-.499 4.456.023l.068.068c-.012 1.474-.034 2.959-.046 4.433z" fill="#885135"/><path d="M22.334 45.382c-1.497-.011-3.005-.034-4.501-.045v-4.422l.057-.056c1.485-.59 2.959-.329 4.534-.125a9.562 9.562 0 01.069 4.49c-.046.056-.103.113-.148.17l-.011-.012zm13.219-.045l-4.501.045s-.102-.113-.148-.17c-.351-1.428-.272-2.857.023-4.433 1.553-.317 3.061-.51 4.58.068 0 0 .057.057.068.057v4.422l-.023.011z" fill="#885135"/><path d="M31.052 45.382v4.49h8.91l.035 4.432c-.454.431-1.032.33-1.565.363-.76.046-1.542-.124-2.335.17-.374.726-.159 1.508-.216 2.268-.045.578.091 1.19-.362 1.678H17.856c-.431-.454-.33-1.032-.352-1.576-.034-.76.09-1.542-.136-2.313-.76-.386-1.553-.17-2.301-.227-.578-.045-1.19.091-1.678-.363l.034-4.432h8.91v-4.49l-.01-.022c.328-.295.736-.34 1.144-.34a301.57 301.57 0 016.451 0c.408 0 .816.045 1.145.34v.022h-.011z" fill="#F9EB0A"/><path d="M13.389 54.304h4.478v4.467h-4.455c0-1.485 0-2.981-.012-4.467h-.011zm22.13 4.467v-4.467h4.478c0 1.486 0 2.982-.012 4.467H35.52z" fill="#C1B60E"/><path d="M31.063 45.348h-8.74v-4.5h-4.445a589.528 589.528 0 00-.056-4.49l.158-.125c1.213-.419 2.528.069 3.73-.328.34-.454.26-.953.26-1.429.012-1.791 0-3.57 0-5.362 0-.442-.022-.896.205-1.315.045-.046.102-.09.147-.148 1.417 0 2.823-.022 4.24-.022 1.485-.533 2.97-.442 4.456-.034.43.453.363 1.043.363 1.587.01 1.757 0 3.503 0 5.26 0 .476-.08.975.26 1.44 1.19.42 2.506-.08 3.719.34.056.045.102.09.158.125-.022 1.496-.034 2.993-.056 4.49h-4.444v4.5l.045.011z" fill="#B67F31"/><path d="M17.856 18.73c0-1.497 0-2.994-.012-4.502h8.65v4.49h-4.183c-1.485.544-2.97.533-4.444 0l-.011.011zm22.152-4.49l.034 4.444-.057.057c-1.371.578-2.777.294-4.172.192a.63.63 0 01-.317-.25V14.24h4.512z" fill="#10A7B1"/><path d="M17.855 18.73H22.3c0 1.496-.01 2.98-.022 4.477-1.485.567-2.97.522-4.467.023-.499-1.508-.555-3.004.046-4.5z" fill="#885135"/><path d="M31.03 23.15v-4.477h4.477l.057.056c.578 1.395.306 2.823.181 4.252a.76.76 0 01-.249.317c-1.383.374-2.766.227-4.16.09a.653.653 0 01-.307-.249v.012z" fill="#10A7B1"/><path d="M17.833 23.185h4.455c.012 1.485.034 2.981.046 4.466l-.023.023c-1.406.6-2.846.317-4.285.193a.72.72 0 01-.318-.26c-.317-1.418-.294-2.846-.022-4.275.045-.057.09-.102.136-.159l.01.012z" fill="#B68031"/><path d="M31.063 27.651c-1.496 0-2.993-.011-4.49-.022V23.15h4.456l.057.056c.555 1.417.374 2.846.125 4.286-.046.056-.091.102-.136.158h-.012z" fill="#10A7B1"/><path d="M35.519 23.185c.01-1.485.022-2.97.034-4.444h4.432c0 1.485 0 2.97-.011 4.455-1.485.544-2.97.567-4.455 0v-.011z" fill="#885135"/><path d="M35.519 23.185h4.455c.023 1.485.045 2.959.057 4.444l-.057.045c-1.417.59-2.857.34-4.308.17a.644.644 0 01-.306-.295c-.204-1.473-.454-2.947.159-4.387v.023z" fill="#B68031"/><path d="M35.552 27.685h4.433l.068 4.252-.068 4.455c-1.474 0-2.959 0-4.433-.011v.023c-.306-.318-.362-.726-.362-1.134a305.526 305.526 0 010-6.45c0-.409.022-.829.362-1.135z" fill="#DFFEF9"/><path d="M17.856 18.718c0 1.485-.023 2.97-.034 4.467-1.474.59-2.96.544-4.456.034l-.056-.057v-4.444h4.546z" fill="#10A7B1"/><path d="M17.833 36.358c-1.474 0-2.959 0-4.433.012l-.068-4.456.068-4.251c1.474-.544 2.96-.567 4.433.023.34.35.363.793.363 1.235.011 2.075.011 4.15 0 6.224 0 .442-.023.896-.363 1.247v-.034z" fill="#DFFEF9"/><path d="M17.833 27.685c-1.474 0-2.959-.01-4.433-.022 0-1.485 0-2.97-.011-4.456l4.455-.034v4.512h-.011z" fill="#885135"/><path d="M17.833 36.392v-8.707h4.478v8.707h-4.478zm17.719-8.707v8.707h-4.489v-8.74.022c1.485-.555 2.959-.578 4.433.011h.056z" fill="#000"/><path d="M35.484 27.697c-1.474 0-2.959 0-4.433-.012 0-1.485.023-2.981.023-4.466l4.456-.034c-.012 1.507-.034 3.015-.046 4.512z" fill="#885135"/></g><defs><clipPath id="clip0_323_50524"><path fill="#fff" transform="translate(0 .862)" d="M0 0h53.385v71.309H0z"/></clipPath></defs></svg>