<svg width="54" height="72" viewBox="0 0 54 72" fill="none" xmlns="http://www.w3.org/2000/svg">
<g clip-path="url(#clip0_323_50586)">
<path d="M8.87695 4.39884V0.00012207H44.5088V4.39884C44.5088 4.39884 44.4068 4.50087 44.3501 4.55755C44.01 4.75028 43.6359 4.77295 43.2617 4.77295C39.1918 4.77295 35.1332 4.8183 31.0632 4.75028C28.161 4.79563 25.2588 4.79563 22.3679 4.75028C20.8714 4.78429 19.3636 4.79563 17.8671 4.75028C16.382 4.78429 14.8968 4.79563 13.4117 4.75028C11.9493 4.6936 10.4641 4.97702 9.02433 4.55755C8.97899 4.51221 8.9223 4.45552 8.87695 4.41017V4.39884Z" fill="#141414"/>
<path d="M48.9864 57.9429V62.387H44.5423V71.3204H31.0854V66.8991C31.0854 66.8991 31.1875 66.8084 31.2442 66.763C32.684 66.3776 34.1464 66.6383 35.5975 66.5816C36.8786 66.4796 38.1823 66.695 39.3954 66.4456C39.7695 65.9354 39.6901 65.4366 39.6901 64.9604C39.6901 63.1465 39.6901 61.3326 39.6901 59.5074C39.6901 58.9632 39.6335 58.385 40.0076 57.9089C40.2797 57.6822 40.6084 57.6141 40.9485 57.6141C43.3633 57.5801 45.7781 57.5688 48.1928 57.6141C48.4196 57.6141 48.635 57.6822 48.8277 57.7842C48.8844 57.8295 48.9297 57.8862 48.9864 57.9316V57.9429Z" fill="#141414"/>
<path d="M22.3223 66.8991V71.3205H8.94481V62.4777H4.42139V57.9543C4.42139 57.9543 4.52342 57.8523 4.5801 57.8069C5.1016 57.5462 5.66844 57.6029 6.21262 57.6029C8.09454 57.6029 9.9878 57.6029 11.8697 57.6029C12.3799 57.6029 12.9127 57.5689 13.3662 57.8863C13.7743 58.3511 13.7176 58.9293 13.7176 59.4734C13.729 61.2873 13.7176 63.1126 13.7176 64.9265C13.7176 65.4026 13.6496 65.9015 14.0011 66.4343C15.2028 66.695 16.5065 66.4683 17.7876 66.5817C19.2387 66.6384 20.7125 66.3776 22.1523 66.7631C22.209 66.8084 22.2543 66.8538 22.311 66.9104L22.3223 66.8991Z" fill="#141414"/>
<path d="M4.39871 31.0858H0V8.89954H4.42139C4.42139 8.89954 4.52342 9.00157 4.56877 9.05825C4.79551 9.46638 4.77283 9.91986 4.77283 10.3733C4.77283 12.8788 4.80684 15.3729 4.75016 17.8784C4.80684 21.8689 4.77283 25.8595 4.77283 29.8501C4.77283 30.2242 4.7615 30.5983 4.56877 30.9385C4.51208 30.9951 4.46674 31.0405 4.41005 31.0972L4.39871 31.0858Z" fill="#141414"/>
<path d="M48.9978 8.88817H53.3965V31.0858H48.9978C48.9978 31.0858 48.8958 30.9838 48.8391 30.9271C48.6464 30.587 48.6237 30.2129 48.6237 29.8387C48.6237 25.8482 48.5783 21.8689 48.6464 17.8783C48.601 15.2935 48.6237 12.6974 48.635 10.1126C48.635 9.73843 48.6464 9.37565 48.8391 9.03555C48.8844 8.97886 48.9411 8.93352 48.9978 8.87683V8.88817Z" fill="#141414"/>
<path d="M48.9866 48.9868H53.3967V57.943H48.9866C48.7485 57.6822 48.6578 57.3534 48.6578 57.0133C48.6238 54.5986 48.6125 52.1838 48.6578 49.7804C48.6578 49.5537 48.7259 49.3383 48.8279 49.1455C48.8732 49.0888 48.9299 49.0435 48.9753 48.9868H48.9866Z" fill="#141414"/>
<path d="M4.40967 48.9869V44.5088H13.3658C13.3658 44.5088 13.4565 44.6108 13.5132 44.6675C13.7626 46.1413 13.9553 47.6151 13.3885 49.0662C13.3205 49.1116 13.2638 49.1683 13.1958 49.1796C10.3162 49.4177 7.43662 49.497 4.56838 49.1342C4.5117 49.0889 4.46635 49.0322 4.40967 48.9869Z" fill="#141414"/>
<path d="M40.0192 44.5088H48.9753V48.9869C48.6806 49.2589 48.3178 49.327 47.9437 49.327C45.5969 49.3496 43.2502 49.361 40.9148 49.327C40.62 49.327 40.3253 49.2703 40.0645 49.1002C39.373 47.6491 39.6564 46.164 39.8831 44.6675C39.9285 44.6108 39.9852 44.5655 40.0305 44.5088H40.0192Z" fill="#141414"/>
<path d="M4.41005 57.943H0V48.9868H4.41005C4.73882 49.3496 4.76149 49.7917 4.76149 50.2452C4.77283 52.3992 4.77283 54.5419 4.76149 56.6959C4.76149 57.138 4.73882 57.5915 4.41005 57.9543V57.943Z" fill="#141414"/>
<path d="M31.0741 66.8991H22.3221H22.3334C21.7439 65.4027 21.8119 63.8949 22.2767 62.3757C22.5828 62.1263 22.9569 62.0923 23.331 62.081C25.5644 62.0583 27.7864 62.0583 30.0198 62.081C30.3939 62.081 30.768 62.115 31.0855 62.3531C31.5956 63.8722 31.6523 65.4027 31.0515 66.9218H31.0628L31.0741 66.8991Z" fill="#141414"/>
<path d="M8.88785 35.5526H4.39844V31.0858L4.42111 31.0632C5.89491 30.4736 7.38004 30.6097 8.86517 30.9951C9.52271 32.4349 9.2733 33.92 9.03523 35.3938C8.98988 35.4505 8.93319 35.4959 8.88785 35.5526Z" fill="#141414"/>
<path d="M48.998 31.0859V35.5526H44.5085C44.5085 35.5526 44.4179 35.4506 44.3725 35.4052C44.0664 33.9994 44.1004 32.5937 44.3498 31.1766C44.4179 31.0519 44.5199 30.9498 44.6446 30.8931C46.0957 30.7117 47.5468 30.4737 48.9753 31.0518L49.0093 31.0859H48.998Z" fill="#141414"/>
<path d="M13.3774 44.5088C13.3774 43.0123 13.3774 41.5272 13.3774 40.0307C13.4341 39.9854 13.4795 39.9287 13.5362 39.8833C15.01 39.6339 16.4838 39.4185 17.9235 40.0307C18.377 41.5272 18.411 43.035 17.9009 44.5315C16.3931 45.0416 14.8852 45.0756 13.3888 44.5088H13.3774Z" fill="#141414"/>
<path d="M40.0303 40.0306C40.0303 41.5271 40.0303 43.0122 40.0303 44.5087C38.5452 45.0869 37.0374 45.0188 35.5409 44.554C34.9854 43.0689 35.0647 41.5611 35.4729 40.0533C36.9127 39.3844 38.3978 39.6452 39.8829 39.8832C39.9396 39.9286 39.985 39.9853 40.0416 40.0306H40.0303Z" fill="#141414"/>
<path d="M44.5087 35.5525V40.0306H40.0193C39.4525 38.5228 39.4978 37.0263 39.9853 35.5299C41.4931 35.0197 42.9896 34.9857 44.4974 35.5412L44.5087 35.5525Z" fill="#141414"/>
<path d="M13.3663 40.0307H8.88818C8.88818 38.5002 8.88818 37.0264 8.88818 35.5526C10.3847 34.9857 11.8811 35.0311 13.3889 35.5072C13.8991 37.015 13.9331 38.5115 13.3776 40.0193L13.3663 40.0307Z" fill="#141414"/>
<path d="M4.42139 8.89957V4.41016H8.88812L8.9108 4.43283C9.4663 5.9293 9.40962 7.43711 8.95614 8.95625C7.437 9.42106 5.92919 9.48908 4.42139 8.9109V8.89957Z" fill="#141414"/>
<path d="M44.52 4.3988H48.998V8.87688L48.9754 8.89955C47.5016 9.55709 46.0164 9.23966 44.3953 9.0696C44.1005 7.43709 43.8511 5.92928 44.4973 4.42148L44.52 4.3988Z" fill="#141414"/>
<path d="M44.4973 4.42148V8.89955H48.9754C48.9754 11.8812 48.9754 14.8628 48.9754 17.8444C48.4765 18.2865 47.853 18.1618 47.2635 18.2071C46.5379 18.2525 45.7784 18.0598 45.0868 18.4112C44.7807 18.91 44.8601 19.4429 44.8601 19.953C44.8601 23.116 44.8601 26.2903 44.8601 29.4533C44.8601 30.0088 44.9281 30.587 44.5313 31.0632H44.486C43.0008 31.63 41.5157 31.5733 40.0192 31.1085C39.3503 29.7368 39.7925 28.2856 39.7018 26.8685C39.6338 25.5421 39.7925 24.2044 39.5884 22.9006C38.2167 22.3224 36.7429 23.0933 35.4958 22.3224C35.0423 20.86 35.031 19.3975 35.4731 17.9237C35.8926 17.4362 36.4821 17.5383 37.0263 17.5042C37.8312 17.4476 38.6588 17.6403 39.5431 17.3002C39.8038 16.2005 39.7245 15.0782 39.5884 13.8651C38.4094 13.559 37.287 13.7177 36.1874 13.7631C35.7112 14.6247 35.9493 15.4523 35.8926 16.2572C35.8472 16.8354 35.9833 17.4589 35.4618 17.9237C35.1104 18.1958 34.6909 18.1958 34.2828 18.1958C28.8524 18.1958 23.4107 18.2411 17.9803 18.1731C16.6312 18.2298 15.2595 18.0938 13.8423 18.2865C13.6156 19.7036 13.7857 21.0414 13.7063 22.3564C13.6383 23.8189 13.9784 25.304 13.4796 26.7438C13.0374 27.1973 12.4592 27.0953 11.9037 27.1293C11.0988 27.186 10.2712 27.0046 9.44363 27.3107C8.94481 28.467 9.51165 29.7481 9.04684 30.9045C9.00149 30.9498 8.95614 31.0065 8.9108 31.0518C7.41433 31.0518 5.91786 31.0405 4.42139 31.0292C4.42139 26.6191 4.42139 22.2091 4.42139 17.8103C4.96556 17.3682 5.6231 17.5269 6.24663 17.4816C6.93818 17.4362 7.6524 17.6176 8.36663 17.2775C8.83144 16.0191 8.23058 14.6133 8.8201 13.2983C10.0558 12.6634 11.4616 13.2756 12.788 12.8335C13.3208 11.6204 12.7653 10.2713 13.1621 9.03559C13.2188 8.91089 13.3095 8.80885 13.4115 8.7295C14.6473 8.25335 15.985 8.76351 17.2434 8.36672C17.6515 7.72051 17.4361 6.99495 17.4928 6.31474C17.5495 5.66854 17.3568 4.97699 17.8103 4.3988C19.3181 4.3988 20.8259 4.3988 22.3223 4.3988C22.7418 4.90896 22.6058 5.53249 22.6511 6.11067C22.6965 6.83624 22.5151 7.59581 22.9345 8.49142C25.372 8.53677 27.8774 8.55944 30.3375 8.46875C30.8477 7.83388 30.6323 7.17634 30.689 6.56415C30.757 5.83859 30.5189 5.06768 31.0177 4.3988H44.4633L44.4973 4.42148Z" fill="#3A2420"/>
<path d="M31.0518 4.43286V8.82024H22.3564C22.3564 7.35778 22.3564 5.89532 22.3564 4.43286C25.2587 4.43286 28.1496 4.43286 31.0518 4.43286Z" fill="#575757"/>
<path d="M8.88818 8.87692C8.88818 7.39179 8.89952 5.91799 8.91086 4.43286C10.4073 4.43286 11.9038 4.43286 13.4003 4.43286C13.9218 5.92933 13.9444 7.41446 13.3776 8.8996C11.8811 9.44377 10.3733 9.47778 8.88818 8.86559V8.87692Z" fill="#3A2420"/>
<path d="M13.3662 8.8996C13.3662 7.41446 13.3775 5.91799 13.3889 4.43286C14.874 4.43286 16.3478 4.43286 17.8329 4.43286C17.8329 5.86131 17.8329 7.28976 17.8329 8.8996H13.3662Z" fill="#575757"/>
<path d="M40.0532 48.9755C43.0348 48.9755 46.0051 48.9755 48.9867 48.9868V57.9429C46.0051 57.9543 43.0235 57.9656 40.0419 57.9883C39.9965 57.9429 39.9398 57.8863 39.8945 57.8409C39.475 56.3898 39.7584 54.8933 39.7018 53.4309C39.6451 52.3539 39.6791 51.2882 39.6904 50.2112C39.6904 49.769 39.6791 49.3156 40.0645 48.9755H40.0532Z" fill="#9B662C"/>
<path d="M40.0418 57.9883V66.8765H35.5411C35.2463 66.593 35.2123 66.2189 35.2123 65.8448C35.1896 63.5774 35.1896 61.2987 35.2123 59.0313C35.2123 58.6572 35.2577 58.2831 35.4957 57.9657C36.9922 57.3875 38.4887 57.4215 39.9852 57.9316L40.0418 57.9997V57.9883Z" fill="#B1296D"/>
<path d="M35.5636 57.9884C35.5636 60.9473 35.541 63.9176 35.541 66.8765C34.0445 66.8879 32.5594 66.8992 31.0629 66.9219C31.0629 65.4367 31.0629 63.9403 31.0516 62.4551C30.4847 60.9813 30.6434 59.4962 30.9495 57.9997C32.344 57.2855 33.7951 57.6596 35.2349 57.739C35.3709 57.7957 35.473 57.875 35.5636 57.9997V57.9884Z" fill="#D9639D"/>
<path d="M4.42139 57.9429C4.42139 54.9613 4.42139 51.9684 4.42139 48.9868C7.40299 48.9868 10.3733 48.9868 13.3549 48.9755C13.8423 49.4403 13.7176 50.0638 13.729 50.6306C13.7403 51.5376 13.7743 52.4559 13.7063 53.3628C13.6723 54.7913 13.8197 56.2311 13.6043 57.6595C13.5589 57.7956 13.4796 57.8976 13.3662 57.9883C10.3846 57.977 7.40299 57.9656 4.42139 57.9429Z" fill="#9B662C"/>
<path d="M22.3565 62.4437C22.3565 63.9289 22.3565 65.4253 22.3451 66.9105C20.8487 66.8991 19.3635 66.8878 17.867 66.8651C17.5723 66.593 17.5156 66.2189 17.5156 65.8448C17.4929 63.5207 17.4816 61.1967 17.5156 58.8726C17.5156 58.5438 17.5836 58.2151 17.799 57.9316C19.3182 57.3535 20.8373 57.4328 22.3678 57.875C22.8553 59.3941 22.878 60.9246 22.3451 62.4437H22.3565Z" fill="#D9639D"/>
<path d="M17.867 57.977C17.867 60.9359 17.867 63.9061 17.867 66.8651C16.4272 66.8651 14.9874 66.8651 13.3662 66.8651C13.3662 63.8835 13.3662 60.9359 13.3662 57.977L13.4229 57.9089C14.84 57.3648 16.2798 57.5121 17.7196 57.8069C17.7649 57.8636 17.8103 57.9089 17.867 57.9656V57.977Z" fill="#B1296D"/>
<path d="M8.88812 8.87683C10.3846 8.87683 11.8811 8.88817 13.3775 8.8995C13.3775 10.3393 13.3775 11.7791 13.3775 13.3549H8.95614V17.8556C7.36898 17.8556 5.90652 17.8556 4.43272 17.8556C4.43272 14.874 4.43272 11.8924 4.42139 8.91084C5.90652 8.91084 7.40299 8.89951 8.88812 8.88817V8.87683Z" fill="#575757"/>
<path d="M44.5312 31.0745V17.8557C46.0504 17.8557 47.5129 17.8557 48.9753 17.8557C48.9753 22.2544 48.9753 26.6531 48.964 31.0632C47.4902 31.0632 46.005 31.0745 44.5312 31.0859V31.0745Z" fill="#191919"/>
<path d="M13.3773 53.4649C13.3773 51.9684 13.3546 50.472 13.3433 48.9755C13.3433 47.4904 13.3546 45.9939 13.3659 44.5088C14.8511 44.5088 16.3475 44.5088 17.8327 44.4974C17.878 44.5428 17.9234 44.5881 17.98 44.6335C18.3202 45.3364 18.1388 46.0959 18.1954 46.8328C18.2295 47.377 18.0821 47.9552 18.4222 48.4767C19.7033 49.0095 21.1771 48.2046 22.4241 49.0322C22.8322 50.5287 22.8776 52.0251 22.4128 53.5103C21.3925 54.0771 20.2701 53.737 19.1931 53.8277C18.7623 53.8617 18.3202 53.839 17.878 53.805C16.801 53.8504 15.724 53.8277 14.647 53.8164C14.2049 53.8164 13.7514 53.805 13.3886 53.4649H13.3773Z" fill="#B1296D"/>
<path d="M40.0531 48.9755C40.0417 50.472 40.0304 51.9685 40.0191 53.4649C39.2935 54.0204 38.4546 53.7824 37.661 53.8164C36.9581 53.8504 36.2552 53.8504 35.5523 53.805C34.0445 53.7257 32.5141 54.0998 31.0289 53.5443C30.4961 52.0592 30.6095 50.5627 30.9609 49.0662C31.3917 48.6014 31.9812 48.7034 32.5367 48.6581C33.353 48.6014 34.1806 48.7941 35.0082 48.4767C35.5183 47.241 34.9061 45.8806 35.4163 44.6448C35.4616 44.5995 35.5183 44.5541 35.5637 44.5088H40.0304C40.0304 46.0166 40.0417 47.5017 40.0531 48.9869V48.9755Z" fill="#B1296D"/>
<path d="M22.3561 62.4438C22.3561 60.9586 22.3561 59.4622 22.3447 57.977C22.6735 57.5803 23.1383 57.5916 23.5804 57.5916C25.6664 57.5689 27.7524 57.5689 29.8384 57.5916C30.2806 57.5916 30.7454 57.5916 31.0741 57.977C31.0741 59.4622 31.0741 60.9586 31.0628 62.4438C28.1719 62.4438 25.2696 62.4438 22.3787 62.4438H22.3561Z" fill="#B1296D"/>
<path d="M13.3321 35.5866C11.8583 35.5752 10.3732 35.5526 8.89941 35.5412C8.89941 34.0561 8.89941 32.5596 8.89941 31.0745C10.3619 30.4283 11.8357 30.621 13.3208 30.9611C14.035 32.3556 13.6609 33.818 13.5929 35.2578C13.5362 35.3938 13.4568 35.4959 13.3321 35.5752V35.5866Z" fill="#7E4632"/>
<path d="M40.0759 31.0519C41.5384 31.0519 43.0122 31.0632 44.4746 31.0746C44.4746 32.5597 44.486 34.0562 44.4973 35.5413L40.0646 35.5866C40.0646 35.5866 39.9626 35.5073 39.9059 35.4619C39.5204 34.1015 39.6678 32.7184 39.8152 31.3466C39.8719 31.2219 39.9512 31.1199 40.0759 31.0519Z" fill="#7E4632"/>
<path d="M17.833 44.4974C17.833 43.0123 17.833 41.5385 17.833 40.0534C17.8897 39.9967 17.935 39.9513 17.9917 39.8946C19.4542 39.5205 20.9053 39.5772 22.4698 39.9173C22.7419 41.4932 22.9459 43.001 22.3791 44.5201C20.8713 45.0643 19.3635 45.0303 17.8557 44.5428V44.4861L17.833 44.4974Z" fill="#7E4632"/>
<path d="M13.3774 40.0306C13.366 38.5568 13.3434 37.0717 13.332 35.5979L13.4001 35.5299C14.8852 35.0197 16.3817 35.031 17.8781 35.5299C18.3996 37.0263 18.3996 38.5228 17.8781 40.0193L17.8328 40.0646C16.3476 40.0646 14.8625 40.042 13.3774 40.042V40.0306Z" fill="#7E4632"/>
<path d="M35.5636 40.0533C35.5636 41.5385 35.5636 43.0123 35.5636 44.4974V44.5541C34.0558 45.0416 32.5593 45.0529 31.0515 44.5541C30.4507 43.0349 30.6887 41.5271 30.9382 39.94C32.5027 39.5885 33.9651 39.5432 35.4276 39.906C35.4843 39.9626 35.5296 40.008 35.5863 40.0647L35.5636 40.0533Z" fill="#7E4632"/>
<path d="M40.0645 35.5866C40.0532 37.0604 40.0305 38.5455 40.0192 40.0193C38.534 40.0193 37.0489 40.042 35.5638 40.042L35.5184 39.9966C34.9969 38.5115 35.0196 37.015 35.5184 35.5186C37.0149 34.9971 38.5113 34.9971 40.0078 35.5186L40.0758 35.5866H40.0645Z" fill="#7E4632"/>
<path d="M17.8665 17.8557C23.7617 17.8557 29.6569 17.8557 35.552 17.8557C35.552 19.3295 35.5634 20.826 35.5747 22.3111C35.518 22.3678 35.4727 22.4131 35.416 22.4698C35.0079 22.7079 34.5544 22.6852 34.1123 22.6852C29.1694 22.6852 24.2265 22.6852 19.2836 22.6852C18.8755 22.6852 18.4673 22.6852 18.0705 22.5492C17.9345 22.4925 17.8211 22.4018 17.7304 22.2771C17.4584 20.792 17.2316 19.3068 17.8665 17.8557Z" fill="#7E4632"/>
<path d="M35.5524 17.8557V13.4457H39.9397V17.8444C38.4886 17.8444 37.0148 17.8444 35.541 17.8444L35.5524 17.8557Z" fill="#575757"/>
<path d="M17.8669 17.8557C17.8669 19.3408 17.8442 20.826 17.8328 22.3111C16.3477 22.9233 14.8626 22.8666 13.3774 22.3451V17.8557H17.8669Z" fill="#191919"/>
<path d="M13.3775 22.3452C14.8626 22.3452 16.3478 22.3225 17.8329 22.3112L17.8782 22.3565C18.4451 23.819 18.2977 25.2928 17.9463 26.7666C16.5632 27.4808 15.112 27.084 13.6722 27.0613C13.5362 27.016 13.4228 26.9479 13.3208 26.8346C13.3321 25.3381 13.3548 23.8416 13.3661 22.3452H13.3775Z" fill="#7E4632"/>
<path d="M35.5635 22.3112H39.9962V26.8232C38.5111 27.3561 37.0146 27.3334 35.5181 26.8459C35.008 25.3494 34.9853 23.853 35.5181 22.3452L35.5521 22.3112H35.5635Z" fill="#7E4632"/>
<path d="M13.3775 31.0746C11.881 31.0746 10.3959 31.0746 8.89941 31.0859C8.89941 29.7141 8.89941 28.3537 8.89941 26.8346C10.4526 26.8346 11.8924 26.8346 13.3321 26.8346L13.4002 26.8119C13.9443 28.161 13.7743 29.5441 13.5135 30.9158C13.4682 30.9725 13.4115 31.0179 13.3661 31.0746H13.3775Z" fill="#191919"/>
<path d="M35.5523 26.7892C37.0375 26.8005 38.5113 26.8232 39.9964 26.8345C40.0191 28.2403 40.0531 29.6461 40.0758 31.0518L39.9737 31.0745C38.5113 31.6527 37.0261 31.528 35.5523 31.1312C34.9402 29.7594 35.1329 28.3423 35.3936 26.9365C35.439 26.8799 35.4957 26.8345 35.541 26.7778L35.5523 26.7892Z" fill="#B3584C"/>
<path d="M35.5413 53.499C37.0378 53.4876 38.5229 53.4763 40.0194 53.465C40.0081 54.9501 39.9967 56.4352 39.9854 57.9317C38.5116 57.9544 37.0378 57.9771 35.564 57.9884L35.53 57.909C34.9972 56.4352 34.9972 54.9728 35.53 53.499H35.5413Z" fill="#D49221"/>
<path d="M35.541 53.4989C35.541 54.9727 35.541 56.4352 35.541 57.909C34.0559 57.9317 32.5594 57.9543 31.0743 57.977C28.172 57.977 25.2584 57.977 22.3562 57.977C20.8597 57.977 19.3746 57.977 17.8781 57.977L17.8555 57.9203C17.3226 56.4465 17.2999 54.9727 17.8668 53.4989C19.3519 53.4763 20.8371 53.4536 22.3335 53.4309C22.6736 53.1475 23.0818 53.1135 23.4899 53.1135C25.6326 53.1021 27.7866 53.1021 29.9292 53.1135C30.3374 53.1135 30.7455 53.1588 31.0856 53.4309L35.5523 53.4989H35.541Z" fill="#FEB941"/>
<path d="M17.8554 53.499C17.8554 54.9728 17.8554 56.4466 17.8441 57.9203C16.3703 57.9203 14.8965 57.9203 13.4227 57.9203C13.4113 56.4352 13.4 54.9501 13.3887 53.4536C14.8851 53.465 16.3703 53.4763 17.8667 53.4876L17.8554 53.499Z" fill="#D49221"/>
<path d="M31.0743 53.4309C28.1608 53.4309 25.2472 53.4309 22.3223 53.4309C22.3223 51.9571 22.3449 50.4833 22.3449 49.0095C22.3903 48.9641 22.447 48.9075 22.4923 48.8621C22.9345 48.6127 23.4219 48.6467 23.9094 48.6467C25.8027 48.6467 27.696 48.6467 29.5892 48.6467C30.0314 48.6467 30.4848 48.624 30.893 48.8621C30.9383 48.9075 30.995 48.9641 31.0403 49.0208C31.0403 50.4946 31.063 51.9684 31.063 53.4422L31.0743 53.4309Z" fill="#D9639D"/>
<path d="M17.8442 44.5428C19.3407 44.5315 20.8372 44.5201 22.3336 44.5088C22.379 44.5655 22.4243 44.6108 22.481 44.6675C22.7304 46.1186 22.9345 47.5584 22.3336 48.9755L22.3563 49.0095C20.9279 49.0095 19.4881 49.0095 17.8556 49.0095V44.5428H17.8442Z" fill="#9B662C"/>
<path d="M31.0632 44.5088C32.5597 44.5201 34.0561 44.5315 35.5526 44.5428C35.5526 45.9713 35.5526 47.3997 35.5526 49.0095C33.9654 49.0095 32.5143 49.0095 31.0519 49.0095L31.0745 48.9755C30.4623 47.5584 30.6777 46.1073 30.9272 44.6675C30.9725 44.6108 31.0178 44.5655 31.0745 44.5088H31.0632Z" fill="#9B662C"/>
<path d="M17.8328 35.5073C16.359 35.5073 14.8739 35.5073 13.4001 35.5073C13.4001 34.0222 13.3774 32.5371 13.3774 31.0519V31.0633C14.8399 30.4284 16.325 30.5984 17.8215 30.9612C18.4904 32.3897 18.241 33.8635 17.9916 35.3373C17.9462 35.3826 17.8895 35.4393 17.8328 35.4846V35.5073Z" fill="#DDDDDD"/>
<path d="M35.575 31.0973C37.0488 31.0973 38.5226 31.0859 39.9851 31.0746C39.9851 32.5597 39.9851 34.0335 39.9964 35.5186C38.5226 35.5186 37.0375 35.5186 35.5637 35.5186C35.5183 35.4733 35.473 35.428 35.4163 35.3826C35.0989 33.9995 35.0989 32.6277 35.4163 31.2446C35.4616 31.1993 35.5183 31.1539 35.5637 31.1086L35.575 31.0973Z" fill="#DDDDDD"/>
<path d="M35.5296 22.3564C35.5296 23.8302 35.541 25.3154 35.5523 26.7892L35.5296 26.8459C34.9855 27.2767 34.3279 27.1179 33.7044 27.1633C33.0128 27.2086 32.2986 27.0386 31.539 27.3674C31.2443 28.5691 31.471 29.8275 31.3803 31.0745C31.4597 32.3669 31.2896 33.6707 31.4937 34.9404C32.2419 35.3712 33.0015 35.1558 33.7271 35.2011C34.3506 35.2465 34.9968 35.0991 35.5523 35.5413V35.5186C35.541 37.015 35.5183 38.5115 35.5069 40.008C34.0898 40.008 32.6841 40.008 31.0515 40.008C31.0515 41.5725 31.0515 43.0463 31.0515 44.5201C30.7228 44.8148 30.326 44.8715 29.9065 44.8715C27.7525 44.8942 25.5985 44.8942 23.4558 44.8715C23.0477 44.8715 22.6396 44.8148 22.3108 44.5201C22.3108 43.0803 22.3108 41.6292 22.3108 40.008C20.735 40.008 19.2952 40.008 17.8554 40.008C17.8441 38.5115 17.8214 37.015 17.8101 35.5186V35.5413C18.3542 35.1104 19.0004 35.2465 19.624 35.2125C20.3155 35.1785 21.0297 35.3258 21.8233 35.0198C22.1294 33.7614 21.88 32.4349 21.982 31.1199C21.914 29.8728 22.0841 28.6144 21.8573 27.3787C20.5309 26.8572 19.1818 27.458 17.9574 26.9366C17.9121 26.8912 17.8667 26.8345 17.8327 26.7892C17.8327 25.3154 17.8554 23.8416 17.8667 22.3678C23.7506 22.3678 29.6344 22.3678 35.5183 22.3678L35.5296 22.3564Z" fill="#9B662C"/>
<path d="M17.8667 31.0972C16.3703 31.0972 14.8738 31.0972 13.3887 31.0859C13.3887 29.6574 13.4 28.2403 13.4113 26.8119C14.8965 26.8119 16.3703 26.8005 17.8554 26.7892L17.8667 26.8459C18.4563 28.195 18.2409 29.5667 18.0141 30.9498C17.9688 31.0065 17.9234 31.0519 17.8781 31.1085L17.8667 31.0972Z" fill="#B3584C"/>
<path d="M31.0742 31.0859V26.8459C32.616 26.8459 34.0785 26.8459 35.541 26.8459C35.5523 28.2631 35.5636 29.6915 35.575 31.1086H35.5636C34.0672 31.6188 32.5707 31.6415 31.0856 31.0973L31.0742 31.0859Z" fill="#DD6D5E"/>
<path d="M22.3335 44.5088C25.2471 44.5088 28.1607 44.5088 31.0742 44.5088C31.0742 46.0053 31.0742 47.4904 31.0742 48.9869C28.1607 48.9869 25.2471 48.9869 22.3335 48.9869C22.3335 47.4904 22.3335 46.0053 22.3335 44.5088Z" fill="#7E4632"/>
<path d="M22.3224 31.0859V35.5413C20.7693 35.5413 19.2955 35.5413 17.833 35.5413C17.833 34.0561 17.8557 32.5823 17.8557 31.0972V31.0859C19.3408 30.5077 20.8259 30.5077 22.3111 31.0859H22.3224Z" fill="#141414"/>
<path d="M31.0743 31.0859C32.5708 31.0859 34.0673 31.0859 35.5524 31.0973C35.5524 32.5824 35.5524 34.0562 35.5524 35.5413C34.1126 35.5413 32.6728 35.5413 31.063 35.5413V31.0859H31.0743Z" fill="#141414"/>
<path d="M22.3221 31.0859C20.837 31.0859 19.3518 31.0859 17.8667 31.0859C17.8667 29.6688 17.8667 28.2517 17.8667 26.8346C19.2951 26.8346 20.7349 26.8346 22.3334 26.8346V31.0746L22.3221 31.0859Z" fill="#DD6D5E"/>
</g>
<defs>
<clipPath id="clip0_323_50586">
<rect width="53.3968" height="71.3204" fill="white"/>
</clipPath>
</defs>
</svg>
