<svg width="54" height="67" fill="none" xmlns="http://www.w3.org/2000/svg"><g clip-path="url(#clip0_323_50648)"><path d="M13.377 4.421V0h26.63v4.41s-.101.09-.158.147c-1.45.386-2.936.125-4.41.182a910.75 910.75 0 01-17.493 0c-1.474-.057-2.959.204-4.421-.182-.057-.045-.102-.09-.159-.147l.011.011zM4.421 40.02H0V17.854h4.421s.102.114.148.16c.181.34.192.713.192 1.087 0 3.98.046 7.948-.022 11.927.045 2.585.011 5.158.011 7.743 0 .374-.011.737-.193 1.077-.045.057-.102.102-.147.159l.011.011zm44.554-17.686h4.41v17.685h-4.42s-.092-.113-.148-.159c-.25-.487-.204-1.009-.204-1.53 0-2.415-.034-4.83.022-7.233a82.925 82.925 0 010-4.444c.057-1.383-.204-2.789.182-4.16.045-.057.09-.103.147-.16h.011zm0 31.119v4.444h-4.444v4.513h-4.523s-.09-.102-.136-.16c-.374-1.439-.125-2.901-.181-4.364-.057-1.1-.023-2.2-.012-3.31 0-.408.034-.816.306-1.145.272-.238.601-.295.93-.306 2.415-.034 4.83-.046 7.244 0 .227 0 .442.068.646.17.057.045.114.102.16.147l.01.011z" fill="#141414"/><path d="M44.486 8.9h4.478v13.434c-1.496.589-3.016.51-4.535.067-.272-.34-.294-.748-.306-1.156 0-2.585-.045-5.17.023-7.766.057-1.473-.204-2.958.181-4.421.046-.057.091-.102.148-.159h.011zM13.377 62.41H8.933v-4.433H4.41v-4.523s.113-.103.159-.148c.6-.283 1.235-.193 1.859-.204 1.814 0 3.628-.011 5.442 0 .51 0 1.043-.034 1.496.295.578.873.272 1.859.34 2.8.034.544.034 1.111-.022 1.655-.057 1.463.204 2.936-.17 4.388-.046.056-.091.102-.137.158v.012zm35.598-17.902h4.41v8.957h-4.41c-.238-.25-.329-.579-.34-.919-.023-2.448-.068-4.897.023-7.346 0-.181.068-.363.158-.533.046-.056.102-.113.148-.159h.011zM4.41 53.453H0v-8.956h4.41s.102.114.147.159c.273.555.193 1.168.204 1.757v5.567c0 .521.023 1.054-.351 1.473zm35.598 8.957v4.42h-8.934v-4.42s.102-.091.159-.136c1.44-.375 2.914-.125 4.365-.182 1.065-.057 2.131-.023 3.197-.023.442 0 .884.034 1.235.363l-.022-.022z" fill="#141414"/><path d="M22.31 62.41v4.42h-8.933v-4.42l-.022.022c.714-.555 1.542-.329 2.335-.351a21.344 21.344 0 012.086.011c1.463.057 2.936-.204 4.376.17.057.045.102.09.159.136v.011zM4.41 44.508V40.02c.329-.295.725-.351 1.145-.351 2.256-.023 4.512-.023 6.78 0 .373 0 .736.045 1.054.294.578 1.52.51 3.05.045 4.58-.34.273-.76.295-1.168.295-2.199.023-4.398.012-6.586 0-.454 0-.896-.034-1.259-.363l-.011.035zm.011-26.653V8.9H8.9s.09.102.136.159c.386 1.451.125 2.936.182 4.41-.012 1.474.238 2.959-.272 4.523-1.531.239-3.039.522-4.547-.147h.012l.011.011zM48.975 40.02v4.488c-.328.284-.725.34-1.133.352-2.256.023-4.512.023-6.768 0-.375 0-.737-.045-1.055-.283-.59-1.508-.51-3.016-.057-4.547.749-.555 1.622-.306 2.438-.34a18.32 18.32 0 012.086.012c1.077-.046 2.154-.023 3.23-.023.454 0 .896.023 1.26.351v-.01z" fill="#141414"/><path d="M31.074 62.41h-8.763l.023.022c-.601-1.508-.522-3.027-.068-4.546.306-.25.68-.283 1.054-.295a329.95 329.95 0 016.689 0c.374 0 .748.046 1.065.272.51 1.53.567 3.05-.034 4.57l.023-.023h.011zM8.9 8.9V4.42h4.477-.022c.635 1.406.351 2.869.192 4.32a.677.677 0 01-.283.306c-1.474.204-2.947.476-4.387-.17v.022h.022zm31.108-4.49h4.478v4.478c-1.417.624-2.88.352-4.331.193a.677.677 0 01-.306-.284c-.215-1.473-.465-2.947.159-4.387z" fill="#141414"/><path d="M4.41 17.844h4.523v-4.478c.533-.465 1.19-.295 1.803-.329.691-.045 1.394.08 2.086-.147.567-1.315-.204-2.766.544-4.013l-.023.022c.624-.465 1.338-.294 2.03-.328.623-.034 1.247.068 1.893-.148.397-.646.181-1.36.238-2.04.057-.647-.147-1.338.329-1.916H35.53c.43.453.317 1.031.351 1.575.045.76-.125 1.542.181 2.324 1.27.556 2.733-.215 3.968.533.601 1.417.34 2.88.182 4.331a.622.622 0 01-.284.306c-1.45.374-2.936.125-4.398.17-1.281.09-2.585-.102-3.81.125-.385.51-.306 1.009-.306 1.474v5.453c0 .555.057 1.122-.317 1.598-1.485.522-2.97.442-4.455.057-.465-.488-.34-1.111-.386-1.69-.057-.77.136-1.564-.193-2.335-1.201-.499-2.55.159-3.718-.476-.454-.544-.306-1.202-.34-1.825-.034-.703.08-1.417-.159-2.21-1.111-.296-2.233-.182-3.39-.08-.634 1.338.159 2.823-.566 4.081-.624.442-1.35.272-2.041.317-.624.046-1.259-.102-1.916.182-.567 1.258.181 2.71-.499 3.968-.51.42-1.122.295-1.7.34-.76.057-1.554-.147-2.381.227-.216 1.213-.046 2.471-.114 3.718-.079 1.485.318 3.005-.294 4.456-1.497.51-2.993.555-4.478-.034-.012-4.4-.023-8.81-.046-13.208H4.41z" fill="#7EBC48"/><path d="M17.833 4.444v4.433h-4.501c0-1.497.011-2.982.023-4.478 1.496.011 2.981.034 4.478.045z" fill="#A5DE74"/><path d="M40.03 8.877h-4.5V4.444c1.496-.011 2.993-.023 4.49-.045v4.478h.01zM4.444 31.052c1.474 0 2.947-.012 4.41-.023.045.045.102.09.147.136.363.77.17 1.599.216 2.403.034.477-.068.964.215 1.452 1.258.544 2.71-.216 3.968.498.521 1.429.374 2.88.113 4.342-.045.057-.09.102-.147.16-2.993 0-5.975 0-8.968.01.012-2.992.023-5.986.046-8.967v-.011zm44.531 8.978a589.464 589.464 0 01-4.49-.045c-.555-.714-.294-1.553-.328-2.347a18.473 18.473 0 01.011-2.097c-.045-1.111-.022-2.222-.01-3.333 0-.408.022-.816.305-1.156 1.497-.51 2.993-.533 4.478 0 .012 2.992.023 5.985.046 8.967l-.012.011z" fill="#6A9941"/><path d="M48.941 31.052c-1.485 0-2.959.011-4.444.022-.045-.045-.09-.102-.136-.147-.306-1.406-.272-2.812-.034-4.229a.647.647 0 01.295-.283c1.451-.17 2.902-.454 4.32.181v4.456z" fill="#7EBC48"/><path d="M48.941 26.596c-1.485 0-2.959 0-4.444-.011-.566-1.428-.578-2.857.012-4.285 1.485 0 2.981.011 4.466.022a507.06 507.06 0 01-.045 4.274h.011z" fill="#6A9941"/><path d="M31.063 57.943h-8.73c-.725.544-1.564.306-2.357.34-.703.034-1.406.034-2.109-.011-1.066.045-2.143.022-3.208.01-.443 0-.896.012-1.247-.328-.012-1.496-.035-3.004-.046-4.5.057-.046.102-.091.159-.148 1.462-.386 2.947-.125 4.421-.181a902.25 902.25 0 0117.504 0c1.486.056 2.97-.216 4.444.18.057.046.103.092.16.148-.012 1.497-.035 3.005-.046 4.501-.726.544-1.565.283-2.358.329-.703.034-1.395.034-2.097-.011-1.078.056-2.143.022-3.22.022-.442 0-.896-.022-1.259-.351h-.01z" fill="#8A8A8A"/><path d="M40.065 44.486h8.91v8.967H40.02c-.566-.77-.294-1.655-.34-2.483a15.063 15.063 0 01.012-1.893c.034-1.428-.137-2.857.113-4.274a.58.58 0 01.26-.306v-.011z" fill="#D77F3E"/><path d="M35.518 57.965c1.485 0 2.982 0 4.467-.01.011 1.496.034 2.98.045 4.477-1.496-.011-3.004-.034-4.5-.045-.545-1.474-.533-2.936 0-4.41l-.012-.012z" fill="#CCC"/><path d="M44.509 22.3c0 1.428 0 2.857-.012 4.285-1.496.555-2.981.51-4.49.034-.6-.986-.248-2.075-.34-3.106-.033-.397 0-.805.023-1.202-.056-2.562-.022-5.124-.022-7.675 0-.442.022-.896.351-1.259 1.485-.555 2.96-.566 4.444 0 .023 2.97.034 5.952.057 8.923h-.011z" fill="#7EBC48"/><path d="M44.463 13.377c-1.485 0-2.959 0-4.444-.01v-4.49h4.478c-.011 1.496-.022 2.993-.045 4.49l.011.01z" fill="#6A9941"/><path d="M4.41 44.497h8.922c.397.329.385.794.385 1.236.023 2.154.023 4.308 0 6.462 0 .442-.022.895-.35 1.258H4.41v-8.967.011z" fill="#D77F3E"/><path d="M13.4 57.954c1.485 0 2.982 0 4.467.011.521 1.474.533 2.948 0 4.41-1.497.012-3.004.035-4.5.046.01-1.497.033-2.982.045-4.478l-.012.011z" fill="#CCC"/><path d="M35.518 57.965v4.41c-1.496.012-2.993.035-4.478.046v-4.49c1.485 0 2.97.023 4.467.034h.011zm-17.662 4.422v-4.41c1.485 0 2.97-.023 4.466-.034v4.49c-1.496-.012-2.993-.035-4.478-.046h.012z" fill="#F6F6F6"/><path d="M13.366 53.453l-.034-8.956.034-4.49v.012c.726-.555 1.565-.317 2.37-.351a18.705 18.705 0 012.108.011c1.111-.045 2.233-.023 3.345-.011.408 0 .816.022 1.167.306.612 1.519.374 3.027.125 4.512-1.372.68-2.789.102-4.002.51-.317.465-.26.93-.26 1.372v5.578c0 .51.056 1.054-.34 1.485-1.497 0-2.994.022-4.49.034l-.023-.012z" fill="#8600A3"/><path d="M13.355 8.865v4.501H8.922c-.011-1.496-.034-2.982-.045-4.478 1.496 0 2.981-.011 4.478-.023z" fill="#A5DE74"/><path d="M40.008 40.02c.022 1.496.034 2.98.056 4.477l-.068.068c-.306.261-.68.295-1.054.295a340.09 340.09 0 01-6.79 0c-.375 0-.738-.045-1.236-.408-.318-1.372-.431-2.868.056-4.387.567-.51 1.259-.363 1.916-.375.85-.01 1.712-.045 2.562.023 1.463.057 2.936-.204 4.388.181.056.046.102.091.158.148l.012-.023z" fill="#8600A3"/><path d="M44.497 35.518v4.467c-1.496 0-2.981.023-4.478.034h.012c-.59-1.496-.522-2.993-.046-4.5a6.568 6.568 0 014.512 0z" fill="#7EBC48"/><path d="M31.03 22.3v-8.911h4.534c.238.26.317.59.317.918a217.99 217.99 0 010 7.21c0 .261-.068.51-.204.749-.725.646-1.621.351-2.437.396-.624.034-1.259.068-1.87-.102a.679.679 0 01-.33-.26h-.01z" fill="#6A9941"/><path d="M35.541 22.288c0-2.97.012-5.94.023-8.91h4.455c0 2.981-.022 5.974-.022 8.956-1.486.521-2.97.59-4.444-.046h-.012zm-17.697-4.444v-4.399h4.49v4.4s-.102.09-.148.135a9.695 9.695 0 01-4.194 0c-.046-.045-.102-.09-.148-.147v.011zM13.343 22.3v-4.456h4.501c.612 1.463.42 2.948.113 4.433-1.394.691-2.856.329-4.296.26a.73.73 0 01-.329-.249l.011.011zm-4.478 8.74c.012-1.473.034-2.959.046-4.432 1.406-.658 2.868-.352 4.32-.204a.677.677 0 01.305.283c.216 1.485.454 2.97-.147 4.421-1.485.465-2.97.522-4.444-.034l-.068-.034h-.012z" fill="#AA4A37"/><path d="M22.334 17.844h4.25v4.478s-.101.09-.146.136c-1.338.318-2.676.272-4.014.023a.71.71 0 01-.283-.295c-.17-1.451-.43-2.913.181-4.33l.012-.012zm4.251 4.478c1.485 0 2.959-.022 4.444-.022l.034.068c.567 1.428.522 2.857.023 4.296-1.52.533-3.016.284-4.648.102-.227-1.587-.51-3.015.136-4.432l.011-.012z" fill="#AA4A37"/><path d="M13.412 26.562l-4.501.034v-4.149c1.519-.283 2.982-.023 4.433-.159l.068.046a6.296 6.296 0 010 4.228z" fill="#6A9941"/><path d="M17.844 39.985c-1.496.011-2.981.023-4.478.046v-4.49c.046-.045.102-.09.148-.136 1.405-.295 2.811-.272 4.217-.023a.64.64 0 01.283.295c.17 1.451.442 2.902-.181 4.32l.011-.012zm-8.91-8.911h4.444c.045.057.09.102.136.16.238 1.45.453 2.901-.16 4.33H8.912v-4.467l.023-.023zm35.563 4.444c-1.496 0-2.981 0-4.478.012a1.873 1.873 0 00-.147-.16c-.238-1.462-.465-2.935.159-4.375 1.485-.408 2.97-.544 4.444.068h.022v4.455z" fill="#141414"/><path d="M44.474 31.063c-1.473 0-2.947.023-4.41.034-.056-.045-.102-.09-.158-.136-.352-1.406-.295-2.823-.046-4.229.046-.056.091-.102.136-.159 1.497 0 3.005 0 4.501.012 0 1.496-.011 2.981-.023 4.478z" fill="#AA4A37"/><path d="M31.063 40.065v4.489h8.934c0 1.474 0 2.947-.012 4.421-.465.431-1.043.306-1.587.352-.77.045-1.553-.125-2.313.17-.532 1.28.238 2.72-.544 3.934H17.867v-8.877h4.467v-4.478s.09-.102.136-.159c.26-.17.555-.215.85-.215 2.483.034 4.954-.159 7.437.102a.651.651 0 01.317.26h-.01z" fill="#C600F1"/><path d="M35.53 53.43v-4.455h4.444l.034 4.478c-1.497 0-2.993-.022-4.49-.034l.012.012z" fill="#8600A3"/><path d="M31.029 26.596c.011-1.405.034-2.823.045-4.228 1.485-.023 2.982-.057 4.467-.08 1.485.012 2.97.034 4.444.046v4.24h.034c-.533.453-1.19.306-1.802.34-.692.034-1.395-.08-2.12.159-.522 1.27.056 2.641-.409 3.9a.77.77 0 01-.317.283c-1.44.283-2.868.227-4.421-.034-.306-1.599-.51-3.107.068-4.626h.011z" fill="#000"/><path d="M17.844 39.985v-4.444c1.485-.691 2.993-.351 4.614-.17.261 1.621.522 3.118-.113 4.614l-.023.068a591.826 591.826 0 01-4.478-.08v.012zm17.697 0c-1.496.023-2.982.046-4.478.08l-.023-.069c-.635-1.473-.328-2.947-.17-4.546 1.621-.34 3.13-.487 4.648.034.578 1.497.567 3.005.023 4.512v-.01z" fill="#AA4A37"/><path d="M35.541 39.985v-4.444s.102-.102.159-.147c1.451-.261 2.902-.465 4.32.147 0 1.497 0 2.993.01 4.49l-4.489-.034v-.012z" fill="#141414"/><path d="M22.322 17.855c0 1.497 0 3.005-.011 4.501-1.485.488-2.97.578-4.444-.068v-4.444h4.467l-.012.011z" fill="#D77F3E"/><path d="M17.855 22.288a585 585 0 004.444.057v-.023c.307.318.375.715.375 1.134.022 2.188.034 4.376 0 6.564 0 .374-.057.737-.465 1.213-1.327.26-2.8.374-4.297-.056-.476-.431-.385-1.01-.42-1.554-.056-.805.114-1.632-.17-2.483-.646-.35-1.36-.158-2.04-.215-.658-.045-1.35.125-1.927-.34l.045-.023v-4.228c1.485-.012 2.97-.034 4.444-.046h.011z" fill="#000"/><path d="M13.366 26.585h4.467v4.455l-.148.148c-1.45.272-2.902.476-4.319-.148 0-1.496 0-2.981-.011-4.478l.011.023z" fill="#FEFEFE"/><path d="M17.833 31.04H22.3v-8.706h4.274v4.262h4.444v4.422h4.478c.646 1.507.578 3.015.034 4.534h-4.5v4.444h-8.708v-4.444h-4.5c-.556-1.496-.545-3.004 0-4.5l.01-.012z" fill="#D77F3E"/><path d="M17.833 31.052v4.5h-4.478v-4.5h4.478zm17.708 4.5l-.034-4.534h.023c1.485-.488 2.97-.51 4.455 0l.068.068-.034 4.444h-4.478v.022z" fill="#AA4A37"/><path d="M39.985 31.04H35.53v-4.444h4.49c0 1.485-.024 2.97-.035 4.456v-.012z" fill="#FEFEFE"/></g><defs><clipPath id="clip0_323_50648"><path fill="#fff" d="M0 0h53.385v66.831H0z"/></clipPath></defs></svg>