<svg width="54" height="67" fill="none" xmlns="http://www.w3.org/2000/svg"><g clip-path="url(#clip0_323_50710)"><path d="M48.964 48.975v4.444H44.53v13.412H31.063v-8.9s.102-.09.147-.136c1.395-.317 2.8-.26 4.195-.034a.599.599 0 01.283.273c.431 1.247-.079 2.584.375 3.9 1.133.272 2.256.147 3.469.056.272-1.451.079-2.823.147-4.183-.068-2.517-.023-5.034-.023-7.562 0-.442 0-.895.295-1.281.26-.25.59-.329.93-.329 2.46-.034 4.92-.068 7.38.012.193 0 .363.068.533.158.057.046.113.102.159.148l.01.022zm-26.642 8.956v8.889H8.933V53.499H4.421v-4.524s.113-.09.159-.147c.6-.284 1.235-.193 1.87-.193 1.825 0 3.64-.011 5.465 0 .51 0 1.054-.034 1.496.329.306.374.318.828.318 1.27 0 2.516.045 5.045-.023 7.561.056 1.36-.114 2.744.125 4.138 1.201.25 2.3.182 3.446.057.521-1.281 0-2.642.385-3.889a.66.66 0 01.261-.294 10.139 10.139 0 014.252 0c.045.045.101.09.147.136v-.012zm-8.945-53.51V0H40.02v4.42s-.102.091-.159.148c-1.45.385-2.936.124-4.41.181-5.827.057-11.654.057-17.493 0-1.473-.057-2.958.204-4.42-.181a1.884 1.884 0 01-.16-.148zM8.888 26.573H4.466V8.9h4.422s.09.102.136.159c.385 1.451.124 2.925.181 4.387.045 2.937.057 5.862 0 8.798-.057 1.394.204 2.8-.181 4.183-.046.057-.091.102-.148.159l.012-.012zM44.486 8.9h4.421v17.685h-4.421s-.091-.102-.136-.159c-.386-1.372-.125-2.777-.182-4.172a252.7 252.7 0 010-8.797c.057-1.463-.204-2.948.182-4.399a1.87 1.87 0 01.147-.159h-.011z" fill="#141414"/><path d="M31.063 57.931h-8.74.01c-.487-.963-.532-3.185-.01-4.66 2.856-.328 5.804-.248 8.876-.022.25 1.69.544 3.186-.136 4.694h.011l-.011-.012zm13.423-31.357v4.478h-4.478s-.091-.102-.148-.159c-.226-1.474-.465-2.936.159-4.376 1.497-.42 2.993-.521 4.467.068h-.012l.012-.011zm-31.109 8.978v-4.5c.057-.046.102-.091.16-.148 1.462-.25 2.924-.442 4.364.148.476 1.485.442 2.97.023 4.455-1.44.657-2.914.397-4.388.181a1.89 1.89 0 01-.159-.147v.011zm26.631-4.489v4.5c-.057.046-.102.091-.159.137-1.462.238-2.936.453-4.364-.159-.443-1.496-.488-3.004.034-4.5 1.507-.5 3.015-.556 4.512.033h-.012l-.011-.011z" fill="#141414"/><path d="M8.9 40.03v-4.478h4.477l-.022-.022c.623 1.474.465 2.959.09 4.455-1.44.68-2.913.408-4.387.193a1.89 1.89 0 01-.159-.148zm31.108-4.478h4.478v4.478s-.114.091-.16.136c-1.462.227-2.935.477-4.375-.17-.42-1.496-.522-2.993.08-4.478l-.023.023v.011z" fill="#141414"/><path d="M4.42 44.509V40.03H8.9l-.023-.023c.612 1.474.465 2.97.114 4.478-1.451.646-2.925.397-4.41.17-.057-.045-.102-.09-.16-.147zm40.066-4.479h4.478v4.479s-.102.09-.159.147c-1.474.238-2.947.453-4.399-.147-.374-1.508-.51-3.016.102-4.501l-.022.023z" fill="#141414"/><path d="M4.421 48.975H0v-4.467h4.421-.011c.578 1.486.578 2.982 0 4.479h.011v-.012zm44.543-4.467h4.421v4.467h-4.421.011c-.578-1.485-.578-2.981 0-4.478h-.011v.011zM8.888 8.9V4.42h4.478l-.011-.011c.578 1.497.521 3.004.045 4.5-1.508.51-3.016.556-4.524-.022h.012V8.9zm31.12-4.479h4.478V8.9l.011-.01c-1.496.577-2.993.52-4.5.044-.51-1.507-.556-3.015.022-4.523h-.011v.011zm-26.63 26.642H8.9v-4.478l-.012.011c1.497-.578 2.993-.521 4.5-.045.511 1.508.556 3.015-.022 4.523h.012v-.011z" fill="#141414"/><path d="M31.051 57.943v-4.41h-8.718v4.41c-1.496 0-2.993-.011-4.478-.023-.329-.306-.351-.725-.351-1.134a327.387 327.387 0 010-6.677c0-.408.034-.816.317-1.156.476-.386 1.055-.33 1.599-.33h14.51c.556 0 1.122-.044 1.61.307.329.363.34.816.351 1.258.023 2.166.023 4.32 0 6.485 0 .442 0 .907-.351 1.247-1.497 0-2.993.011-4.478.023h-.012z" fill="#CD6C6C"/><path d="M48.987 44.497v4.5l-8.98.035a.982.982 0 00-.147-.159c-.249-1.485-.442-2.97.136-4.444 1.508-.408 3.016-.487 4.512.068h4.479z" fill="#E1AC7E"/><path d="M35.53 57.931c0-2.97 0-5.951.01-8.922l.148-.147c1.451-.306 2.902-.408 4.33.08l-.022.09c0 2.97-.011 5.94-.022 8.91-1.486.59-2.97.522-4.467.057l.023-.056v-.012z" fill="#AD3939"/><path d="M35.519 57.977c1.485-.023 2.981-.034 4.466-.057v4.399H35.52v-4.354.012z" fill="#6D5800"/><path d="M4.398 48.987v-4.501h4.479c1.473-.59 2.958-.42 4.444-.113.703 1.394.317 2.856.283 4.296a.896.896 0 01-.227.352c-2.993 0-5.986-.023-8.979-.034z" fill="#E1AC7E"/><path d="M17.833 48.998v8.922l.022.057c-1.496.476-2.981.544-4.466-.057 0-2.97-.012-5.94-.023-8.91l-.023-.091c1.44-.488 2.88-.386 4.331-.08l.147.148.012.011z" fill="#AD3939"/><path d="M13.4 57.931c1.485.023 2.981.034 4.467.057v4.376H13.4v-4.433z" fill="#6D5800"/><path d="M17.855 4.444H35.53c.579 1.474.51 2.97.046 4.455-.544.443-1.202.306-1.825.34-.703.046-1.417-.124-2.132.205-.521 1.247.125 2.664-.476 3.877-1.11.544-7.698.567-8.888.034-.646-1.202.011-2.63-.499-3.9-1.28-.544-2.72.17-3.945-.533-.51-1.496-.556-2.993.023-4.478h.022z" fill="#CBA685"/><path d="M17.856 4.444v4.444c-.046.045-.102.09-.148.136-1.405.295-2.811.306-4.206-.011-.045-.046-.09-.102-.136-.148 0-1.485 0-2.97.011-4.466 1.497.011 2.993.034 4.49.045h-.011zm17.685 4.444V4.444c1.497-.011 2.993-.034 4.49-.045 0 1.485 0 2.97.01 4.466-.045.046-.09.102-.135.148-1.406.329-2.8.306-4.206.011-.046-.045-.102-.09-.148-.147l-.011.011z" fill="#C87C67"/><path d="M8.922 22.322v-8.944c1.496-.579 2.981-.545 4.49-.023.271.34.305.748.305 1.156.023 2.256.023 4.512 0 6.768 0 .374-.045.737-.272 1.066-1.508.521-3.015.556-4.523-.023z" fill="#CBA685"/><path d="M13.366 13.366H8.922c-.012-1.496-.034-2.993-.046-4.49 1.486 0 2.97 0 4.467-.01l.057.056c.521 1.417.374 2.846.102 4.285a.905.905 0 01-.148.148l.012.011zm-4.444 8.956c1.474 0 2.959 0 4.432.012.613 1.36.397 2.743.137 4.126-.057.046-.102.102-.16.148l-4.455-.023c.012-1.417.034-2.846.046-4.263z" fill="#C87C67"/><path d="M44.463 13.377v8.945c-1.496.59-2.993.522-4.5.046-.239-.306-.284-.68-.284-1.055-.023-2.29-.023-4.591 0-6.881 0-.374.045-.737.283-1.055 1.497-.566 3.005-.578 4.501 0z" fill="#CBA685"/><path d="M44.463 13.377H40.02a1.89 1.89 0 00-.147-.158c-.261-1.44-.42-2.868.102-4.286l.056-.056h4.467c-.011 1.507-.034 3.015-.045 4.512l.011-.011zm-4.443 8.957c1.473 0 2.958 0 4.432-.012.011 1.417.034 2.846.045 4.263-1.485 0-2.97.011-4.455.023a2.015 2.015 0 00-.159-.148c-.26-1.383-.487-2.766.136-4.127z" fill="#C87C67"/><path d="M40.019 31.074c-1.485 0-2.97.012-4.455.023-.046-.045-.102-.09-.148-.136-.34-1.406-.283-2.823-.045-4.24a.673.673 0 01.295-.295c1.45-.204 2.89-.396 4.319.125l.068.068c0 1.485-.011 2.97-.023 4.467l-.011-.012zm-22.175 4.445c0-1.474-.023-2.948-.023-4.433l.159-.159c1.462-.363 2.925-.317 4.49.023.26 1.576.43 3.06-.057 4.557-1.451.68-2.925.42-4.41.17-.046-.056-.102-.102-.148-.158h-.011z" fill="#C87C67"/><path d="M13.354 40.008V35.53c1.497 0 2.993 0 4.49-.012l-.045.034.022.057c.67 1.383.34 2.823.216 4.251a.72.72 0 01-.261.318 10.06 10.06 0 01-4.274 0l-.148-.148v-.022z" fill="#E2E2E2"/><path d="M13.355 31.074c0-1.485-.012-2.97-.023-4.466l.068-.068c1.417-.522 2.857-.318 4.285-.136a.622.622 0 01.306.283c.227 1.451.409 2.902-.113 4.342l-.068.068-4.467-.023h.012zm22.208.012c0 1.474-.022 2.947-.034 4.421-.045.057-.102.102-.147.159-1.474.26-2.959.51-4.41-.159-.521-1.485-.26-2.959-.125-4.546 1.644-.317 3.14-.51 4.637.057l.068.068h.011z" fill="#C87C67"/><path d="M40.03 35.53v4.478c-.045.045-.102.09-.147.147-1.406.317-2.812.272-4.229.034a.738.738 0 01-.294-.295c-.16-1.44-.465-2.89.192-4.296l.023-.057-.045-.034c1.496 0 2.993.011 4.5.023zm-26.676 8.979c-1.496 0-2.992-.012-4.478-.023v-4.478h4.489c.545 1.508.568 3.004-.01 4.49v.01zm31.155-.023c-1.497 0-2.993.011-4.478.023-.579-1.486-.556-2.982-.012-4.478h.012c1.496-.012 2.981-.012 4.478-.023v4.478z" fill="#E2E2E2"/><path d="M35.541 48.998H17.833l.023-.045c-.34-.352-.363-.805-.363-1.248a608.36 608.36 0 010-6.45c0-.442.034-.896.363-1.247 1.473-.59 2.97-.454 4.478-.102.442.498.317 1.122.351 1.7.046.771-.113 1.565.182 2.392 1.065.216 2.108.227 3.151 0 .533-1.349-.136-2.766.578-4.08 1.463-.466 2.993-.182 4.501-.239 1.066-.057 2.131-.023 3.209-.023.442 0 .884.034 1.247.352.328.351.351.793.362 1.247a608.36 608.36 0 010 6.45c0 .443-.022.896-.362 1.248v.045h-.012z" fill="#E2E2E2"/><path d="M35.53 48.964v-8.945h4.478c0 1.497 0 2.982.011 4.478v4.422l-4.5.034.01.011zM17.844 40.02v8.944l-4.5-.034v-4.421c0-1.497 0-2.982.01-4.478h4.479l.011-.012z" fill="#BCBCBC"/><path d="M35.496 31.018h-4.433v4.523s-.102.102-.159.147c-.555.284-1.167.193-1.757.204h-5.464c-.408 0-.817 0-1.202-.192-.057-.046-.102-.102-.159-.148V31.03H17.89c0-1.485-.023-2.982-.034-4.467.555-.43 1.201-.272 1.825-.317.691-.046 1.406.136 2.245-.284.09-2.471.09-5-.012-7.595-1.27-.227-2.38-.238-3.446-.023-.34.533-.272 1.032-.272 1.508v5.237c0 .51.056 1.055-.318 1.497-1.485 0-2.981-.023-4.466-.034-.012-1.406-.035-2.8-.046-4.206v-8.968c.544-.442 1.19-.306 1.814-.34.692-.045 1.406.114 2.12-.17.363-.68.159-1.428.204-2.154.045-.612-.102-1.27.34-1.814h4.467v4.399h8.695v-4.4h4.535c.442.544.306 1.19.34 1.814.046.692-.113 1.406.17 2.12.68.363 1.429.159 2.154.204.613.046 1.27-.102 1.814.34v8.968c-.011 1.406-.034 2.8-.045 4.206-1.485 0-2.982.023-4.467.034-.374-.442-.306-.975-.317-1.497-.012-1.745 0-3.491 0-5.237 0-.476.068-.975-.272-1.508-1.066-.215-2.177-.204-3.48.023-.046 2.562-.069 5.067.022 7.527.635.51 1.292.306 1.904.352.726.068 1.497-.17 2.166.317 0 1.485-.023 2.982-.034 4.467v-.011z" fill="#E1AC7E"/><path d="M17.844 8.888v4.478h-4.478c.011-1.485.023-2.959.046-4.444a581.12 581.12 0 004.444-.045l-.012.011zm22.176 4.478h-4.48V8.888c1.485.011 2.959.023 4.444.045.011 1.485.023 2.96.045 4.444l-.01-.011z" fill="#CBA685"/><path d="M22.3 40.042c-1.486 0-2.97 0-4.456-.012 0-1.473-.011-2.947-.023-4.42 1.497-.024 3.005-.046 4.501-.058l-.011.012c.567 1.496.6 2.993-.012 4.49v-.012zm13.24-.012c-1.496 0-3.004-.022-4.5-.022-.51-1.485-.544-2.97.034-4.444l-.011-.012c1.496.023 3.004.046 4.5.057 0 1.474-.01 2.948-.022 4.421z" fill="#BCBCBC"/><path d="M31.074 35.552l-.034 4.444h-4.433v4.422H22.3v-4.376c0-1.497 0-2.993.012-4.49h8.763z" fill="#868686"/><path d="M17.867 26.574v-8.662h4.398v8.65h-4.41l.012.012zm17.651-.012H31.12v-8.661h4.387v8.673l.011-.012z" fill="#141414"/></g><defs><clipPath id="clip0_323_50710"><path fill="#fff" d="M0 0h53.385v66.831H0z"/></clipPath></defs></svg>