<svg width="54" height="67" viewBox="0 0 54 67" fill="none" xmlns="http://www.w3.org/2000/svg">
<g clip-path="url(#clip0_323_50710)">
<path d="M48.9639 48.9754V53.4194H44.5312V66.831H31.063V57.9315C31.063 57.9315 31.165 57.8408 31.2104 57.7955C32.6048 57.4781 34.0106 57.5347 35.405 57.7615C35.5297 57.8182 35.6204 57.9089 35.6884 58.0336C36.1192 59.2806 35.6091 60.6184 36.0626 61.9335C37.1962 62.2055 38.3186 62.0808 39.5316 61.9901C39.8037 60.539 39.611 59.1673 39.679 57.8068C39.611 55.29 39.6564 52.7732 39.6564 50.2451C39.6564 49.803 39.6564 49.3495 39.9511 48.964C40.2119 48.7146 40.5406 48.6353 40.8807 48.6353C43.3408 48.6013 45.8009 48.5673 48.2611 48.6466C48.4538 48.6466 48.6238 48.7146 48.7939 48.8053C48.8506 48.8507 48.9073 48.9074 48.9526 48.9527L48.9639 48.9754Z" fill="#141414"/>
<path d="M22.3219 57.9314V66.8195H8.93298V53.4987H4.4209V48.9753C4.4209 48.9753 4.53427 48.8846 4.57961 48.8279C5.18047 48.5445 5.81534 48.6352 6.4502 48.6352C8.27544 48.6352 10.0893 48.6238 11.9146 48.6352C12.4247 48.6352 12.9689 48.6011 13.4111 48.9639C13.7171 49.338 13.7285 49.7915 13.7285 50.2337C13.7285 52.7504 13.7738 55.2786 13.7058 57.7954C13.7625 59.1558 13.5924 60.5389 13.8305 61.9333C15.0322 62.1827 16.1319 62.1147 17.2769 61.99C17.7984 60.7089 17.2769 59.3485 17.6624 58.1015C17.7191 57.9767 17.8098 57.8747 17.9231 57.8067C19.3402 57.5006 20.7574 57.5119 22.1745 57.8067C22.2198 57.852 22.2765 57.8974 22.3219 57.9427V57.9314Z" fill="#141414"/>
<path d="M13.3774 4.42127V-0.00012207H40.0191V4.42127C40.0191 4.42127 39.9171 4.51196 39.8604 4.56865C38.4093 4.9541 36.9242 4.69335 35.4504 4.75004C29.6232 4.80672 23.796 4.80672 17.9575 4.75004C16.4837 4.69335 14.9986 4.9541 13.5362 4.56865C13.4795 4.5233 13.4341 4.47795 13.3774 4.42127Z" fill="#141414"/>
<path d="M8.8877 26.5735H4.46631V8.89929H8.8877C8.8877 8.89929 8.97839 9.00132 9.02374 9.05801C9.40919 10.5091 9.14844 11.9829 9.20513 13.4454C9.25048 16.3816 9.26181 19.3066 9.20513 22.2428C9.14844 23.6373 9.40919 25.043 9.02374 26.4261C8.97839 26.4828 8.93304 26.5282 8.87636 26.5848L8.8877 26.5735Z" fill="#141414"/>
<path d="M44.4857 8.89929H48.9071V26.5848H44.4857C44.4857 26.5848 44.395 26.4828 44.3497 26.4261C43.9642 25.0544 44.2249 23.6486 44.1683 22.2542C44.1229 19.3179 44.1116 16.393 44.1683 13.4567C44.2249 11.9943 43.9642 10.5091 44.3497 9.05801C44.395 9.00132 44.4403 8.95598 44.497 8.89929H44.4857Z" fill="#141414"/>
<path d="M31.063 57.9314C28.1494 57.9314 25.2358 57.9314 22.3222 57.9314H22.3336C21.8461 56.9678 21.8007 54.7457 22.3222 53.2719C25.1791 52.9432 28.1267 53.0225 31.199 53.2493C31.4484 54.9385 31.7432 56.4349 31.063 57.9427H31.0743L31.063 57.9314Z" fill="#141414"/>
<path d="M44.4857 26.5736V31.0517H40.0077C40.0077 31.0517 39.917 30.9497 39.8603 30.893C39.6336 29.4192 39.3955 27.9567 40.019 26.5169C41.5155 26.0975 43.012 25.9955 44.4857 26.585H44.4744L44.4857 26.5736Z" fill="#141414"/>
<path d="M13.3774 35.5523C13.3774 34.0559 13.3774 32.5594 13.3774 31.0516C13.4341 31.0063 13.4795 30.9609 13.5362 30.9042C14.9986 30.6548 16.4611 30.4621 17.9009 31.0516C18.377 32.5367 18.343 34.0219 17.9235 35.507C16.4838 36.1645 15.01 35.9038 13.5362 35.6884C13.4795 35.643 13.4341 35.5977 13.3774 35.541V35.5523Z" fill="#141414"/>
<path d="M40.0079 31.0629C40.0079 32.5594 40.0079 34.0558 40.0079 35.5636C39.9512 35.609 39.9059 35.6543 39.8492 35.6997C38.3868 35.9378 36.913 36.1532 35.4845 35.541C35.0424 34.0445 34.997 32.5367 35.5185 31.0402C37.0263 30.5414 38.5341 30.4847 40.0306 31.0742H40.0193L40.0079 31.0629Z" fill="#141414"/>
<path d="M8.89941 40.0304V35.5523H13.3775L13.3548 35.5297C13.9783 37.0035 13.8196 38.4886 13.4455 39.9851C12.0057 40.6653 10.5319 40.3932 9.05813 40.1778C9.00145 40.1324 8.9561 40.0871 8.89941 40.0304Z" fill="#141414"/>
<path d="M40.0076 35.5523H44.4857V40.0304C44.4857 40.0304 44.3723 40.1211 44.3269 40.1664C42.8645 40.3932 41.3907 40.6426 39.9509 39.9964C39.5314 38.4999 39.4294 37.0034 40.0303 35.5183L40.0076 35.541V35.5523Z" fill="#141414"/>
<path d="M4.4209 44.5086V40.0305H8.89897L8.8763 40.0078C9.48849 41.4816 9.34111 42.9781 8.98967 44.4859C7.53854 45.1321 6.06475 44.8827 4.57961 44.6559C4.52293 44.6106 4.47758 44.5652 4.4209 44.5086Z" fill="#141414"/>
<path d="M44.4857 40.0305H48.9638V44.5086C48.9638 44.5086 48.8618 44.5993 48.8051 44.6559C47.3313 44.894 45.8575 45.1094 44.4064 44.5086C44.0322 43.0007 43.8962 41.4929 44.5084 40.0078L44.4857 40.0305Z" fill="#141414"/>
<path d="M4.42139 48.9753H0V44.5085H4.42139H4.41005C4.98823 45.9937 4.98823 47.4901 4.41005 48.9866H4.42139V48.9753Z" fill="#141414"/>
<path d="M48.9638 44.5085H53.3852V48.9753H48.9638H48.9751C48.397 47.4901 48.397 45.9937 48.9751 44.4972H48.9638V44.5085Z" fill="#141414"/>
<path d="M8.8878 8.89944V4.42137C10.4183 4.42137 11.8921 4.42137 13.3659 4.42137L13.3545 4.41003C13.9327 5.9065 13.876 7.41431 13.3999 8.91078C11.8921 9.42094 10.3843 9.46629 8.87646 8.88811H8.8878V8.89944Z" fill="#141414"/>
<path d="M40.0078 4.42137H44.4859V8.89944L44.4972 8.88811C43.0007 9.46629 41.5043 9.4096 39.9964 8.93345C39.4863 7.42565 39.4409 5.91784 40.0191 4.41003H40.0078V4.42137Z" fill="#141414"/>
<path d="M13.3776 31.0629H8.89952V26.5848L8.88818 26.5962C10.3847 26.018 11.8811 26.0747 13.3889 26.5508C13.8991 28.0586 13.9444 29.5664 13.3663 31.0742H13.3776V31.0629Z" fill="#141414"/>
<path d="M31.0514 57.9428V53.5328H22.3333V57.9428C20.8369 57.9428 19.3404 57.9315 17.8553 57.9202C17.5265 57.6141 17.5038 57.1946 17.5038 56.7865C17.4811 54.5644 17.4811 52.3311 17.5038 50.109C17.5038 49.7009 17.5378 49.2928 17.8213 48.9527C18.2974 48.5672 18.8756 48.6239 19.4198 48.6239C24.2606 48.6239 29.0901 48.6239 33.931 48.6239C34.4865 48.6239 35.0533 48.5786 35.5408 48.93C35.8696 49.2928 35.8809 49.7463 35.8923 50.1884C35.9149 52.3537 35.9149 54.5077 35.8923 56.6731C35.8923 57.1152 35.8923 57.58 35.5408 57.9202C34.0443 57.9202 32.5479 57.9315 31.0627 57.9428H31.0514Z" fill="#CD6C6C"/>
<path d="M48.9866 44.4972C48.9866 45.9937 48.9866 47.4901 48.9866 48.9979C45.9936 49.0093 43.0007 49.0206 40.0077 49.032C39.9624 48.9753 39.917 48.9186 39.8604 48.8732C39.611 47.3881 39.4182 45.903 39.9964 44.4292C41.5042 44.021 43.012 43.9417 44.5085 44.4972C46.005 44.4972 47.4901 44.4972 48.9866 44.4972Z" fill="#E1AC7E"/>
<path d="M35.5295 57.9314C35.5295 54.9611 35.5295 51.9795 35.5408 49.0092C35.5862 48.9639 35.6429 48.9072 35.6882 48.8619C37.1393 48.5558 38.5905 48.4537 40.0189 48.9412L39.9962 49.0319C39.9962 52.0022 39.9849 54.9724 39.9736 57.9427C38.4884 58.5322 37.0033 58.4642 35.5068 57.9994L35.5295 57.9427V57.9314Z" fill="#AD3939"/>
<path d="M35.5186 57.9767C37.0037 57.9541 38.5002 57.9427 39.9853 57.92C39.9853 59.3598 39.9853 60.7996 39.9853 62.3188H35.5186V57.9654V57.9767Z" fill="#6D5800"/>
<path d="M4.39844 48.9866V44.4859H8.87651C10.3503 43.8964 11.8354 44.0664 13.3206 44.3725C14.0235 45.767 13.638 47.2294 13.604 48.6692C13.5586 48.8052 13.4793 48.9186 13.3773 49.0206C10.3843 49.0206 7.39138 48.998 4.39844 48.9866Z" fill="#E1AC7E"/>
<path d="M17.8327 48.998C17.8327 51.9683 17.8327 54.9499 17.8327 57.9201L17.8553 57.9768C16.3589 58.453 14.8737 58.521 13.3886 57.9201C13.3886 54.9499 13.3773 51.9796 13.3659 49.0093L13.3433 48.9186C14.783 48.4311 16.2228 48.5332 17.674 48.8393C17.7193 48.8846 17.776 48.9413 17.8213 48.9867L17.8327 48.998Z" fill="#AD3939"/>
<path d="M13.3999 57.9314C14.885 57.9541 16.3815 57.9654 17.8666 57.9881C17.8666 59.4279 17.8666 60.8563 17.8666 62.3641H13.3999V57.9427V57.9314Z" fill="#6D5800"/>
<path d="M17.8553 4.44397C23.7505 4.44397 29.6456 4.44397 35.5295 4.44397C36.1077 5.91777 36.0396 7.41424 35.5748 8.89937C35.0307 9.34151 34.3731 9.20546 33.7496 9.23947C33.0467 9.28482 32.3325 9.11477 31.6183 9.44354C31.0968 10.6906 31.743 12.1077 31.1421 13.3208C30.0311 13.8649 23.4444 13.8876 22.254 13.3548C21.6078 12.1531 22.2653 10.7246 21.7552 9.45488C20.4741 8.91071 19.0343 9.62493 17.8099 8.92204C17.2998 7.42557 17.2544 5.9291 17.8326 4.44397H17.8553Z" fill="#CBA685"/>
<path d="M17.8556 4.44403C17.8556 5.92916 17.8556 7.40296 17.8556 8.88809C17.8103 8.93344 17.7536 8.97879 17.7082 9.02413C16.3025 9.31889 14.8967 9.33023 13.5023 9.0128C13.4569 8.96745 13.4116 8.91076 13.3662 8.86542C13.3662 7.38028 13.3662 5.89515 13.3775 4.39868C14.874 4.41002 16.3705 4.43269 17.867 4.44403H17.8556Z" fill="#C87C67"/>
<path d="M35.541 8.88809C35.541 7.40296 35.541 5.92916 35.541 4.44403C37.0375 4.43269 38.534 4.41002 40.0304 4.39868C40.0304 5.88381 40.0304 7.36895 40.0418 8.86542C39.9964 8.91076 39.9511 8.96745 39.9057 9.0128C38.4999 9.34157 37.1055 9.31889 35.6997 9.02413C35.6544 8.97879 35.5977 8.93344 35.5524 8.87675L35.541 8.88809Z" fill="#C87C67"/>
<path d="M8.92188 22.3223V13.3775C10.4183 12.7993 11.9035 12.8333 13.4113 13.3548C13.6834 13.6949 13.7174 14.103 13.7174 14.5112C13.7401 16.7672 13.7401 19.0232 13.7174 21.2793C13.7174 21.6534 13.672 22.0162 13.4453 22.3449C11.9375 22.8664 10.4297 22.9005 8.92188 22.3223Z" fill="#CBA685"/>
<path d="M13.3659 13.3661C11.8807 13.3661 10.4069 13.3661 8.92181 13.3661C8.91048 11.8696 8.8878 10.3732 8.87646 8.87669C10.3616 8.87669 11.8467 8.87669 13.3432 8.86536L13.3999 8.92204C13.9214 10.3392 13.774 11.7676 13.5019 13.2074C13.4566 13.2641 13.4112 13.3094 13.3545 13.3548L13.3659 13.3661Z" fill="#C87C67"/>
<path d="M8.92181 22.3221C10.3956 22.3221 11.8807 22.3221 13.3545 22.3335C13.9667 23.6939 13.7513 25.077 13.4906 26.4601C13.4339 26.5055 13.3885 26.5621 13.3319 26.6075L8.87646 26.5848C8.8878 25.1677 8.91048 23.7393 8.92181 22.3221Z" fill="#C87C67"/>
<path d="M44.4633 13.3775V22.3223C42.9668 22.9118 41.4703 22.8438 39.9625 22.3677C39.7245 22.0616 39.6791 21.6875 39.6791 21.3133C39.6564 19.0233 39.6564 16.7219 39.6791 14.4318C39.6791 14.0577 39.7245 13.6949 39.9625 13.3775C41.459 12.8107 42.9668 12.7993 44.4633 13.3775Z" fill="#CBA685"/>
<path d="M44.4631 13.3775C42.9779 13.3775 41.5041 13.3775 40.019 13.3775C39.9736 13.3208 39.9283 13.2754 39.8716 13.2187C39.6109 11.779 39.4521 10.3505 39.9736 8.93339L40.0303 8.87671H44.4971C44.4857 10.3845 44.4631 11.8923 44.4517 13.3888L44.4631 13.3775Z" fill="#C87C67"/>
<path d="M40.0191 22.3335C41.4929 22.3335 42.9781 22.3335 44.4519 22.3221C44.4632 23.7393 44.4859 25.1677 44.4972 26.5848C43.0121 26.5848 41.5269 26.5962 40.0418 26.6075C39.9965 26.5621 39.9398 26.5055 39.8831 26.4601C39.6223 25.077 39.3956 23.6939 40.0191 22.3335Z" fill="#C87C67"/>
<path d="M40.019 31.0744C38.5339 31.0744 37.0488 31.0857 35.5637 31.0971C35.5183 31.0517 35.4616 31.0064 35.4163 30.961C35.0762 29.5552 35.1328 28.1381 35.3709 26.721C35.4389 26.5963 35.5296 26.4943 35.6657 26.4263C37.1168 26.2222 38.5566 26.0295 39.985 26.551L40.0531 26.619C40.0531 28.1041 40.0417 29.5893 40.0304 31.0857L40.019 31.0744Z" fill="#C87C67"/>
<path d="M17.844 35.5185C17.844 34.0447 17.8213 32.5709 17.8213 31.0858C17.878 31.0291 17.9233 30.9837 17.98 30.9271C19.4425 30.5643 20.9049 30.6096 22.4694 30.9497C22.7302 32.5256 22.9002 34.0107 22.4127 35.5072C20.9616 36.1874 19.4878 35.9266 18.0027 35.6772C17.9573 35.6205 17.9006 35.5752 17.8553 35.5185H17.844Z" fill="#C87C67"/>
<path d="M13.3545 40.0077C13.3545 38.5113 13.3545 37.0148 13.3545 35.5296C14.851 35.5296 16.3474 35.5296 17.8439 35.5183L17.7986 35.5523L17.8212 35.609C18.4901 36.9921 18.1613 38.4319 18.0366 39.8603C17.9799 39.9964 17.8892 40.0984 17.7759 40.1778C16.3474 40.4839 14.9303 40.4839 13.5019 40.1778C13.4565 40.1324 13.3998 40.0757 13.3545 40.0304V40.0077Z" fill="#E2E2E2"/>
<path d="M13.3547 31.0744C13.3547 29.5892 13.3434 28.1041 13.332 26.6076L13.4001 26.5396C14.8172 26.0181 16.2569 26.2222 17.6854 26.4036C17.8214 26.4603 17.9235 26.5623 17.9915 26.687C18.2182 28.1381 18.3996 29.5892 17.8781 31.029L17.8101 31.097L13.3434 31.0744H13.3547Z" fill="#C87C67"/>
<path d="M35.5635 31.0857C35.5635 32.5595 35.5409 34.0332 35.5295 35.507C35.4842 35.5637 35.4275 35.6091 35.3822 35.6658C33.9084 35.9265 32.4232 36.1759 30.9721 35.507C30.4506 34.0219 30.7114 32.5481 30.8474 30.961C32.4912 30.6435 33.9877 30.4508 35.4842 31.0176L35.5522 31.0857H35.5635Z" fill="#C87C67"/>
<path d="M40.0304 35.5296C40.0304 37.0261 40.0304 38.5226 40.0304 40.0077C39.9851 40.0531 39.9284 40.0984 39.883 40.1551C38.4772 40.4725 37.0715 40.4272 35.6544 40.1891C35.5297 40.1211 35.4276 40.019 35.3596 39.8943C35.2009 38.4545 34.8948 37.0034 35.5523 35.5977L35.575 35.541L35.5297 35.507C37.0261 35.507 38.5226 35.5183 40.0304 35.5296Z" fill="#E2E2E2"/>
<path d="M13.3545 44.5086C11.8581 44.5086 10.3616 44.4972 8.87646 44.4859C8.87646 42.9894 8.87646 41.5043 8.87646 40.0078C10.3729 40.0078 11.8581 40.0078 13.3545 40.0078H13.3659C13.91 41.5156 13.9327 43.0121 13.3545 44.4972V44.5086Z" fill="#E2E2E2"/>
<path d="M44.5086 44.4859C43.0122 44.4859 41.5157 44.4972 40.0306 44.5086C39.4524 43.0234 39.4751 41.527 40.0192 40.0305H40.0306C41.527 40.0191 43.0122 40.0191 44.5086 40.0078C44.5086 41.5043 44.5086 42.9894 44.5086 44.4859Z" fill="#E2E2E2"/>
<path d="M35.5412 48.9979C29.6347 48.9979 23.7395 48.9979 17.833 48.9979L17.8557 48.9526C17.5156 48.6011 17.4929 48.1476 17.4929 47.7055C17.4815 45.5515 17.4815 43.4088 17.4929 41.2548C17.4929 40.8127 17.5269 40.3592 17.8557 40.0078C19.3295 39.4182 20.8259 39.5543 22.3337 39.9057C22.7759 40.4045 22.6512 41.0281 22.6852 41.6063C22.7305 42.3772 22.5718 43.1707 22.8666 43.9983C23.9322 44.2137 24.9752 44.2251 26.0182 43.9983C26.5511 42.6492 25.8822 41.2321 26.5964 39.9171C28.0589 39.4522 29.5893 39.7357 31.0971 39.679C32.1628 39.6223 33.2285 39.6563 34.3055 39.6563C34.7476 39.6563 35.1898 39.6903 35.5525 40.0078C35.8813 40.3592 35.904 40.8013 35.9153 41.2548C35.9267 43.4088 35.9267 45.5515 35.9153 47.7055C35.9153 48.1476 35.8927 48.6011 35.5525 48.9526V48.9979H35.5412Z" fill="#E2E2E2"/>
<path d="M35.5299 48.964C35.5299 45.9824 35.5299 43.0008 35.5299 40.0192C37.0264 40.0192 38.5115 40.0192 40.008 40.0192C40.008 41.5156 40.008 43.0008 40.0193 44.4972C40.0193 45.971 40.0193 47.4448 40.0193 48.9186C38.5228 48.93 37.015 48.9413 35.5186 48.9526L35.5299 48.964Z" fill="#BCBCBC"/>
<path d="M17.844 40.0192C17.844 43.0008 17.844 45.9824 17.844 48.964C16.3475 48.9526 14.8397 48.9413 13.3433 48.93C13.3433 47.4562 13.3433 45.9824 13.3433 44.5086C13.3433 43.0121 13.3433 41.527 13.3546 40.0305C14.8511 40.0305 16.3362 40.0305 17.8327 40.0305L17.844 40.0192Z" fill="#BCBCBC"/>
<path d="M35.4958 31.0176H31.0631V35.541C31.0631 35.541 30.9611 35.643 30.9044 35.6884C30.3489 35.9718 29.7367 35.8811 29.1472 35.8924C27.3219 35.8924 25.4967 35.8924 23.6828 35.8924C23.2747 35.8924 22.8665 35.8924 22.4811 35.6997C22.4244 35.6544 22.379 35.5977 22.3224 35.5523V31.0289C20.7579 31.0289 19.3181 31.0289 17.8896 31.0289C17.8896 29.5438 17.867 28.0473 17.8556 26.5622C18.4111 26.1314 19.0573 26.2901 19.6809 26.2447C20.3724 26.1994 21.0866 26.3808 21.9256 25.9613C22.0163 23.4899 22.0163 20.9617 21.9142 18.3656C20.6445 18.1389 19.5335 18.1275 18.4678 18.3429C18.1277 18.8758 18.1957 19.3746 18.1957 19.8507C18.1957 21.5966 18.1957 23.3425 18.1957 25.0884C18.1957 25.5985 18.2524 26.1427 17.8783 26.5848C16.3932 26.5848 14.8967 26.5622 13.4116 26.5508C13.4002 25.1451 13.3775 23.7506 13.3662 22.3448C13.3662 19.3519 13.3662 16.3703 13.3662 13.3774C13.9104 12.9352 14.5566 13.0713 15.1801 13.0373C15.8717 12.9919 16.5859 13.1506 17.3001 12.8672C17.6629 12.187 17.4588 11.4388 17.5042 10.7132C17.5495 10.101 17.4021 9.44346 17.8443 8.89929C19.2841 8.89929 20.7239 8.89929 22.311 8.89929V13.298H31.0064V8.89929C32.6049 8.89929 34.0787 8.89929 35.5412 8.89929C35.9833 9.44346 35.8473 10.0897 35.8813 10.7132C35.9266 11.4047 35.7679 12.119 36.0513 12.8332C36.7315 13.196 37.4798 12.9919 38.2053 13.0373C38.8175 13.0826 39.4751 12.9352 40.0192 13.3774C40.0192 16.3703 40.0192 19.3519 40.0192 22.3448C40.0079 23.7506 39.9852 25.1451 39.9739 26.5508C38.4888 26.5508 36.9923 26.5735 35.5072 26.5848C35.133 26.1427 35.2011 25.6099 35.1897 25.0884C35.1784 23.3425 35.1897 21.5966 35.1897 19.8507C35.1897 19.3746 35.2577 18.8758 34.9176 18.3429C33.852 18.1275 32.741 18.1389 31.4372 18.3656C31.3919 20.9277 31.3692 23.4332 31.4599 25.8933C32.0948 26.4035 32.7523 26.1994 33.3645 26.2447C34.09 26.3128 34.861 26.0747 35.5298 26.5622C35.5298 28.0473 35.5072 29.5438 35.4958 31.0289V31.0176Z" fill="#E1AC7E"/>
<path d="M17.8443 8.88805V13.3661C16.2798 13.3661 14.8287 13.3661 13.3662 13.3661C13.3775 11.881 13.3889 10.4072 13.4116 8.92206C14.8967 8.91072 16.3705 8.89938 17.8556 8.87671L17.8443 8.88805Z" fill="#CBA685"/>
<path d="M40.0191 13.366H35.541C35.541 11.8015 35.541 10.3504 35.541 8.88794C37.0261 8.89928 38.4999 8.91061 39.9851 8.93329C39.9964 10.4184 40.0078 11.8922 40.0304 13.3773L40.0191 13.366Z" fill="#CBA685"/>
<path d="M22.2994 40.0418C20.8142 40.0418 19.3291 40.0418 17.844 40.0304C17.844 38.5566 17.8326 37.0828 17.8213 35.6091C19.3178 35.5864 20.8256 35.5637 22.322 35.5524L22.3107 35.5637C22.8775 37.0602 22.9116 38.5566 22.2994 40.0531V40.0418Z" fill="#BCBCBC"/>
<path d="M35.5408 40.0304C34.0443 40.0304 32.5365 40.0078 31.04 40.0078C30.5299 38.5226 30.4959 37.0375 31.0741 35.5637L31.0627 35.5524C32.5592 35.575 34.067 35.5977 35.5635 35.6091C35.5635 37.0828 35.5521 38.5566 35.5408 40.0304Z" fill="#BCBCBC"/>
<path d="M31.0741 35.5524C31.0627 37.0375 31.0514 38.5113 31.0401 39.9964C29.6003 39.9964 28.1492 39.9964 26.6073 39.9964V44.4178H22.2993C22.2993 42.978 22.2993 41.5042 22.2993 40.0418C22.2993 38.5453 22.2993 37.0488 22.3107 35.5524C25.2356 35.5524 28.1492 35.5524 31.0741 35.5524Z" fill="#868686"/>
<path d="M17.8668 26.5736V17.9122H22.2655V26.5623C20.8031 26.5623 19.3293 26.5623 17.8555 26.5623L17.8668 26.5736Z" fill="#141414"/>
<path d="M35.5183 26.5623H31.1196V17.9009H35.507C35.507 20.7804 35.507 23.6827 35.507 26.5736L35.5183 26.5623Z" fill="#141414"/>
</g>
<defs>
<clipPath id="clip0_323_50710">
<rect width="53.3854" height="66.831" fill="white"/>
</clipPath>
</defs>
</svg>
