<svg width="54" height="72" fill="none" xmlns="http://www.w3.org/2000/svg"><g clip-path="url(#clip0_323_50586)"><path d="M8.877 4.399V0h35.632v4.4l-.159.159c-.34.192-.714.215-1.088.215-4.07 0-8.129.045-12.199-.023-2.902.046-5.804.046-8.695 0a85.1 85.1 0 01-4.5 0 82.748 82.748 0 01-4.456 0c-1.463-.056-2.948.227-4.388-.192l-.147-.148V4.4zm40.109 53.544v4.444h-4.444v8.933H31.085V66.9s.102-.092.16-.137c1.439-.385 2.901-.125 4.352-.181 1.282-.102 2.585.113 3.798-.136.374-.51.295-1.01.295-1.486v-5.453c0-.544-.056-1.122.318-1.598.272-.227.6-.295.94-.295 2.415-.034 4.83-.045 7.245 0 .227 0 .442.068.635.17.056.046.102.102.158.148v.01zM22.322 66.9v4.42H8.945v-8.842H4.42v-4.524s.102-.102.16-.147c.52-.26 1.087-.204 1.632-.204h5.657c.51 0 1.043-.034 1.496.283.408.465.352 1.043.352 1.587.011 1.814 0 3.64 0 5.454 0 .476-.068.974.283 1.507 1.202.261 2.505.034 3.787.148 1.45.056 2.924-.204 4.364.181.057.045.102.09.159.147l.011-.01zM4.399 31.086H0V8.9h4.421s.102.102.148.158c.227.408.204.862.204 1.315 0 2.506.034 5-.023 7.505.057 3.99.023 7.982.023 11.972 0 .374-.011.748-.204 1.088l-.159.16-.011-.012zM48.998 8.888h4.399v22.198h-4.4l-.158-.159c-.193-.34-.215-.714-.215-1.088 0-3.99-.046-7.97.022-11.96-.045-2.586-.022-5.182-.011-7.766 0-.375.011-.737.204-1.077.045-.057.102-.102.159-.16v.012z" fill="#141414"/><path d="M48.987 48.987h4.41v8.956h-4.41c-.239-.26-.33-.59-.33-.93-.033-2.414-.044-4.83 0-7.233 0-.226.069-.442.17-.635.046-.056.103-.102.148-.158h.012zm-44.577 0v-4.478h8.956s.09.102.147.158c.25 1.474.442 2.948-.124 4.4-.069.045-.125.101-.193.113-2.88.238-5.76.317-8.628-.046-.056-.045-.102-.102-.158-.147zm35.61-4.478h8.955v4.478c-.294.272-.657.34-1.031.34-2.347.023-4.694.034-7.03 0-.294 0-.589-.057-.85-.227-.691-1.45-.408-2.936-.18-4.433.044-.056.101-.102.147-.158h-.012z" fill="#141414"/><path d="M4.41 57.943H0v-8.956h4.41c.329.363.351.805.351 1.258.012 2.154.012 4.297 0 6.45 0 .443-.022.897-.351 1.26v-.012zM31.074 66.9h-8.752.011c-.59-1.497-.521-3.005-.056-4.524.306-.25.68-.284 1.054-.295 2.233-.023 4.455-.023 6.689 0 .374 0 .748.034 1.066.272.51 1.52.566 3.05-.034 4.569h.01l.012-.023zM8.888 35.553h-4.49v-4.467l.023-.023c1.474-.59 2.959-.453 4.444-.068.658 1.44.408 2.925.17 4.399-.045.056-.102.102-.147.159zm40.11-4.467v4.467h-4.49s-.09-.102-.136-.148c-.306-1.406-.272-2.811-.022-4.228a.648.648 0 01.295-.284c1.45-.181 2.902-.42 4.33.159l.034.034h-.011zM13.377 44.509V40.03c.057-.046.102-.102.16-.148 1.473-.25 2.947-.465 4.386.148.454 1.496.488 3.004-.022 4.5-1.508.51-3.016.545-4.512-.022h-.012zM40.03 40.03v4.479c-1.485.578-2.993.51-4.49.045-.555-1.485-.475-2.993-.067-4.5 1.44-.67 2.925-.409 4.41-.17.057.045.102.101.159.147h-.012z" fill="#141414"/><path d="M44.509 35.553v4.478h-4.49c-.566-1.508-.521-3.005-.034-4.501 1.508-.51 3.005-.544 4.512.011l.012.012zM13.366 40.03H8.888v-4.477c1.497-.567 2.993-.522 4.5-.046.511 1.508.545 3.005-.01 4.512l-.012.012zM4.421 8.9V4.41h4.467l.023.023c.555 1.496.499 3.004.045 4.523-1.519.465-3.027.533-4.535-.045V8.9zM44.52 4.399h4.478v4.478l-.023.023c-1.473.657-2.959.34-4.58.17-.295-1.633-.544-3.14.102-4.649l.023-.022z" fill="#141414"/><path d="M44.497 4.421V8.9h4.478v8.944c-.498.442-1.122.318-1.712.363-.725.046-1.485-.147-2.176.204-.306.499-.227 1.032-.227 1.542v9.5c0 .556.068 1.134-.329 1.61h-.045c-1.485.567-2.97.51-4.467.046-.669-1.372-.227-2.823-.317-4.24-.068-1.327.09-2.665-.114-3.968-1.371-.579-2.845.192-4.092-.579a7.37 7.37 0 01-.023-4.398c.42-.488 1.01-.386 1.553-.42.805-.056 1.633.136 2.517-.204.26-1.1.181-2.222.045-3.435-1.179-.306-2.301-.147-3.4-.102-.477.862-.239 1.69-.295 2.494-.046.578.09 1.202-.431 1.667-.352.272-.771.272-1.18.272-5.43 0-10.871.045-16.302-.023-1.349.057-2.72-.08-4.138.114-.226 1.417-.056 2.754-.136 4.07-.068 1.462.272 2.947-.226 4.387-.443.453-1.02.351-1.576.385-.805.057-1.633-.124-2.46.182-.5 1.156.068 2.437-.397 3.593-.046.046-.09.102-.136.148-1.497 0-2.993-.011-4.49-.023V17.81c.545-.442 1.202-.283 1.826-.328.691-.046 1.405.136 2.12-.204.464-1.259-.136-2.665.453-3.98 1.236-.635 2.642-.022 3.968-.464.533-1.214-.023-2.563.374-3.798a.827.827 0 01.25-.306c1.235-.477 2.573.034 3.831-.363.409-.646.193-1.372.25-2.052.056-.646-.136-1.338.317-1.916h4.512c.42.51.284 1.133.33 1.712.044.725-.137 1.485.282 2.38 2.438.046 4.943.068 7.403-.022.51-.635.295-1.293.352-1.905.068-.725-.17-1.496.329-2.165h13.445l.034.022z" fill="#3A2420"/><path d="M31.052 4.433V8.82h-8.696V4.433h8.696z" fill="#575757"/><path d="M8.888 8.877c0-1.485.012-2.959.023-4.444h4.49c.52 1.496.543 2.981-.023 4.467-1.497.544-3.005.578-4.49-.034v.01z" fill="#3A2420"/><path d="M13.366 8.9c0-1.486.011-2.982.023-4.467h4.444V8.9h-4.467z" fill="#575757"/><path d="M40.053 48.975c2.982 0 5.952 0 8.934.012v8.956c-2.982.011-5.964.023-8.945.045l-.148-.147c-.419-1.451-.136-2.948-.192-4.41-.057-1.077-.023-2.143-.012-3.22 0-.442-.01-.895.375-1.236h-.012z" fill="#9B662C"/><path d="M40.042 57.988v8.888h-4.5c-.296-.283-.33-.657-.33-1.031a340.859 340.859 0 010-6.814c0-.374.046-.748.284-1.065 1.496-.578 2.993-.544 4.49-.034l.056.068v-.012z" fill="#B1296D"/><path d="M35.564 57.988c0 2.96-.023 5.93-.023 8.888-1.496.012-2.982.023-4.478.046 0-1.485 0-2.982-.011-4.467-.567-1.474-.409-2.959-.102-4.455 1.394-.715 2.845-.34 4.285-.261a.735.735 0 01.329.26v-.01z" fill="#D9639D"/><path d="M4.421 57.943v-8.956c2.982 0 5.952 0 8.934-.012.487.465.363 1.089.374 1.656.011.907.045 1.825-.023 2.732-.034 1.428.114 2.868-.102 4.297a.688.688 0 01-.238.328c-2.981-.011-5.963-.022-8.945-.045z" fill="#9B662C"/><path d="M22.357 62.444c0 1.485 0 2.981-.012 4.466-1.496-.01-2.982-.022-4.478-.045-.295-.272-.351-.646-.351-1.02a285.793 285.793 0 010-6.972c0-.33.068-.658.283-.941 1.52-.579 3.038-.5 4.569-.057.487 1.52.51 3.05-.023 4.569h.012z" fill="#D9639D"/><path d="M17.867 57.977v8.888h-4.5v-8.888l.056-.068c1.417-.544 2.857-.397 4.297-.102.045.057.09.102.147.159v.011z" fill="#B1296D"/><path d="M8.888 8.877c1.497 0 2.993.011 4.49.022v4.456H8.956v4.5H4.433c0-2.981 0-5.963-.012-8.944 1.486 0 2.982-.011 4.467-.023v-.011z" fill="#575757"/><path d="M44.531 31.075v-13.22h4.444c0 4.4 0 8.798-.011 13.208-1.474 0-2.959.012-4.433.023v-.011z" fill="#191919"/><path d="M13.377 53.465c0-1.497-.022-2.993-.034-4.49 0-1.485.012-2.981.023-4.466 1.485 0 2.982 0 4.467-.012.045.046.09.091.147.136.34.703.159 1.463.215 2.2.035.544-.113 1.122.227 1.644 1.281.533 2.755-.272 4.002.555.408 1.497.454 2.993-.011 4.478-1.02.567-2.143.227-3.22.318-.43.034-.873.011-1.315-.023-1.077.045-2.154.023-3.231.011-.442 0-.896-.011-1.258-.351h-.012zm26.676-4.49l-.034 4.49c-.725.555-1.564.317-2.358.351-.703.034-1.406.034-2.109-.011-1.508-.08-3.038.295-4.523-.26-.533-1.486-.42-2.982-.068-4.479.43-.465 1.02-.363 1.576-.408.816-.057 1.644.136 2.471-.181.51-1.236-.102-2.596.408-3.832.046-.046.102-.09.148-.136h4.466c0 1.508.012 2.993.023 4.478v-.012zM22.356 62.444c0-1.485 0-2.982-.011-4.467.329-.397.793-.385 1.235-.385 2.086-.023 4.172-.023 6.258 0 .443 0 .907 0 1.236.385 0 1.485 0 2.982-.011 4.467h-8.707z" fill="#B1296D"/><path d="M13.332 35.587c-1.474-.012-2.959-.034-4.433-.046v-4.466c1.463-.647 2.937-.454 4.422-.114.714 1.395.34 2.857.272 4.297a.652.652 0 01-.26.317v.012zm26.744-4.535c1.462 0 2.936.011 4.399.023 0 1.485.011 2.981.022 4.466l-4.432.046-.16-.125c-.385-1.36-.237-2.744-.09-4.115a.6.6 0 01.26-.295zM17.833 44.497v-4.444l.159-.158c1.462-.375 2.913-.318 4.478.022.272 1.576.476 3.084-.09 4.603-1.509.544-3.017.51-4.524.023v-.057l-.023.011z" fill="#7E4632"/><path d="M13.377 40.03c-.011-1.473-.034-2.958-.045-4.432l.068-.068c1.485-.51 2.982-.499 4.478 0a6.637 6.637 0 010 4.49l-.045.045c-1.485 0-2.97-.023-4.456-.023v-.011zm22.187.023v4.501c-1.508.488-3.005.499-4.512 0-.601-1.52-.363-3.027-.114-4.614 1.565-.351 3.027-.397 4.49-.034l.158.159-.022-.012z" fill="#7E4632"/><path d="M40.065 35.587c-.012 1.473-.034 2.958-.046 4.432-1.485 0-2.97.023-4.455.023l-.046-.045c-.521-1.486-.498-2.982 0-4.478a6.637 6.637 0 014.49 0l.068.068h-.011zM17.866 17.856h17.686c0 1.473.011 2.97.023 4.455l-.159.159c-.408.238-.862.215-1.304.215H19.284c-.409 0-.817 0-1.213-.136a.792.792 0 01-.34-.272c-.273-1.485-.5-2.97.135-4.421z" fill="#7E4632"/><path d="M35.552 17.856v-4.41h4.388v4.398h-4.4l.011.012z" fill="#575757"/><path d="M17.867 17.856c0 1.485-.023 2.97-.034 4.455-1.485.612-2.97.556-4.456.034v-4.49h4.49z" fill="#191919"/><path d="M13.377 22.345c1.486 0 2.97-.022 4.456-.034l.045.046c.567 1.462.42 2.936.068 4.41-1.383.714-2.834.317-4.274.294a.785.785 0 01-.351-.226c.011-1.497.034-2.993.045-4.49h.011zm22.186-.034h4.433v4.512c-1.485.533-2.981.51-4.478.023-.51-1.497-.533-2.993 0-4.5l.034-.035h.011z" fill="#7E4632"/><path d="M13.377 31.075c-1.496 0-2.981 0-4.478.01v-4.25h4.433l.068-.023c.544 1.349.374 2.732.114 4.104-.046.056-.102.102-.148.159h.011z" fill="#191919"/><path d="M35.552 26.79c1.486.01 2.96.033 4.444.044.023 1.406.057 2.812.08 4.218l-.102.023c-1.463.578-2.948.453-4.422.056-.612-1.372-.42-2.789-.158-4.195.045-.056.102-.102.147-.158l.011.011z" fill="#B3584C"/><path d="M35.541 53.499l4.478-.034c-.01 1.485-.022 2.97-.034 4.467-1.473.022-2.947.045-4.421.056l-.034-.079c-.533-1.474-.533-2.936 0-4.41h.011z" fill="#D49221"/><path d="M35.541 53.499v4.41l-4.467.068H17.878l-.023-.057c-.532-1.474-.555-2.947.012-4.421l4.466-.068c.34-.283.749-.317 1.157-.317 2.143-.012 4.297-.012 6.44 0 .407 0 .816.045 1.156.317l4.466.068h-.011z" fill="#FEB941"/><path d="M17.855 53.499c0 1.474 0 2.948-.01 4.421h-4.422l-.034-4.466 4.478.034-.012.011z" fill="#D49221"/><path d="M31.074 53.43h-8.752c0-1.473.023-2.947.023-4.42l.147-.148c.442-.25.93-.215 1.417-.215h5.68c.442 0 .896-.023 1.304.215.045.045.102.102.147.159 0 1.474.023 2.947.023 4.421l.011-.011z" fill="#D9639D"/><path d="M17.844 44.543l4.49-.034c.045.056.09.102.147.158.25 1.452.453 2.891-.147 4.308l.022.035h-4.5v-4.467h-.012zm13.219-.034l4.49.034v4.467h-4.501l.023-.035c-.613-1.417-.397-2.868-.148-4.308.046-.056.09-.102.148-.158h-.012z" fill="#9B662C"/><path d="M17.833 35.507H13.4c0-1.485-.023-2.97-.023-4.455v.011c1.463-.635 2.948-.465 4.444-.102.67 1.429.42 2.903.17 4.376a1.904 1.904 0 01-.158.148v.022zm17.742-4.41c1.474 0 2.948-.011 4.41-.022 0 1.485 0 2.958.011 4.444h-4.432a1.647 1.647 0 00-.148-.136 9.11 9.11 0 010-4.138c.046-.046.102-.091.148-.136l.011-.012z" fill="#DDD"/><path d="M35.53 22.356c0 1.474.011 2.96.022 4.433l-.022.057c-.544.43-1.202.272-1.826.317-.691.046-1.405-.124-2.165.204-.295 1.202-.068 2.46-.159 3.707.08 1.293-.09 2.597.114 3.866.748.431 1.508.216 2.233.261.624.045 1.27-.102 1.825.34v-.022c-.011 1.496-.034 2.992-.045 4.489h-4.455v4.512c-.33.295-.726.351-1.145.351-2.154.023-4.308.023-6.451 0-.408 0-.816-.056-1.145-.35v-4.513h-4.456c-.01-1.497-.034-2.993-.045-4.49v.023c.544-.43 1.19-.294 1.814-.328.692-.035 1.406.113 2.2-.193.305-1.259.056-2.585.158-3.9-.068-1.247.102-2.506-.125-3.741-1.326-.522-2.675.079-3.9-.442a1.452 1.452 0 01-.124-.148c0-1.474.022-2.947.034-4.421h17.651l.012-.012z" fill="#9B662C"/><path d="M17.867 31.097c-1.497 0-2.993 0-4.478-.011 0-1.429.011-2.846.022-4.274 1.486 0 2.96-.012 4.444-.023l.012.057c.59 1.349.374 2.72.147 4.104-.045.056-.09.102-.136.159l-.011-.012z" fill="#B3584C"/><path d="M31.074 31.086v-4.24h4.467l.034 4.263h-.011c-1.497.51-2.993.532-4.478-.012l-.012-.011z" fill="#DD6D5E"/><path d="M22.334 44.509h8.74v4.478h-8.74v-4.478z" fill="#7E4632"/><path d="M22.322 31.086v4.455h-4.489c0-1.485.023-2.959.023-4.444v-.011c1.485-.578 2.97-.578 4.455 0h.011zm8.752 0c1.497 0 2.993 0 4.478.011v4.444h-4.489v-4.455h.011z" fill="#141414"/><path d="M22.322 31.086h-4.455v-4.251h4.466v4.24l-.01.01z" fill="#DD6D5E"/></g><defs><clipPath id="clip0_323_50586"><path fill="#fff" d="M0 0h53.397v71.32H0z"/></clipPath></defs></svg>