<svg width="54" height="73" viewBox="0 0 54 73" fill="none" xmlns="http://www.w3.org/2000/svg">
<g clip-path="url(#clip0_323_50524)">
<path d="M22.3222 67.7499V72.1713H8.93333V63.3286H4.40991V58.8051C4.40991 58.8051 4.52328 58.7031 4.56863 58.6578C5.09013 58.397 5.65697 58.4537 6.20114 58.4537C8.0944 58.4537 9.97633 58.4537 11.8696 58.4537C12.3797 58.4537 12.9126 58.4197 13.3661 58.7598C13.9442 59.6327 13.6381 60.619 13.6948 61.5487C13.7288 62.0928 13.7288 62.6483 13.6835 63.2039C13.7515 64.5303 13.5815 65.868 13.8195 67.2625C15.1686 67.5686 16.5064 67.3305 17.8215 67.4325C19.2612 67.4892 20.7237 67.2284 22.1521 67.6139C22.2088 67.6592 22.2542 67.7046 22.3109 67.7499H22.3222Z" fill="#141414"/>
<path d="M48.9752 58.7938V63.2378H44.5311V72.1713H31.0742V67.7499C31.0742 67.7499 31.1763 67.6592 31.2329 67.6139C32.6614 67.2397 34.1012 67.4892 35.541 67.4325C36.8334 67.3644 38.1258 67.5118 39.5429 67.3078C39.8376 65.9473 39.6109 64.5756 39.7016 63.2265C39.781 61.7413 39.3842 60.2222 39.9964 58.7824C40.2571 58.5443 40.5972 58.4763 40.926 58.4763C43.3407 58.4423 45.7668 58.431 48.1816 58.4763C48.4083 58.4763 48.6237 58.5443 48.8278 58.6464C48.8845 58.6917 48.9412 58.7484 48.9865 58.7938H48.9752Z" fill="#141414"/>
<path d="M22.3224 5.28368H40.0193V9.76175C40.0193 9.76175 39.9059 9.86378 39.8492 9.90913C39.3618 10.1585 38.8403 10.1132 38.3188 10.1132C33.5686 10.1132 28.8071 10.1132 24.057 10.1132C23.4674 10.1132 22.8666 10.1585 22.209 9.7164C21.8463 8.35597 21.8689 6.90485 22.1864 5.44239C22.2317 5.38571 22.2884 5.32902 22.3338 5.27234L22.3224 5.28368Z" fill="#141414"/>
<path d="M48.964 23.1846V36.4034H44.4972C44.4972 36.4034 44.4065 36.3014 44.3499 36.2447C43.9531 34.8049 44.2252 33.3425 44.1685 31.88C44.1345 30.4629 44.1345 29.0571 44.1685 27.64C44.2025 26.1435 43.9304 24.6244 44.4292 23.0599C45.903 22.6971 47.3428 22.6971 48.8053 23.0146C48.8619 23.0599 48.9186 23.1166 48.9753 23.1619L48.964 23.1846Z" fill="#141414"/>
<path d="M4.40991 49.849V45.371H13.3661C13.3661 45.371 13.4568 45.473 13.5134 45.5297C13.7515 47.0035 13.9782 48.4659 13.3661 49.9057C13.128 50.0985 12.8332 50.1665 12.5385 50.1778C10.101 50.2232 7.65226 50.2232 5.21483 50.1778C4.98809 50.1778 4.77269 50.1098 4.57997 50.0078C4.52328 49.9624 4.47793 49.9057 4.42125 49.8604L4.40991 49.849Z" fill="#141414"/>
<path d="M40.0192 45.3596H48.9754V49.8377C48.9754 49.8377 48.8733 49.9397 48.8166 49.9851C48.2611 50.2572 47.6603 50.1778 47.0821 50.1891C45.2002 50.1891 43.3183 50.1891 41.4363 50.1891C40.9602 50.1891 40.4727 50.2118 40.0532 49.917C39.3957 48.4773 39.6564 47.0035 39.8832 45.5183C39.9285 45.4617 39.9852 45.4163 40.0306 45.3596H40.0192Z" fill="#141414"/>
<path d="M48.9641 14.2399H53.3854V23.1847H48.9641L48.9754 23.196C48.4199 22.4818 48.658 21.6429 48.624 20.8606C48.6013 20.1691 48.5899 19.4662 48.6353 18.7746C48.692 17.3122 48.4312 15.8384 48.8167 14.3986C48.862 14.3419 48.9074 14.2966 48.9641 14.2399Z" fill="#141414"/>
<path d="M4.41005 58.7938H0V49.8376H4.41005C4.73882 50.1891 4.76149 50.6426 4.77283 51.0847C4.78417 53.2387 4.78417 55.3927 4.77283 57.5467C4.77283 58.0002 4.73882 58.4423 4.41005 58.8051V58.7938Z" fill="#141414"/>
<path d="M48.9755 49.849H53.3856V58.8051H48.9755C48.6468 58.4537 48.6241 58.0002 48.6128 57.5581C48.6014 55.4041 48.6014 53.2501 48.6128 51.096C48.6128 50.6426 48.6468 50.2004 48.9755 49.8376V49.849Z" fill="#141414"/>
<path d="M40.0079 9.76169H48.9641V14.2398H48.9754C48.6467 14.5118 48.2499 14.5799 47.8417 14.5799C45.5857 14.6025 43.3296 14.6025 41.0623 14.5799C40.6882 14.5799 40.3254 14.5345 40.0079 14.2851C39.4524 12.766 39.4298 11.2582 40.0079 9.73901H39.9966L40.0079 9.76169Z" fill="#141414"/>
<path d="M8.89966 14.2398V5.28369H13.3777C13.3777 5.28369 13.4684 5.38572 13.5138 5.44241C13.8992 6.88219 13.6385 8.34465 13.6952 9.80711C13.6271 11.2922 13.9672 12.7887 13.4571 14.2398C12.006 14.8407 10.5322 14.6253 9.05837 14.3872C9.00169 14.3419 8.95634 14.2965 8.89966 14.2398Z" fill="#141414"/>
<path d="M13.3777 5.28369V0.862305H22.3225V5.28369H22.3338C21.971 5.58979 21.5289 5.6238 21.0754 5.63514C18.9214 5.64647 16.7674 5.64647 14.6134 5.63514C14.1599 5.63514 13.7178 5.60113 13.355 5.27236H13.3663L13.3777 5.28369Z" fill="#141414"/>
<path d="M4.42139 27.6627H0V18.7179H4.42139C4.42139 18.7179 4.51208 18.8199 4.56877 18.8766C4.84085 19.4321 4.76149 20.0443 4.76149 20.6338C4.76149 22.5271 4.76149 24.4204 4.76149 26.3136C4.76149 26.7217 4.76149 27.1299 4.56877 27.5153C4.52342 27.572 4.47807 27.6174 4.42139 27.674V27.6627Z" fill="#141414"/>
<path d="M8.88798 36.4035H4.42125V27.6627H4.40991C5.90638 27.0732 7.40285 27.1866 8.92199 27.5947C9.5682 28.9778 9.1374 30.4403 9.22809 31.8574C9.17141 33.3198 9.44349 34.805 9.0467 36.2561C9.00135 36.3128 8.94467 36.3581 8.89932 36.4148L8.88798 36.4035Z" fill="#141414"/>
<path d="M31.063 67.75C28.1495 67.75 25.2245 67.75 22.311 67.75H22.3223C21.7214 66.2648 21.8008 64.7457 22.2656 63.2266C22.5717 62.9771 22.9458 62.9431 23.3199 62.9318C25.5533 62.9091 27.7753 62.9091 30.0087 62.9318C30.3828 62.9318 30.7569 62.9771 31.0744 63.2039C31.5845 64.723 31.6412 66.2535 31.0404 67.7727H31.0517L31.063 67.75Z" fill="#141414"/>
<path d="M13.3663 40.8816H8.88818V36.4035C10.362 35.8026 11.8471 35.9387 13.3436 36.3241C14.0011 37.7639 13.7517 39.2491 13.5136 40.7229C13.4683 40.7795 13.4116 40.8249 13.3663 40.8816Z" fill="#141414"/>
<path d="M4.42125 18.7179V14.2399H8.89932H8.88798C9.57954 15.725 9.2621 17.2215 9.0467 18.8653C7.41419 19.0807 5.90638 19.3982 4.40991 18.7066H4.42125V18.7179Z" fill="#141414"/>
<path d="M44.4972 36.4035V40.8815H40.0191C40.0191 40.8815 39.9171 40.7795 39.8717 40.7228C39.6223 39.249 39.4069 37.7752 40.0191 36.3354C41.5156 35.9046 43.0007 35.8253 44.4859 36.3921L44.4972 36.4035Z" fill="#141414"/>
<path d="M13.3662 45.3597C13.3662 43.8632 13.3662 42.3781 13.3662 40.8816C14.8627 40.3148 16.3592 40.3601 17.867 40.8476C18.3998 42.3554 18.3544 43.8859 17.9123 45.4051C16.3932 45.8812 14.874 45.9379 13.3662 45.3597Z" fill="#141414"/>
<path d="M40.019 40.8815C40.019 42.378 40.019 43.8631 40.019 45.3596C38.5226 45.9378 37.0148 45.8471 35.4956 45.4276C34.9968 43.9085 35.0081 42.3894 35.4956 40.8702C37.0034 40.3374 38.5112 40.3147 40.019 40.8702V40.8815Z" fill="#141414"/>
<path d="M31.0632 63.3172H22.3338C21.3362 63.8954 20.2365 63.5326 19.1935 63.6233C18.7513 63.6573 18.3092 63.6346 17.8671 63.6119C16.8014 63.6573 15.7244 63.6346 14.6587 63.6233C14.2166 63.6233 13.7631 63.6233 13.4117 63.2832C13.389 61.798 13.3777 60.3129 13.355 58.8278C13.4003 58.7711 13.457 58.7257 13.5024 58.6691C14.9648 58.2383 16.4613 58.533 17.9351 58.465C23.7736 58.4083 29.6121 58.4083 35.4392 58.465C36.9244 58.533 38.4208 58.2269 39.8833 58.6691C39.9287 58.7257 39.9853 58.7711 40.0307 58.8278C40.008 60.3129 39.9967 61.798 39.974 63.2832C39.3391 63.816 38.5682 63.6006 37.854 63.6233C37.0831 63.646 36.3122 63.6573 35.5299 63.6119C34.4189 63.6573 33.3192 63.6346 32.2082 63.6233C31.8001 63.6233 31.392 63.6006 31.0519 63.3172H31.0632Z" fill="#D0630B"/>
<path d="M4.41002 58.8051V49.8376C7.38028 49.8376 10.3619 49.8376 13.3322 49.8263C13.3888 49.8716 13.4342 49.917 13.4909 49.9623C13.933 51.4021 13.6269 52.8873 13.6949 54.3497C13.7403 55.4494 13.7176 56.5377 13.7063 57.6374C13.7063 58.0342 13.7063 58.4423 13.4002 58.7711L13.3435 58.8278C10.3619 58.8278 7.38028 58.8165 4.39868 58.8051H4.41002Z" fill="#B68031"/>
<path d="M13.4003 63.2833C14.8854 63.2947 16.3705 63.306 17.8443 63.3173C18.3885 64.7911 18.3885 66.2536 17.8443 67.7274H13.3889V63.2833H13.4003Z" fill="#10A7B1"/>
<path d="M17.8557 67.7273C17.8557 66.2535 17.8557 64.7911 17.8557 63.3173C19.3522 63.3173 20.8373 63.3173 22.3338 63.3173C22.3338 64.8024 22.3338 66.2875 22.3338 67.7727C20.8373 67.7613 19.3522 67.7386 17.8557 67.7273Z" fill="#0FC6D2"/>
<path d="M48.9755 49.8376V58.8051C45.9939 58.8051 43.0123 58.8165 40.0307 58.8278L39.974 58.7711C39.4072 57.8415 39.7473 56.8212 39.6679 55.8462C39.6339 55.37 39.6339 54.8825 39.6793 54.4064C39.7133 52.9893 39.5545 51.5608 39.7926 50.1437C39.8493 50.0077 39.9287 49.9057 40.042 49.8263C43.0123 49.8263 45.9939 49.8263 48.9642 49.8376H48.9755Z" fill="#B67F31"/>
<path d="M31.063 63.3173C32.5595 63.3173 34.0446 63.3173 35.5411 63.3173C36.0966 64.7911 36.0966 66.2535 35.5411 67.7273C34.0446 67.7386 32.5595 67.7613 31.063 67.7727C31.063 66.2875 31.063 64.8024 31.063 63.3173Z" fill="#0FC6D2"/>
<path d="M35.5299 67.7274C35.5299 66.2536 35.5299 64.7911 35.5299 63.3173C37.015 63.306 38.5002 63.2947 39.974 63.2833C39.974 64.7231 39.974 66.1742 39.974 67.7274H35.5186H35.5299Z" fill="#10A7B1"/>
<path d="M13.3548 5.26099H22.3337V9.73906H40.0306C40.0306 11.2355 40.0306 12.7207 40.0306 14.2171C39.9852 14.2625 39.9399 14.3078 39.8945 14.3532C39.1236 14.7046 38.296 14.5119 37.4911 14.5572C37.0149 14.5912 36.5274 14.4892 36.0626 14.784C35.5298 16.0424 36.278 17.4935 35.5525 18.7406C34.9176 19.1714 34.192 19.0013 33.5118 19.0466C32.8883 19.092 32.2534 18.9446 31.6072 19.228C31.0517 20.4864 31.8 21.9489 31.1084 23.1959C30.4849 23.6608 29.7593 23.4794 29.0791 23.5247C28.4556 23.5587 27.8207 23.434 27.1858 23.6834C26.7664 24.273 26.9931 24.9532 26.9364 25.5994C26.8684 26.3249 27.0952 27.0845 26.6077 27.742C25.1792 28.1615 23.7508 28.2069 22.3223 27.708C21.7441 26.8804 22.0276 25.9395 21.9822 25.0552C21.9482 24.443 21.9482 23.8195 21.9936 23.1959C22.0502 21.6995 21.7328 20.1917 22.209 18.7179C22.7078 18.2644 23.3313 18.4004 23.9095 18.3551C24.6124 18.3097 25.3266 18.4798 26.0975 18.1284C26.3016 17.0287 26.3016 15.9063 26.0748 14.7046C23.354 14.3192 20.6558 14.818 18.003 14.4212C17.8783 14.3645 17.7762 14.2852 17.6969 14.1718C17.2207 12.9361 17.7309 11.5983 17.3454 10.3286C16.6652 9.90911 15.9056 10.1472 15.1914 10.0905C14.5792 10.0338 13.9217 10.2152 13.3889 9.73906C13.3775 8.24259 13.3548 6.75746 13.3435 5.26099H13.3548Z" fill="#0FC6D2"/>
<path d="M48.9415 18.7066C48.9528 20.203 48.9755 21.6995 48.9868 23.196H44.4634V27.674C42.9783 28.2295 41.4931 28.1729 40.008 27.7081C39.4298 26.8351 39.7359 25.8488 39.6792 24.9078C39.6452 24.3637 39.6452 23.7968 39.6906 23.2527C39.7359 21.7789 39.5092 20.2937 39.8493 18.8313C39.9173 18.6952 40.0193 18.6045 40.1554 18.5365C41.7312 18.1737 43.3297 18.4231 44.9169 18.3665C45.8805 18.3324 46.8441 18.3438 47.8078 18.3665C48.2159 18.3665 48.6354 18.3778 48.9528 18.7066H48.9415Z" fill="#10A7B1"/>
<path d="M44.4972 36.4035C43.0234 36.4148 41.5383 36.4375 40.0645 36.4488C40.0078 36.4035 39.9511 36.3581 39.9058 36.3014C39.5883 34.8163 39.4636 33.3312 39.9851 31.8574C41.4816 31.4379 42.9781 31.3472 44.4632 31.9254C44.4632 33.4219 44.4859 34.9183 44.4972 36.4035Z" fill="#885135"/>
<path d="M44.4632 31.9253C42.9894 31.9253 41.5269 31.9253 40.0531 31.9253C39.3616 30.6443 39.7357 29.2952 39.7924 27.9574C39.8377 27.8214 39.9284 27.7194 40.0418 27.6287L44.4632 27.674C44.4632 29.0911 44.4632 30.4969 44.4632 31.914V31.9253Z" fill="#0FC6D2"/>
<path d="M13.3663 45.3597C14.8514 45.3597 16.3479 45.337 17.833 45.337C19.3522 44.8268 20.86 44.8155 22.3678 45.3483C22.9573 46.8335 22.6852 48.3186 22.5378 49.6563C22.0503 50.1665 21.5969 50.1892 21.1547 50.2005C18.9554 50.2232 16.7674 50.2232 14.568 50.2005C14.1599 50.2005 13.7404 50.1892 13.423 49.8717L13.3323 49.8264C13.3436 48.3413 13.3549 46.8448 13.3663 45.3597Z" fill="#C1B60E"/>
<path d="M35.5526 45.3369C37.0377 45.3369 38.5342 45.3596 40.0193 45.3596C40.0307 46.8447 40.042 48.3412 40.0534 49.8263L39.9627 49.8717C39.6679 50.1551 39.2938 50.1891 38.931 50.1891C36.6636 50.2118 34.4076 50.2231 32.1402 50.1891C31.7661 50.1891 31.4033 50.1324 30.9158 49.7696C30.6324 48.3979 30.4737 46.8901 31.0065 45.3709C32.5257 44.7814 34.0448 44.8268 35.5639 45.3369H35.5526Z" fill="#C1B60E"/>
<path d="M48.9413 18.7066C45.9823 18.7066 43.0121 18.6953 40.0531 18.6839C39.4296 17.2101 39.4863 15.725 40.0078 14.2399H40.0191C43.0007 14.2285 45.9937 14.2285 48.9753 14.2285C48.9639 15.725 48.9413 17.2101 48.9299 18.7066H48.9413Z" fill="#0FC6D2"/>
<path d="M4.39868 18.7066H8.87675V14.2285C10.3619 14.2285 11.847 14.2285 13.3322 14.2285C14.84 13.6957 16.3364 13.673 17.8442 14.2512C18.4678 15.657 18.1843 17.1081 18.037 18.5592C17.9803 18.6839 17.8896 18.786 17.7762 18.8653C16.5292 19.3301 15.1914 18.8086 13.9217 19.2281C13.3548 20.5205 14.1257 21.983 13.3888 23.2414C12.754 23.6722 12.0284 23.5021 11.3369 23.5475C10.7133 23.5928 10.0785 23.4341 9.43226 23.7402C9.08082 24.4544 9.29622 25.248 9.23953 26.0076C9.19419 26.5857 9.3529 27.2093 8.88809 27.6968C7.39162 27.6968 5.89515 27.6968 4.41002 27.6854V18.7066H4.39868Z" fill="#0FC6D2"/>
<path d="M17.8444 14.2284C16.3366 14.2284 14.8401 14.2171 13.3323 14.2057C13.3549 12.7093 13.3776 11.2241 13.4003 9.72766H17.8444V14.2171V14.2284Z" fill="#10A7B1"/>
<path d="M8.88818 27.6854V23.1506H13.3322C13.3322 23.1506 13.4343 23.2413 13.491 23.298C13.9331 24.7491 13.627 26.2343 13.695 27.7081C13.6157 29.1365 14.0011 30.5876 13.4229 31.9821C11.9151 32.4355 10.4187 32.5149 8.92219 31.9254C8.91086 30.5196 8.89952 29.1025 8.88818 27.6967V27.6854Z" fill="#10A7B1"/>
<path d="M8.92219 31.9254C10.396 31.9254 11.8584 31.9254 13.3322 31.9254C14.0465 33.2858 13.661 34.7143 13.5817 36.1314C13.525 36.2674 13.4456 36.3695 13.3209 36.4488L8.88818 36.4035C8.88818 34.907 8.91086 33.4105 8.92219 31.9254Z" fill="#885135"/>
<path d="M17.8217 40.9156C16.3366 40.9156 14.8514 40.8929 13.3776 40.8816C13.3663 39.4078 13.3436 37.9226 13.3323 36.4488L13.4003 36.3808C14.8628 35.8253 16.3252 35.9614 17.799 36.3128C18.5132 37.6959 18.1391 39.147 18.0711 40.5868C18.0257 40.7228 17.9351 40.8249 17.8217 40.9156Z" fill="#885135"/>
<path d="M40.0192 40.8816C38.5341 40.8816 37.049 40.9043 35.5752 40.9156C35.5185 40.8703 35.4731 40.8136 35.4165 40.7682C35.133 39.2944 34.9517 37.8206 35.5412 36.3582C37.0263 35.8934 38.5114 35.8594 39.9966 36.3808L40.0646 36.4489C40.0533 37.9227 40.0306 39.4078 40.0192 40.8816Z" fill="#885135"/>
<path d="M22.3338 45.3822C20.8373 45.3709 19.3295 45.3482 17.833 45.3368C17.833 43.863 17.833 42.3893 17.833 40.9155L17.8897 40.8588C19.3748 40.2693 20.8486 40.53 22.4245 40.7341C22.8212 42.2986 22.8099 43.761 22.4925 45.2235C22.4471 45.2802 22.3904 45.3368 22.3451 45.3935L22.3338 45.3822Z" fill="#885135"/>
<path d="M35.5525 45.337L31.0517 45.3823C31.0517 45.3823 30.9497 45.2689 30.9044 45.2122C30.5529 43.7838 30.6323 42.3553 30.927 40.7795C32.4802 40.4621 33.988 40.2694 35.5071 40.8475C35.5071 40.8475 35.5638 40.9042 35.5752 40.9042C35.5752 42.378 35.5752 43.8518 35.5752 45.3256L35.5525 45.337Z" fill="#885135"/>
<path d="M31.0518 45.3823V49.8718C34.1128 49.8718 37.0377 49.8718 39.9626 49.8718C39.9739 51.3456 39.9853 52.8307 39.9966 54.3045C39.5431 54.7353 38.9649 54.6333 38.4321 54.6673C37.6725 54.7126 36.8903 54.5426 36.0967 54.8373C35.7226 55.5629 35.938 56.3451 35.8813 57.1047C35.836 57.6829 35.972 58.2951 35.5185 58.7826C29.6347 58.7826 23.7395 58.7826 17.8557 58.7826C17.4248 58.3291 17.5269 57.7509 17.5042 57.2067C17.4702 56.4472 17.5949 55.6649 17.3682 54.894C16.6086 54.5085 15.815 54.7239 15.0668 54.6673C14.4886 54.6219 13.8764 54.758 13.3889 54.3045C13.4003 52.8307 13.4116 51.3456 13.4229 49.8718C16.3252 49.8718 19.2161 49.8718 22.3337 49.8718C22.3337 48.3186 22.3337 46.8448 22.3337 45.3823L22.3224 45.3597C22.6512 45.0649 23.0593 45.0196 23.4674 45.0196C25.6214 44.9969 27.7641 44.9969 29.9181 45.0196C30.3262 45.0196 30.7344 45.0649 31.0631 45.3597V45.3823H31.0518Z" fill="#F9EB0A"/>
<path d="M13.3889 54.3044H17.867C17.867 55.9029 17.867 57.3427 17.867 58.7712C16.3819 58.7712 14.8967 58.7712 13.4116 58.7712C13.4116 57.286 13.4116 55.7896 13.4003 54.3044H13.3889Z" fill="#C1B60E"/>
<path d="M35.5186 58.7712V54.3044C37.1171 54.3044 38.5568 54.3044 39.9966 54.3044C39.9966 55.7896 39.9966 57.286 39.9853 58.7712C38.5002 58.7712 37.015 58.7712 35.5299 58.7712H35.5186Z" fill="#C1B60E"/>
<path d="M31.063 45.3483C28.1494 45.3483 25.2359 45.3483 22.3223 45.3483C22.3223 43.9085 22.3223 42.4687 22.3223 40.8475C20.7578 40.8475 19.318 40.8475 17.8782 40.8475C17.8669 39.3511 17.8442 37.8546 17.8215 36.3581C17.8782 36.3128 17.9236 36.2788 17.9802 36.2334C19.1933 35.814 20.5084 36.3015 21.7101 35.9047C22.0502 35.4512 21.9708 34.9524 21.9708 34.4762C21.9822 32.685 21.9708 30.9051 21.9708 29.1139C21.9708 28.6717 21.9482 28.2182 22.1749 27.7988C22.2202 27.7534 22.2769 27.7081 22.3223 27.6514C23.7394 27.6514 25.1452 27.6287 26.5623 27.6287C28.0474 27.0959 29.5325 27.1866 31.0177 27.5947C31.4485 28.0482 31.3805 28.6377 31.3805 29.1819C31.3918 30.9391 31.3805 32.685 31.3805 34.4422C31.3805 34.9184 31.3011 35.4172 31.6412 35.882C32.8316 36.3015 34.1467 35.8026 35.3597 36.2221C35.4164 36.2674 35.4617 36.3128 35.5184 36.3468C35.4957 37.8433 35.4844 39.3397 35.4617 40.8362C34.056 40.8362 32.6389 40.8362 31.0177 40.8362V45.337L31.063 45.3483Z" fill="#B67F31"/>
<path d="M17.8556 18.7293C17.8556 17.2328 17.8556 15.7363 17.8442 14.2285C20.7011 14.2285 23.558 14.2285 26.4943 14.2285V18.7179H22.311C20.8258 19.2621 19.3407 19.2508 17.8669 18.7179L17.8556 18.7293Z" fill="#10A7B1"/>
<path d="M40.0079 14.2399C40.0193 15.725 40.0306 17.1988 40.0419 18.6839L39.9853 18.7406C38.6135 19.3188 37.2077 19.0354 35.8133 18.9333C35.6772 18.888 35.5752 18.7973 35.4958 18.6839V14.2399H39.9966H40.0079Z" fill="#10A7B1"/>
<path d="M17.8555 18.7292C19.3406 18.7292 20.8257 18.7292 22.2995 18.7292C22.2995 20.2257 22.2882 21.7108 22.2769 23.2073C20.7917 23.7742 19.3066 23.7288 17.8101 23.23C17.3113 21.7222 17.2546 20.2257 17.8555 18.7292Z" fill="#885135"/>
<path d="M31.0293 23.1506V18.6725C32.6391 18.6725 34.0789 18.6725 35.5074 18.6725L35.5641 18.7292C36.1422 20.1236 35.8701 21.5521 35.7454 22.9805C35.6888 23.1052 35.6094 23.2186 35.496 23.2979C34.1129 23.6721 32.7298 23.5247 31.3354 23.3886C31.2107 23.3433 31.1087 23.2526 31.0293 23.1392V23.1506Z" fill="#10A7B1"/>
<path d="M17.8329 23.1847C19.3181 23.1847 20.8032 23.1847 22.2883 23.1847C22.2997 24.6698 22.3224 26.1663 22.3337 27.6514L22.311 27.6741C20.9052 28.2749 19.4655 27.9915 18.0257 27.8668C17.8896 27.8101 17.7876 27.7194 17.7082 27.6061C17.3908 26.189 17.4135 24.7605 17.6856 23.3321C17.7309 23.2754 17.7763 23.23 17.8216 23.1733L17.8329 23.1847Z" fill="#B68031"/>
<path d="M31.0631 27.6514C29.5667 27.6514 28.0702 27.64 26.5737 27.6287V23.1506C28.1609 23.1506 29.5893 23.1506 31.0291 23.1506L31.0858 23.2073C31.6413 24.6244 31.4599 26.0529 31.2105 27.4927C31.1652 27.5493 31.1198 27.5947 31.0745 27.6514H31.0631Z" fill="#10A7B1"/>
<path d="M35.5186 23.1847C35.5299 21.6995 35.5412 20.2144 35.5526 18.7406C37.0264 18.7406 38.5115 18.7406 39.9853 18.7406C39.9853 20.2257 39.9853 21.7109 39.974 23.196C38.4888 23.7402 37.0037 23.7628 35.5186 23.196V23.1847Z" fill="#885135"/>
<path d="M35.5185 23.1847C37.0036 23.1847 38.4887 23.1847 39.9739 23.1847C39.9965 24.6698 40.0192 26.1436 40.0305 27.6287L39.9739 27.6741C38.5567 28.2636 37.117 28.0142 35.6658 27.8441C35.5298 27.7761 35.4278 27.6854 35.3597 27.5494C35.1557 26.0756 34.9063 24.6018 35.5185 23.162V23.1847Z" fill="#B68031"/>
<path d="M35.5524 27.6854C37.0262 27.6854 38.5113 27.6854 39.9851 27.6854C40.0078 29.1025 40.0305 30.5196 40.0531 31.9368C40.0305 33.4219 40.0078 34.907 39.9851 36.3922C38.5113 36.3922 37.0262 36.3922 35.5524 36.3808V36.4035C35.2463 36.0861 35.1896 35.6779 35.1896 35.2698C35.1669 33.1158 35.1669 30.9731 35.1896 28.8191C35.1896 28.411 35.2123 27.9915 35.5524 27.6854Z" fill="#DFFEF9"/>
<path d="M17.8557 18.7179C17.8557 20.203 17.833 21.6882 17.8217 23.1846C16.3479 23.7741 14.8627 23.7288 13.3663 23.2186L13.3096 23.162C13.3096 21.7448 13.3096 20.3391 13.3096 18.7179H17.833H17.8557Z" fill="#10A7B1"/>
<path d="M17.833 36.3582C16.3592 36.3582 14.8741 36.3582 13.4003 36.3696C13.3776 34.8844 13.3549 33.3993 13.3323 31.9142C13.3549 30.497 13.3776 29.0799 13.4003 27.6628C14.8741 27.1186 16.3592 27.096 17.833 27.6855C18.1731 28.0369 18.1958 28.4791 18.1958 28.9212C18.2071 30.9959 18.2071 33.0705 18.1958 35.1452C18.1958 35.5873 18.1731 36.0408 17.833 36.3922V36.3696V36.3582Z" fill="#DFFEF9"/>
<path d="M17.833 27.6854C16.3592 27.6854 14.874 27.6741 13.4003 27.6627C13.4003 26.1776 13.4003 24.6925 13.3889 23.2073C14.874 23.196 16.3592 23.1847 17.8443 23.1733C17.8443 24.6811 17.8443 26.1776 17.8443 27.6854H17.833Z" fill="#885135"/>
<path d="M17.833 36.3922C17.833 33.4899 17.833 30.5877 17.833 27.6854C19.3295 27.6854 20.8259 27.6854 22.3111 27.6854V36.3922H17.833Z" fill="black"/>
<path d="M35.5524 27.6854C35.5524 30.5877 35.5524 33.4899 35.5524 36.3922C34.1013 36.3922 32.6502 36.3922 31.063 36.3922C31.063 33.4446 31.063 30.5537 31.063 27.6514V27.6741C32.5481 27.1186 34.0219 27.0959 35.4957 27.6854H35.5524Z" fill="black"/>
<path d="M35.4842 27.6967C34.0104 27.6967 32.5253 27.6967 31.0515 27.6853C31.0515 26.2002 31.0742 24.7037 31.0742 23.2186C32.5593 23.2072 34.0445 23.1959 35.5296 23.1846C35.5182 24.6924 35.4956 26.2002 35.4842 27.6967Z" fill="#885135"/>
</g>
<defs>
<clipPath id="clip0_323_50524">
<rect width="53.3854" height="71.3091" fill="white" transform="translate(0 0.862305)"/>
</clipPath>
</defs>
</svg>
