<svg width="54" height="67" viewBox="0 0 54 67" fill="none" xmlns="http://www.w3.org/2000/svg">
<g clip-path="url(#clip0_323_50648)">
<path d="M13.3775 4.42127V-0.00012207H40.0079V4.40993C40.0079 4.40993 39.9059 4.50062 39.8492 4.55731C38.3981 4.94276 36.9129 4.68201 35.4391 4.7387C29.612 4.79538 23.7848 4.79538 17.9463 4.7387C16.4725 4.68201 14.9874 4.94276 13.5249 4.55731C13.4682 4.51196 13.4229 4.46661 13.3662 4.40993L13.3775 4.42127Z" fill="#141414"/>
<path d="M4.42139 40.0191H0V17.8555H4.42139C4.42139 17.8555 4.52342 17.9688 4.56877 18.0142C4.75016 18.3543 4.76149 18.7284 4.76149 19.1025C4.76149 23.0818 4.80684 27.0497 4.73882 31.0289C4.78417 33.6137 4.75016 36.1872 4.75016 38.772C4.75016 39.1462 4.73882 39.5089 4.55743 39.849C4.51208 39.9057 4.4554 39.9511 4.41005 40.0078L4.42139 40.0191Z" fill="#141414"/>
<path d="M48.9754 22.3335H53.3854V40.019H48.9641C48.9641 40.019 48.8734 39.9057 48.8167 39.8603C48.5673 39.3728 48.6126 38.8513 48.6126 38.3299C48.6126 35.9151 48.5786 33.5003 48.6353 31.0969C48.6013 29.6118 48.5899 28.138 48.6353 26.6529C48.692 25.2698 48.4312 23.864 48.8167 22.4922C48.862 22.4355 48.9074 22.3902 48.9641 22.3335H48.9754Z" fill="#141414"/>
<path d="M48.9754 53.4534V57.8975H44.5314V62.4095H40.008C40.008 62.4095 39.9173 62.3075 39.8719 62.2508C39.4978 60.811 39.7472 59.3486 39.6905 57.8861C39.6338 56.7865 39.6678 55.6868 39.6792 54.5758C39.6792 54.1676 39.7132 53.7595 39.9853 53.4307C40.2574 53.1927 40.5861 53.136 40.9149 53.1246C43.3297 53.0906 45.7444 53.0793 48.1592 53.1246C48.3859 53.1246 48.6013 53.1927 48.8054 53.2947C48.8621 53.34 48.9188 53.3967 48.9641 53.4421L48.9754 53.4534Z" fill="#141414"/>
<path d="M44.486 8.89929H48.9641V22.3335C47.4676 22.923 45.9484 22.8437 44.4293 22.4015C44.1572 22.0614 44.1345 21.6533 44.1232 21.2452C44.1232 18.6604 44.0779 16.0755 44.1459 13.4794C44.2026 12.0056 43.9418 10.5205 44.3273 9.05801C44.3726 9.00132 44.418 8.95598 44.4747 8.89929H44.486Z" fill="#141414"/>
<path d="M13.3774 62.4096H8.93333V57.9769H4.40991V53.4535C4.40991 53.4535 4.52328 53.3514 4.56863 53.3061C5.16948 53.0227 5.80435 53.1134 6.42788 53.102C8.24178 53.102 10.0557 53.0907 11.8696 53.102C12.3797 53.102 12.9126 53.068 13.3661 53.3968C13.9442 54.2697 13.6381 55.256 13.7062 56.197C13.7402 56.7412 13.7402 57.308 13.6835 57.8522C13.6268 59.3146 13.8876 60.7884 13.5134 62.2396C13.4681 62.2962 13.4227 62.3416 13.3774 62.3983V62.4096Z" fill="#141414"/>
<path d="M48.9752 44.5085H53.3853V53.4647H48.9752C48.7371 53.2153 48.6464 52.8865 48.6351 52.5464C48.6124 50.0976 48.5671 47.6489 48.6578 45.2001C48.6578 45.0187 48.7258 44.8373 48.8165 44.6673C48.8618 44.6106 48.9185 44.5539 48.9639 44.5085H48.9752Z" fill="#141414"/>
<path d="M4.41005 53.4533H0V44.4972H4.41005C4.41005 44.4972 4.51208 44.6106 4.55743 44.6559C4.82952 45.2114 4.75016 45.8236 4.76149 46.4131C4.76149 48.2724 4.76149 50.1203 4.76149 51.9795C4.76149 52.501 4.78417 53.0339 4.41005 53.4533Z" fill="#141414"/>
<path d="M40.0077 62.4096V66.8309H31.0742V62.4096C31.0742 62.4096 31.1763 62.3189 31.2329 62.2735C32.6727 61.8994 34.1465 62.1488 35.5976 62.0921C36.6633 62.0354 37.729 62.0694 38.7946 62.0694C39.2368 62.0694 39.6789 62.1035 40.0304 62.4322L40.0077 62.4096Z" fill="#141414"/>
<path d="M22.3109 62.4094V66.8308H13.3774V62.4094L13.3547 62.4321C14.069 61.8766 14.8966 62.1033 15.6901 62.0807C16.3817 62.058 17.0846 62.0467 17.7761 62.092C19.2386 62.1487 20.7124 61.8879 22.1522 62.2621C22.2088 62.3074 22.2542 62.3528 22.3109 62.3981V62.4094Z" fill="#141414"/>
<path d="M4.40991 44.5085C4.40991 43.012 4.40991 41.5156 4.40991 40.0191C4.73868 39.7243 5.13547 39.6676 5.55494 39.6676C7.81098 39.645 10.067 39.645 12.3344 39.6676C12.7085 39.6676 13.0713 39.713 13.3887 39.9624C13.9669 41.4815 13.8989 43.012 13.4341 44.5425C13.094 44.8146 12.6745 44.8373 12.2664 44.8373C10.067 44.8599 7.86766 44.8486 5.67964 44.8373C5.22617 44.8373 4.78403 44.8032 4.42125 44.4745L4.40991 44.5085Z" fill="#141414"/>
<path d="M4.42111 17.8554V8.89929H8.89918C8.89918 8.89929 8.98988 9.00132 9.03523 9.05801C9.42068 10.5091 9.15993 11.9943 9.21662 13.4681C9.20528 14.9419 9.45469 16.427 8.94453 17.9915C7.41405 18.2296 5.90624 18.513 4.39844 17.8441H4.40977L4.42111 17.8554Z" fill="#141414"/>
<path d="M48.9753 40.0191C48.9753 41.5155 48.9753 43.012 48.9753 44.5085C48.6465 44.7919 48.2497 44.8486 47.8416 44.8599C45.5855 44.8826 43.3295 44.8826 41.0735 44.8599C40.6993 44.8599 40.3366 44.8146 40.0191 44.5765C39.4296 43.0687 39.509 41.5609 39.9624 40.0304C40.7107 39.4749 41.5836 39.7243 42.3999 39.6903C43.0914 39.6563 43.783 39.6563 44.4859 39.7016C45.5629 39.6563 46.6399 39.679 47.7169 39.679C48.1703 39.679 48.6125 39.7016 48.9753 40.0304V40.0191Z" fill="#141414"/>
<path d="M31.0744 62.4095H22.311L22.3337 62.4322C21.7328 60.9244 21.8122 59.4053 22.2657 57.8861C22.5718 57.6367 22.9459 57.6027 23.32 57.5913C25.5534 57.5687 27.7867 57.5687 30.0088 57.5913C30.3829 57.5913 30.757 57.6367 31.0744 57.8634C31.5846 59.3939 31.6413 60.9131 31.0404 62.4322L31.0631 62.4095H31.0744Z" fill="#141414"/>
<path d="M8.89938 8.89946V4.42139H13.3775H13.3548C13.9896 5.82716 13.7062 7.28962 13.5475 8.74074C13.4795 8.87679 13.3888 8.97882 13.2641 9.04684C11.7903 9.2509 10.3165 9.52299 8.87671 8.87678V8.89946H8.89938Z" fill="#141414"/>
<path d="M40.0077 4.41003H44.4857V8.88811C43.0686 9.51164 41.6062 9.23955 40.155 9.08083C40.019 9.01281 39.917 8.92212 39.8489 8.79741C39.6335 7.32362 39.3841 5.84982 40.0077 4.41003Z" fill="#141414"/>
<path d="M4.40991 17.8441H8.93333V13.366C9.46617 12.9012 10.1237 13.0713 10.7359 13.0372C11.4274 12.9919 12.1303 13.1166 12.8219 12.8899C13.3887 11.5748 12.6178 10.1237 13.3661 8.8766L13.3434 8.89928C13.9669 8.43446 14.6811 8.60452 15.3727 8.57051C15.9962 8.5365 16.6197 8.63853 17.2659 8.42313C17.6627 7.77692 17.4473 7.0627 17.504 6.38249C17.5607 5.73628 17.3566 5.04473 17.8328 4.46655C23.728 4.46655 29.6232 4.46655 35.5297 4.46655C35.9605 4.92003 35.8471 5.49821 35.8811 6.04238C35.9265 6.80195 35.7564 7.5842 36.0625 8.36644C37.3322 8.92195 38.7947 8.15104 40.0304 8.89928C40.6313 10.3164 40.3705 11.7788 40.2118 13.23C40.1551 13.366 40.0531 13.468 39.9284 13.5361C38.4773 13.9102 36.9921 13.6608 35.5297 13.7061C34.2486 13.7968 32.9449 13.6041 31.7205 13.8308C31.335 14.341 31.4144 14.8398 31.4144 15.3046C31.4144 17.1185 31.4144 18.9438 31.4144 20.7577C31.4144 21.3132 31.4711 21.88 31.097 22.3562C29.6118 22.8777 28.1267 22.7983 26.6416 22.4129C26.1767 21.9254 26.3015 21.3018 26.2561 20.7237C26.1994 19.9527 26.3921 19.1592 26.0634 18.3883C24.8617 17.8894 23.5126 18.547 22.3449 17.9121C21.8914 17.3679 22.0388 16.7104 22.0048 16.0869C21.9708 15.384 22.0841 14.6698 21.8461 13.8762C20.735 13.5814 19.6127 13.6948 18.4563 13.7968C17.8215 15.1346 18.615 16.6197 17.8895 17.8781C17.2659 18.3202 16.5404 18.1502 15.8488 18.1955C15.2253 18.2409 14.5904 18.0935 13.9329 18.3769C13.3661 19.6353 14.1143 21.0864 13.4341 22.3448C12.9239 22.7643 12.3117 22.6396 11.7335 22.6849C10.974 22.7416 10.1804 22.5376 9.3528 22.9117C9.1374 24.1247 9.30745 25.3831 9.23943 26.6302C9.16007 28.1153 9.55686 29.6345 8.94467 31.0856C7.4482 31.5957 5.95173 31.6411 4.4666 31.0516C4.45526 26.6528 4.44392 22.2428 4.42125 17.8441H4.40991Z" fill="#7EBC48"/>
<path d="M17.8328 4.44403V8.87675C16.2569 8.87675 14.7945 8.87675 13.332 8.87675C13.332 7.38028 13.3434 5.89515 13.3547 4.39868C14.8512 4.41002 16.3363 4.43269 17.8328 4.44403Z" fill="#A5DE74"/>
<path d="M40.0305 8.87675H35.5298C35.5298 7.3236 35.5298 5.88381 35.5298 4.44403C37.0263 4.43269 38.5227 4.42136 40.0192 4.39868C40.0192 5.89515 40.0192 7.38028 40.0192 8.87675H40.0305Z" fill="#6A9941"/>
<path d="M4.44379 31.0516C5.91758 31.0516 7.39138 31.0403 8.85384 31.0289C8.89918 31.0743 8.95587 31.1196 9.00122 31.165C9.364 31.9359 9.17127 32.7635 9.21662 33.5684C9.25063 34.0445 9.14859 34.532 9.43202 35.0195C10.6904 35.5637 12.1415 34.8041 13.3999 35.5183C13.9214 36.9468 13.774 38.3979 13.5133 39.8604C13.468 39.9171 13.4226 39.9624 13.3659 40.0191C10.373 40.0191 7.39138 40.0191 4.39844 40.0304C4.40977 37.0375 4.42111 34.0445 4.44379 31.0629V31.0516Z" fill="#6A9941"/>
<path d="M48.9752 40.0304C47.4788 40.0191 45.9823 40.0077 44.4858 39.985C43.9303 39.2708 44.1911 38.4319 44.1571 37.6383C44.123 36.9468 44.123 36.2439 44.1684 35.541C44.123 34.43 44.1457 33.3189 44.1571 32.2079C44.1571 31.7998 44.1797 31.3917 44.4631 31.0516C45.9596 30.5414 47.4561 30.5187 48.9412 31.0516C48.9526 34.0445 48.9639 37.0374 48.9866 40.019L48.9752 40.0304Z" fill="#6A9941"/>
<path d="M48.9413 31.0516C47.4562 31.0516 45.9824 31.063 44.4972 31.0743C44.4519 31.029 44.4066 30.9723 44.3612 30.9269C44.0551 29.5212 44.0891 28.1154 44.3272 26.6983C44.3952 26.5736 44.4972 26.4715 44.622 26.4148C46.0731 26.2448 47.5242 25.9614 48.9413 26.5962C48.9413 28.0814 48.9413 29.5665 48.9413 31.0516Z" fill="#7EBC48"/>
<path d="M48.9414 26.5964C47.4562 26.5964 45.9824 26.5964 44.4973 26.585C43.9305 25.1566 43.9191 23.7281 44.5086 22.2997C45.9938 22.2997 47.4902 22.311 48.9754 22.3224C48.964 23.7508 48.9527 25.1679 48.93 26.5964H48.9414Z" fill="#6A9941"/>
<path d="M31.0631 57.9427H22.3337C21.6081 58.4869 20.7692 58.2488 19.9756 58.2828C19.2727 58.3168 18.5698 58.3168 17.867 58.2715C16.8013 58.3168 15.7243 58.2942 14.6586 58.2828C14.2165 58.2828 13.763 58.2942 13.4116 57.9541C13.4002 56.4576 13.3775 54.9498 13.3662 53.4533C13.4229 53.408 13.4682 53.3626 13.5249 53.3059C14.9874 52.9205 16.4725 53.1812 17.9463 53.1245C23.7848 53.0679 29.612 53.0679 35.4505 53.1245C36.9356 53.1812 38.4207 52.9091 39.8945 53.3059C39.9512 53.3513 39.9966 53.3966 40.0533 53.4533C40.0419 54.9498 40.0192 56.4576 40.0079 57.9541C39.2823 58.4982 38.4434 58.2375 37.6498 58.2828C36.9469 58.3168 36.2554 58.3168 35.5525 58.2715C34.4755 58.3282 33.4098 58.2942 32.3328 58.2942C31.8907 58.2942 31.4372 58.2715 31.0744 57.9427H31.0631Z" fill="#8A8A8A"/>
<path d="M40.0647 44.4858C43.0349 44.4858 46.0052 44.4858 48.9755 44.4858V53.4533C45.9939 53.4533 43.0123 53.4533 40.0307 53.4533H40.0193C39.4525 52.6824 39.7246 51.7981 39.6792 50.9705C39.6452 50.3357 39.6452 49.7121 39.6906 49.0773C39.7246 47.6488 39.5545 46.2204 39.8039 44.8033C39.8606 44.6672 39.94 44.5652 40.0647 44.4972V44.4858Z" fill="#D77F3E"/>
<path d="M35.5183 57.9654C37.0034 57.9654 38.4999 57.9654 39.985 57.9541C39.9964 59.4506 40.019 60.9357 40.0304 62.4322C38.5339 62.4208 37.0261 62.3982 35.5296 62.3868C34.9854 60.913 34.9968 59.4506 35.5296 57.9768L35.5183 57.9654Z" fill="#CCCCCC"/>
<path d="M44.5086 22.2996C44.5086 23.728 44.5086 25.1565 44.4973 26.5849C43.0008 27.1404 41.5157 27.0951 40.0079 26.6189C39.407 25.6326 39.7585 24.5443 39.6678 23.5126C39.6338 23.1158 39.6678 22.7077 39.6904 22.3109C39.6338 19.7488 39.6678 17.1866 39.6678 14.6358C39.6678 14.1937 39.6904 13.7402 40.0192 13.3774C41.5043 12.8219 42.9781 12.8106 44.4633 13.3774C44.4859 16.3477 44.4973 19.3293 44.52 22.2996H44.5086Z" fill="#7EBC48"/>
<path d="M44.4634 13.3775C42.9782 13.3775 41.5044 13.3775 40.0193 13.3661C40.0193 11.8696 40.0193 10.3732 40.0193 8.87671C41.5158 8.87671 43.0009 8.87671 44.4974 8.87671C44.486 10.3732 44.4747 11.8696 44.452 13.3661L44.4634 13.3775Z" fill="#6A9941"/>
<path d="M4.40991 44.4972C7.38018 44.4972 10.3618 44.4972 13.332 44.4972C13.7288 44.8259 13.7175 45.2908 13.7175 45.7329C13.7402 47.8869 13.7402 50.0409 13.7175 52.1949C13.7175 52.6371 13.6948 53.0905 13.3661 53.4533H13.3547C10.3731 53.4533 7.39151 53.4533 4.40991 53.4533V44.4858V44.4972Z" fill="#D77F3E"/>
<path d="M13.4002 57.9541C14.8854 57.9541 16.3818 57.9541 17.867 57.9654C18.3885 59.4392 18.3998 60.913 17.867 62.3755C16.3705 62.3868 14.8627 62.4095 13.3662 62.4208C13.3775 60.9244 13.4002 59.4392 13.4116 57.9427L13.4002 57.9541Z" fill="#CCCCCC"/>
<path d="M35.5184 57.9654C35.5184 59.4392 35.5184 60.9017 35.5184 62.3755C34.0219 62.3868 32.5254 62.4095 31.0403 62.4208C31.0403 60.9243 31.0403 59.4279 31.0403 57.9314C32.5254 57.9314 34.0105 57.9541 35.507 57.9654H35.5184Z" fill="#F6F6F6"/>
<path d="M17.8556 62.3868C17.8556 60.913 17.8556 59.4506 17.8556 57.9768C19.3407 57.9768 20.8258 57.9541 22.3223 57.9427C22.3223 59.4392 22.3223 60.9357 22.3223 62.4322C20.8258 62.4208 19.3294 62.3981 17.8442 62.3868H17.8556Z" fill="#F6F6F6"/>
<path d="M13.366 53.4533C13.3547 50.4717 13.3434 47.4788 13.332 44.4972C13.3434 43.0007 13.3547 41.5043 13.366 40.0078V40.0191C14.0916 39.4636 14.9305 39.7017 15.7355 39.6677C16.4383 39.6337 17.1412 39.6337 17.8441 39.679C18.9551 39.6337 20.0775 39.6563 21.1885 39.6677C21.5966 39.6677 22.0048 39.6903 22.3562 39.9738C22.9684 41.4929 22.7303 43.0007 22.4809 44.4859C21.1091 45.1661 19.692 44.5879 18.479 44.996C18.1615 45.4608 18.2182 45.9256 18.2182 46.3678C18.2182 48.227 18.2182 50.0863 18.2182 51.9455C18.2182 52.4557 18.2749 52.9999 17.8781 53.4307C16.3817 53.4307 14.8852 53.4533 13.3887 53.4647L13.366 53.4533Z" fill="#8600A3"/>
<path d="M13.3548 8.86536V13.3661C11.8356 13.3661 10.3732 13.3661 8.92206 13.3661C8.91072 11.8696 8.88805 10.3845 8.87671 8.88803C10.3732 8.88803 11.8583 8.87669 13.3548 8.86536Z" fill="#A5DE74"/>
<path d="M40.0077 40.0192C40.0303 41.5157 40.0417 43.0008 40.0643 44.4973L39.9963 44.5653C39.6902 44.8261 39.3161 44.8601 38.942 44.8601C36.6746 44.8827 34.4186 44.8827 32.1512 44.8601C31.7771 44.8601 31.4143 44.8147 30.9155 44.4519C30.598 43.0802 30.4847 41.5837 30.9722 40.0646C31.539 39.5544 32.2306 39.7018 32.8881 39.6904C33.7384 39.6791 34.6 39.6451 35.4502 39.7131C36.9127 39.7698 38.3865 39.5091 39.8376 39.8945C39.8943 39.9399 39.9396 39.9852 39.9963 40.0419L40.0077 40.0192Z" fill="#8600A3"/>
<path d="M44.4972 35.5184C44.4972 37.0035 44.4972 38.4887 44.4972 39.9851C43.0008 39.9851 41.5156 40.0078 40.0192 40.0191H40.0305C39.441 38.5227 39.509 37.0262 39.9852 35.5184C41.493 34.9856 42.9894 34.9856 44.4972 35.5184Z" fill="#7EBC48"/>
<path d="M31.0291 22.2996V13.3888H35.5638C35.8019 13.6495 35.8812 13.9783 35.8812 14.3071C35.9153 16.7105 35.9266 19.1139 35.8812 21.5173C35.8812 21.7781 35.8132 22.0275 35.6772 22.2656C34.9516 22.9118 34.056 22.617 33.2397 22.6624C32.6162 22.6964 31.9814 22.7304 31.3692 22.5603C31.2331 22.5037 31.1197 22.4243 31.0404 22.2996H31.0291Z" fill="#6A9941"/>
<path d="M35.5413 22.2882C35.5413 19.318 35.5526 16.3477 35.5639 13.3774C37.0491 13.3774 38.5342 13.3774 40.0193 13.3774C40.0193 16.359 39.9967 19.352 39.9967 22.3336C38.5115 22.8551 37.0264 22.9231 35.5526 22.2882H35.5413Z" fill="#AA4A37"/>
<path d="M17.8442 17.8441V13.4454H22.3336V17.8441C22.3336 17.8441 22.2316 17.9348 22.1863 17.9802C20.7918 18.2863 19.3861 18.2863 17.9916 17.9802C17.9463 17.9348 17.8896 17.8895 17.8442 17.8328V17.8441Z" fill="#AA4A37"/>
<path d="M13.3434 22.2995V17.8441C14.8965 17.8441 16.3703 17.8441 17.8441 17.8441C18.4563 19.3066 18.2636 20.7917 17.9575 22.2768C16.563 22.9684 15.1006 22.6056 13.6608 22.5376C13.5248 22.4809 13.4114 22.4015 13.332 22.2882L13.3434 22.2995Z" fill="#AA4A37"/>
<path d="M8.86548 31.0403C8.87682 29.5665 8.89949 28.0814 8.91083 26.6076C10.3166 25.95 11.7791 26.2561 13.2302 26.4035C13.3662 26.4715 13.4683 26.5622 13.5363 26.6869C13.7517 28.1721 13.9898 29.6572 13.3889 31.1083C11.9038 31.5731 10.4186 31.6298 8.94484 31.0743L8.87682 31.0403H8.86548Z" fill="#AA4A37"/>
<path d="M22.3336 17.8441H26.5849V22.3222C26.5849 22.3222 26.4829 22.4129 26.4376 22.4582C25.0998 22.7757 23.7621 22.7303 22.4243 22.4809C22.2996 22.4129 22.2089 22.3109 22.1409 22.1861C21.9708 20.735 21.7101 19.2726 22.3223 17.8555L22.3336 17.8441Z" fill="#AA4A37"/>
<path d="M26.585 22.3224C28.0701 22.3224 29.5439 22.2997 31.0291 22.2997L31.0631 22.3677C31.6299 23.7962 31.5846 25.2246 31.0857 26.6644C29.5666 27.1972 28.0701 26.9478 26.4376 26.7664C26.2109 25.1793 25.9275 23.7508 26.5737 22.3337L26.585 22.3224Z" fill="#AA4A37"/>
<path d="M13.4116 26.5623C11.9152 26.5737 10.4074 26.585 8.91089 26.5963C8.91089 25.2359 8.91089 23.8755 8.91089 22.447C10.43 22.1636 11.8925 22.4244 13.3436 22.2883L13.4116 22.3337C13.8991 23.7395 13.8991 25.1566 13.4116 26.5623Z" fill="#6A9941"/>
<path d="M17.8443 39.9852C16.3478 39.9965 14.8627 40.0079 13.3662 40.0306C13.3662 38.5341 13.3662 37.0376 13.3662 35.5411C13.4116 35.4958 13.4682 35.4504 13.5136 35.4051C14.9194 35.1103 16.3251 35.133 17.7309 35.3824C17.8556 35.4504 17.9577 35.5525 18.0143 35.6772C18.1844 37.1283 18.4565 38.5794 17.8329 39.9965L17.8443 39.9852Z" fill="#141414"/>
<path d="M8.93356 31.0743C10.4187 31.0743 11.9038 31.0743 13.3776 31.0743C13.423 31.131 13.4683 31.1764 13.5137 31.2331C13.7517 32.6842 13.9671 34.1353 13.3549 35.5638C11.9152 35.5638 10.4754 35.5638 8.91089 35.5638V31.097L8.93356 31.0743Z" fill="#141414"/>
<path d="M44.4974 35.5183C43.0009 35.5183 41.5158 35.5183 40.0193 35.5297C39.974 35.473 39.9286 35.4276 39.8719 35.3709C39.6338 33.9085 39.4071 32.4347 40.0306 30.9949C41.5158 30.5868 43.0009 30.4507 44.4747 31.0629H44.4974C44.4974 32.5481 44.4974 34.0332 44.4974 35.5183Z" fill="#141414"/>
<path d="M44.4745 31.0629C43.0007 31.0629 41.5269 31.0856 40.0644 31.0969C40.0078 31.0516 39.9624 31.0062 39.9057 30.9609C39.5543 29.5551 39.611 28.138 39.8604 26.7322C39.9057 26.6755 39.9511 26.6302 39.9964 26.5735C41.4929 26.5735 43.0007 26.5735 44.4972 26.5848C44.4972 28.0813 44.4858 29.5664 44.4745 31.0629Z" fill="#AA4A37"/>
<path d="M31.0631 40.0645V44.5539C34.0787 44.5539 37.0376 44.5539 39.9966 44.5539C39.9966 46.0277 39.9966 47.5015 39.9852 48.9753C39.5204 49.4061 38.9422 49.2814 38.3981 49.3267C37.6271 49.3721 36.8449 49.202 36.0853 49.4968C35.5525 50.7779 36.3234 52.2177 35.5412 53.4307C29.646 53.4307 23.7508 53.4307 17.8669 53.4307C17.8669 50.5285 17.8669 47.6262 17.8669 44.5539H22.3337V40.0758C22.3337 40.0758 22.4244 39.9738 22.4697 39.9171C22.7305 39.7471 23.0252 39.7017 23.32 39.7017C25.8028 39.7357 28.2742 39.543 30.757 39.8038C30.893 39.8604 30.9951 39.9398 31.0744 40.0645H31.0631Z" fill="#C600F1"/>
<path d="M35.5299 53.4306V48.9752C37.1057 48.9752 38.5455 48.9752 39.974 48.9752C39.9853 50.4717 39.9966 51.9568 40.008 53.4533C38.5115 53.4533 37.015 53.4306 35.5186 53.4193L35.5299 53.4306Z" fill="#8600A3"/>
<path d="M31.029 26.5963C31.0404 25.1906 31.063 23.7735 31.0744 22.3677C32.5595 22.345 34.056 22.311 35.5411 22.2883C37.0262 22.2997 38.5114 22.3223 39.9852 22.3337C39.9852 23.7508 39.9852 25.1566 39.9852 26.5737H40.0192C39.4863 27.0272 38.8288 26.8798 38.2166 26.9138C37.5251 26.9478 36.8222 26.8344 36.0966 27.0725C35.5751 28.3422 36.1533 29.714 35.6885 30.9724C35.6091 31.0971 35.5071 31.1878 35.3711 31.2558C33.9313 31.5392 32.5028 31.4826 30.9497 31.2218C30.6436 29.6233 30.4395 28.1155 31.0177 26.5963H31.029Z" fill="black"/>
<path d="M17.8442 39.9852C17.8442 38.5 17.8442 37.0262 17.8442 35.5411C19.3294 34.8495 20.8372 35.1896 22.4584 35.371C22.7191 36.9922 22.9798 38.4887 22.345 39.9852L22.3223 40.0532C20.8258 40.0305 19.3407 40.0078 17.8442 39.9738V39.9852Z" fill="#AA4A37"/>
<path d="M35.541 39.9852C34.0445 40.0079 32.5594 40.0305 31.0629 40.0645L31.0402 39.9965C30.4054 38.5227 30.7115 37.0489 30.8702 35.4504C32.4914 35.1103 33.9992 34.9629 35.5183 35.4844C36.0965 36.9809 36.0852 38.4887 35.541 39.9965V39.9852Z" fill="#AA4A37"/>
<path d="M35.5413 39.9852V35.5412C35.5413 35.5412 35.6433 35.4391 35.7 35.3938C37.1511 35.133 38.6022 34.929 40.0193 35.5412C40.0193 37.0376 40.0193 38.5341 40.0307 40.0306C38.5342 40.0192 37.0377 40.0079 35.5413 39.9966V39.9852Z" fill="#141414"/>
<path d="M22.3223 17.8555C22.3223 19.3519 22.3223 20.8597 22.311 22.3562C20.8259 22.8437 19.3407 22.9344 17.8669 22.2882C17.8669 20.803 17.8669 19.3292 17.8669 17.8441C19.3521 17.8441 20.8485 17.8441 22.3337 17.8441L22.3223 17.8555Z" fill="#D77F3E"/>
<path d="M17.8555 22.2883C19.3406 22.311 20.8257 22.3337 22.2995 22.345V22.3223C22.6056 22.6398 22.6737 23.0366 22.6737 23.456C22.6963 25.6441 22.7077 27.8321 22.6737 30.0201C22.6737 30.3942 22.617 30.757 22.2088 31.2331C20.8824 31.4939 19.4086 31.6073 17.9122 31.1765C17.436 30.7457 17.5267 30.1675 17.4927 29.6233C17.436 28.8184 17.6061 27.9908 17.3226 27.1405C16.6764 26.7891 15.9622 26.9818 15.282 26.9251C14.6245 26.8798 13.9329 27.0498 13.3547 26.585L13.4001 26.5623C13.4001 25.1566 13.4001 23.7395 13.4001 22.3337C14.8852 22.3223 16.3703 22.2997 17.8441 22.2883H17.8555Z" fill="black"/>
<path d="M13.3661 26.5849H17.8328V31.0403C17.8328 31.0403 17.7308 31.1424 17.6854 31.1877C16.2343 31.4598 14.7832 31.6639 13.3661 31.0403C13.3661 29.5439 13.3661 28.0587 13.3547 26.5623L13.3661 26.5849Z" fill="#FEFEFE"/>
<path d="M17.8329 31.0402H22.2996C22.2996 28.1153 22.2996 25.2244 22.2996 22.3335C23.7281 22.3335 25.1565 22.3335 26.5737 22.3335C26.5737 23.7053 26.5737 25.0657 26.5737 26.5962C28.1381 26.5962 29.5779 26.5962 31.0177 26.5962C31.0177 28.036 31.0177 29.4757 31.0177 31.0176H35.4958C36.142 32.5254 36.074 34.0332 35.5298 35.5523H31.0291C31.0291 37.1168 31.0291 38.5566 31.0291 39.9964C28.1268 39.9964 25.2246 39.9964 22.3223 39.9964C22.3223 38.5793 22.3223 37.1622 22.3223 35.5523C20.7692 35.5523 19.2954 35.5523 17.8216 35.5523C17.2661 34.0558 17.2774 32.548 17.8216 31.0516L17.8329 31.0402Z" fill="#D77F3E"/>
<path d="M17.8328 31.0516C17.8328 32.5481 17.8328 34.0559 17.8328 35.5524C16.3363 35.5524 14.8512 35.5524 13.3547 35.5524C13.3547 34.0559 13.3547 32.5594 13.3547 31.0516C14.8399 31.0516 16.3363 31.0516 17.8215 31.0516H17.8328Z" fill="#AA4A37"/>
<path d="M35.5411 35.5524C35.5298 34.0445 35.5184 32.5367 35.5071 31.0176H35.5298C37.0149 30.5301 38.5 30.5074 39.9852 31.0176L40.0532 31.0856C40.0418 32.5708 40.0305 34.0445 40.0192 35.5297C38.5227 35.5297 37.0376 35.5297 35.5411 35.5297V35.5524Z" fill="#AA4A37"/>
<path d="M39.9852 31.0403C38.5001 31.0403 37.0149 31.0403 35.5298 31.0403C35.5298 29.6005 35.5298 28.1493 35.5298 26.5962H40.0192C40.0192 28.0813 39.9965 29.5665 39.9852 31.0516V31.0403Z" fill="#FEFEFE"/>
</g>
<defs>
<clipPath id="clip0_323_50648">
<rect width="53.3854" height="66.831" fill="white"/>
</clipPath>
</defs>
</svg>
