<svg width="60" height="60" fill="none" xmlns="http://www.w3.org/2000/svg"><path d="M57.067 2.882H2.899V57.05h54.168V2.882z" fill="url(#paint0_linear_323_58480)"/><path d="M2.895 2.937h54.168V0H2.895v2.937zm0 56.913h54.168v-2.938H2.895v2.937zm54.168-2.665H60V2.937h-2.937v54.248z" fill="#3B2027"/><path d="M0 57.05h2.937V2.803H0V57.05z" fill="#3B2027"/><path d="M54.13 2.937H5.874v2.937H54.13V2.937zm2.937 2.937H54.13v2.937h2.937V5.874zm-51.193 0H2.937v2.937h2.937V5.874z" fill="#FFEE83"/><path d="M5.874 56.912H54.13v-2.937H5.874v2.937zm-2.937-2.937h2.937v-2.937H2.937v2.937zm51.189 0h2.937v-2.937h-2.937v2.937z" fill="#CF752B"/><path d="M33.088 44.766h-2.966v2.967h2.966v-2.967zm-2.971 0h-2.966v2.967h2.966v-2.967zm5.938-2.967h-2.967v2.966h2.967V41.8z" fill="#3B2027"/><path d="M33.088 41.799h-2.966v2.966h2.966V41.8zm-2.97 0H27.15v2.966h2.967V41.8z" fill="#F5FFE8"/><path d="M27.151 41.799h-2.966v2.966h2.966V41.8zm8.904-2.971h-2.967v2.967h2.967v-2.967z" fill="#3B2027"/><path d="M33.088 38.828h-2.966v2.967h2.966v-2.967zm-2.97 0H27.15v2.967h2.967v-2.967z" fill="#F5FFE8"/><path d="M27.151 38.828h-2.966v2.967h2.966v-2.967zm8.904-2.967h-2.967v2.967h2.967V35.86z" fill="#3B2027"/><path d="M33.088 35.861h-2.966v2.967h2.966V35.86zm-2.97 0H27.15v2.967h2.967V35.86z" fill="#F5FFE8"/><path d="M27.151 35.861h-2.966v2.967h2.966V35.86zm17.807-2.966h-2.966v2.966h2.966v-2.966zm-2.966 0h-2.967v2.966h2.967v-2.966zm-2.971 0h-2.966v2.966h2.966v-2.966zm-2.966 0h-2.967v2.966h2.967v-2.966z" fill="#3B2027"/><path d="M33.088 32.895h-2.966v2.966h2.966v-2.966zm-2.97 0H27.15v2.966h2.967v-2.966z" fill="#F5FFE8"/><path d="M27.151 32.895h-2.966v2.966h2.966v-2.966zm-2.966 0h-2.967v2.966h2.967v-2.966zm-2.971 0h-2.966v2.966h2.966v-2.966z" fill="#3B2027"/><path d="M18.248 32.895H15.28v2.966h2.967v-2.966zm29.676-2.971h-2.966v2.967h2.966v-2.967z" fill="#3B2027"/><path d="M44.958 29.924h-2.966v2.967h2.966v-2.967zm-2.966 0h-2.967v2.967h2.967v-2.967zm-2.971 0h-2.966v2.967h2.966v-2.967zm-2.966 0h-2.967v2.967h2.967v-2.967zm-2.967 0h-2.966v2.967h2.966v-2.967zm-2.97 0H27.15v2.967h2.967v-2.967z" fill="#F5FFE8"/><path d="M27.151 29.924h-2.966v2.967h2.966v-2.967zm-2.966 0h-2.967v2.967h2.967v-2.967zm-2.971 0h-2.966v2.967h2.966v-2.967z" fill="#F5FFE8"/><path d="M18.248 29.924H15.28v2.967h2.967v-2.967z" fill="#F5FFE8"/><path d="M15.281 29.924h-2.966v2.967h2.966v-2.967zm32.643-2.966h-2.966v2.966h2.966v-2.966z" fill="#3B2027"/><path d="M44.958 26.958h-2.966v2.966h2.966v-2.966zm-2.966 0h-2.967v2.966h2.967v-2.966zm-2.971 0h-2.966v2.966h2.966v-2.966zm-2.966 0h-2.967v2.966h2.967v-2.966zm-2.967 0h-2.966v2.966h2.966v-2.966zm-2.97 0H27.15v2.966h2.967v-2.966z" fill="#F5FFE8"/><path d="M27.151 26.958h-2.966v2.966h2.966v-2.966zm-2.966 0h-2.967v2.966h2.967v-2.966zm-2.971 0h-2.966v2.966h2.966v-2.966z" fill="#F5FFE8"/><path d="M18.248 26.958H15.28v2.966h2.967v-2.966z" fill="#F5FFE8"/><path d="M15.281 26.958h-2.966v2.966h2.966v-2.966zm29.677-2.966h-2.966v2.966h2.966v-2.966zm-2.966 0h-2.967v2.966h2.967v-2.966zm-2.971 0h-2.966v2.966h2.966v-2.966zm-2.966 0h-2.967v2.966h2.967v-2.966z" fill="#3B2027"/><path d="M33.088 23.992h-2.966v2.966h2.966v-2.966zm-2.97 0H27.15v2.966h2.967v-2.966z" fill="#F5FFE8"/><path d="M27.151 23.992h-2.966v2.966h2.966v-2.966zm-2.966 0h-2.967v2.966h2.967v-2.966zm-2.971 0h-2.966v2.966h2.966v-2.966z" fill="#3B2027"/><path d="M18.248 23.992H15.28v2.966h2.967v-2.966zm17.807-2.971h-2.967v2.966h2.967v-2.966z" fill="#3B2027"/><path d="M33.088 21.021h-2.966v2.966h2.966v-2.966zm-2.97 0H27.15v2.966h2.967v-2.966z" fill="#F5FFE8"/><path d="M27.151 21.021h-2.966v2.966h2.966v-2.966zm8.904-2.966h-2.967v2.966h2.967v-2.966z" fill="#3B2027"/><path d="M33.088 18.055h-2.966v2.966h2.966v-2.966zm-2.97 0H27.15v2.966h2.967v-2.966z" fill="#F5FFE8"/><path d="M27.151 18.055h-2.966v2.966h2.966v-2.966zm8.904-2.967h-2.967v2.966h2.967v-2.966z" fill="#3B2027"/><path d="M33.088 15.088h-2.966v2.966h2.966v-2.966zm-2.97 0H27.15v2.966h2.967v-2.966z" fill="#F5FFE8"/><path d="M27.151 15.088h-2.966v2.966h2.966v-2.966zm5.937-2.97h-2.966v2.966h2.966v-2.966zm-2.97 0H27.15v2.966h2.967v-2.966z" fill="#3B2027"/><defs><linearGradient id="paint0_linear_323_58480" x1="2.899" y1="29.966" x2="57.067" y2="29.966" gradientUnits="userSpaceOnUse"><stop stop-color="#F0B541"/><stop offset="1" stop-color="#DFA22B"/></linearGradient></defs></svg>