<svg id="Camada_1" data-name="Camada 1" xmlns="http://www.w3.org/2000/svg" viewBox="0 0 466 138"><defs><style>.cls-1{fill:#ffee83}.cls-1,.cls-2,.cls-3,.cls-4{stroke-width:0}.cls-2{fill:#3b2027}.cls-3{fill:#cf752b}.cls-4{fill:#f0b541}</style></defs><path class="cls-2" d="M373.92 131.58h5.58v5.58h-5.58zm0-5.58h5.58v5.58h-5.58zm0-5.58h5.58V126h-5.58zm0-5.58h5.58v5.58h-5.58zm0-5.58h5.58v5.58h-5.58zm0-5.58h5.58v5.58h-5.58zm0-5.58h5.58v5.58h-5.58zm0-5.58h5.58v5.58h-5.58zm0-5.59h5.58v5.58h-5.58zm0-5.58h5.58v5.58h-5.58zm-5.58 50.23h5.58v5.58h-5.58z"/><path class="cls-3" d="M368.34 126h5.58v5.58h-5.58z"/><path class="cls-4" d="M368.34 120.42h5.58V126h-5.58zm0-5.58h5.58v5.58h-5.58z"/><path class="cls-2" d="M368.34 109.26h5.58v5.58h-5.58z"/><path class="cls-3" d="M368.34 103.68h5.58v5.58h-5.58z"/><path class="cls-4" d="M368.34 98.1h5.58v5.58h-5.58zm0-5.58h5.58v5.58h-5.58zm0-5.59h5.58v5.58h-5.58z"/><path class="cls-2" d="M368.34 81.35h5.58v5.58h-5.58zm0-5.58h5.58v5.58h-5.58zm-5.58 55.81h5.58v5.58h-5.58z"/><path class="cls-3" d="M362.76 126h5.58v5.58h-5.58z"/><path class="cls-4" d="M362.76 120.42h5.58V126h-5.58zm0-5.58h5.58v5.58h-5.58zm0-5.58h5.58v5.58h-5.58zm0-5.58h5.58v5.58h-5.58zm0-5.58h5.58v5.58h-5.58zm0-5.58h5.58v5.58h-5.58zm0-5.59h5.58v5.58h-5.58zm0-5.58h5.58v5.58h-5.58z"/><path class="cls-2" d="M362.76 75.77h5.58v5.58h-5.58zm-5.58 55.81h5.58v5.58h-5.58zm0-5.58h5.58v5.58h-5.58zm0-5.58h5.58V126h-5.58z"/><path class="cls-3" d="M357.18 114.84h5.58v5.58h-5.58z"/><path class="cls-4" d="M357.18 109.26h5.58v5.58h-5.58zm0-5.58h5.58v5.58h-5.58z"/><path class="cls-2" d="M357.18 98.1h5.58v5.58h-5.58z"/><path class="cls-3" d="M357.18 92.52h5.58v5.58h-5.58z"/><path class="cls-4" d="M357.18 86.93h5.58v5.58h-5.58zm0-5.58h5.58v5.58h-5.58z"/><path class="cls-2" d="M357.18 75.77h5.58v5.58h-5.58zm-5.58 55.81h5.58v5.58h-5.58zm0-5.58h5.58v5.58h-5.58zm0-5.58h5.58V126h-5.58zm0-5.58h5.58v5.58h-5.58z"/><path class="cls-3" d="M351.6 109.26h5.58v5.58h-5.58z"/><path class="cls-4" d="M351.6 103.68h5.58v5.58h-5.58z"/><path class="cls-2" d="M351.6 98.1h5.58v5.58h-5.58zm0-5.58h5.58v5.58h-5.58z"/><path class="cls-3" d="M351.6 86.93h5.58v5.58h-5.58z"/><path class="cls-4" d="M351.6 81.35h5.58v5.58h-5.58z"/><path class="cls-2" d="M351.6 75.77h5.58v5.58h-5.58zm-5.58 55.81h5.58v5.58h-5.58z"/><path class="cls-3" d="M346.02 126h5.58v5.58h-5.58z"/><path class="cls-4" d="M346.02 120.42h5.58V126h-5.58zm0-5.58h5.58v5.58h-5.58zm0-5.58h5.58v5.58h-5.58zm0-5.58h5.58v5.58h-5.58zm0-5.58h5.58v5.58h-5.58zm0-5.58h5.58v5.58h-5.58zm0-5.59h5.58v5.58h-5.58zm0-5.58h5.58v5.58h-5.58z"/><path class="cls-2" d="M346.02 75.77h5.58v5.58h-5.58zm-5.58 55.81h5.58v5.58h-5.58z"/><path class="cls-3" d="M340.44 126h5.58v5.58h-5.58z"/><path class="cls-4" d="M340.44 120.42h5.58V126h-5.58zm0-5.58h5.58v5.58h-5.58zm0-5.58h5.58v5.58h-5.58zm0-5.58h5.58v5.58h-5.58zm0-5.58h5.58v5.58h-5.58zm0-5.58h5.58v5.58h-5.58z"/><path class="cls-1" d="M340.44 86.93h5.58v5.58h-5.58zm0-5.58h5.58v5.58h-5.58z"/><path class="cls-2" d="M340.44 75.77h5.58v5.58h-5.58zm-5.58 55.81h5.58v5.58h-5.58z"/><path class="cls-3" d="M334.86 126h5.58v5.58h-5.58z"/><path class="cls-4" d="M334.86 120.42h5.58V126h-5.58zm0-5.58h5.58v5.58h-5.58zm0-5.58h5.58v5.58h-5.58zm0-5.58h5.58v5.58h-5.58zm0-5.58h5.58v5.58h-5.58zm0-5.58h5.58v5.58h-5.58z"/><path class="cls-1" d="M334.86 86.93h5.58v5.58h-5.58zm0-5.58h5.58v5.58h-5.58z"/><path class="cls-2" d="M334.86 75.77h5.58v5.58h-5.58zm-5.58 55.81h5.58v5.58h-5.58zm0-5.58h5.58v5.58h-5.58zm0-5.58h5.58V126h-5.58zm0-5.58h5.58v5.58h-5.58zm0-5.58h5.58v5.58h-5.58zm0-5.58h5.58v5.58h-5.58zm0-5.58h5.58v5.58h-5.58zm0-5.58h5.58v5.58h-5.58zm0-5.59h5.58v5.58h-5.58zm0-5.58h5.58v5.58h-5.58zm0-5.58h5.58v5.58h-5.58zm-89.29 55.81h5.58v5.58h-5.58zm0-5.58h5.58v5.58h-5.58zm0-5.58h5.58V126h-5.58zm0-5.58h5.58v5.58h-5.58zm0-5.58h5.58v5.58h-5.58zm0-5.58h5.58v5.58h-5.58zm0-5.58h5.58v5.58h-5.58zm0-5.58h5.58v5.58h-5.58zm0-5.59h5.58v5.58h-5.58zm0-5.58h5.58v5.58h-5.58zm0-5.58h5.58v5.58h-5.58zm-5.58 55.81h5.58v5.58h-5.58z"/><path class="cls-3" d="M234.41 126h5.58v5.58h-5.58z"/><path class="cls-4" d="M234.41 120.42h5.58V126h-5.58zm0-5.58h5.58v5.58h-5.58zm0-5.58h5.58v5.58h-5.58zm0-5.58h5.58v5.58h-5.58zm0-5.58h5.58v5.58h-5.58zm0-5.58h5.58v5.58h-5.58zm0-5.59h5.58v5.58h-5.58zm0-5.58h5.58v5.58h-5.58z"/><path class="cls-2" d="M234.41 75.77h5.58v5.58h-5.58zm-5.58 55.81h5.58v5.58h-5.58z"/><path class="cls-3" d="M228.83 126h5.58v5.58h-5.58z"/><path class="cls-4" d="M228.83 120.42h5.58V126h-5.58zm0-5.58h5.58v5.58h-5.58zm0-5.58h5.58v5.58h-5.58zm0-5.58h5.58v5.58h-5.58zm0-5.58h5.58v5.58h-5.58zm0-5.58h5.58v5.58h-5.58zm0-5.59h5.58v5.58h-5.58zm0-5.58h5.58v5.58h-5.58z"/><path class="cls-2" d="M228.83 75.77h5.58v5.58h-5.58zm-5.58 55.81h5.58v5.58h-5.58z"/><path class="cls-3" d="M223.25 126h5.58v5.58h-5.58z"/><path class="cls-4" d="M223.25 120.42h5.58V126h-5.58zm0-5.58h5.58v5.58h-5.58zm0-5.58h5.58v5.58h-5.58zm0-5.58h5.58v5.58h-5.58zm0-5.58h5.58v5.58h-5.58zm0-5.58h5.58v5.58h-5.58zm0-5.59h5.58v5.58h-5.58zm0-5.58h5.58v5.58h-5.58z"/><path class="cls-2" d="M223.25 75.77h5.58v5.58h-5.58zm-5.58 55.81h5.58v5.58h-5.58zm0-5.58h5.58v5.58h-5.58zm0-5.58h5.58V126h-5.58z"/><path class="cls-3" d="M217.67 114.84h5.58v5.58h-5.58z"/><path class="cls-4" d="M217.67 109.26h5.58v5.58h-5.58zm0-5.58h5.58v5.58h-5.58zm0-5.58h5.58v5.58h-5.58z"/><path class="cls-2" d="M217.67 92.52h5.58v5.58h-5.58zm0-5.59h5.58v5.58h-5.58zm0-5.58h5.58v5.58h-5.58zm0-5.58h5.58v5.58h-5.58zm-5.58 55.81h5.58v5.58h-5.58zm0-5.58h5.58v5.58h-5.58zm0-5.58h5.58V126h-5.58zm0-5.58h5.58v5.58h-5.58z"/><path class="cls-3" d="M212.09 109.26h5.58v5.58h-5.58z"/><path class="cls-4" d="M212.09 103.68h5.58v5.58h-5.58zm0-5.58h5.58v5.58h-5.58zm0-5.58h5.58v5.58h-5.58z"/><path class="cls-2" d="M212.09 86.93h5.58v5.58h-5.58zm0-5.58h5.58v5.58h-5.58zm0-5.58h5.58v5.58h-5.58zm-5.58 55.81h5.58v5.58h-5.58z"/><path class="cls-3" d="M206.51 126h5.58v5.58h-5.58z"/><path class="cls-4" d="M206.51 120.42h5.58V126h-5.58zm0-5.58h5.58v5.58h-5.58zm0-5.58h5.58v5.58h-5.58zm0-5.58h5.58v5.58h-5.58zm0-5.58h5.58v5.58h-5.58zm0-5.58h5.58v5.58h-5.58zm0-5.59h5.58v5.58h-5.58zm0-5.58h5.58v5.58h-5.58z"/><path class="cls-2" d="M206.51 75.77h5.58v5.58h-5.58zm-5.58 55.81h5.58v5.58h-5.58z"/><path class="cls-3" d="M200.93 126h5.58v5.58h-5.58z"/><path class="cls-4" d="M200.93 120.42h5.58V126h-5.58zm0-5.58h5.58v5.58h-5.58zm0-5.58h5.58v5.58h-5.58zm0-5.58h5.58v5.58h-5.58zm0-5.58h5.58v5.58h-5.58zm0-5.58h5.58v5.58h-5.58z"/><path class="cls-1" d="M200.93 86.93h5.58v5.58h-5.58zm0-5.58h5.58v5.58h-5.58z"/><path class="cls-2" d="M200.93 75.77h5.58v5.58h-5.58zm-5.59 55.81h5.58v5.58h-5.58z"/><path class="cls-3" d="M195.34 126h5.58v5.58h-5.58z"/><path class="cls-4" d="M195.34 120.42h5.58V126h-5.58zm0-5.58h5.58v5.58h-5.58zm0-5.58h5.58v5.58h-5.58zm0-5.58h5.58v5.58h-5.58zm0-5.58h5.58v5.58h-5.58zm0-5.58h5.58v5.58h-5.58z"/><path class="cls-1" d="M195.34 86.93h5.58v5.58h-5.58zm0-5.58h5.58v5.58h-5.58z"/><path class="cls-2" d="M195.34 75.77h5.58v5.58h-5.58zm-5.58 55.81h5.58v5.58h-5.58zm0-5.58h5.58v5.58h-5.58zm0-5.58h5.58V126h-5.58zm0-5.58h5.58v5.58h-5.58zm0-5.58h5.58v5.58h-5.58zm0-5.58h5.58v5.58h-5.58zm0-5.58h5.58v5.58h-5.58zm0-5.58h5.58v5.58h-5.58zm0-5.59h5.58v5.58h-5.58zm0-5.58h5.58v5.58h-5.58zm0-5.58h5.58v5.58h-5.58zm72.47-59.03h5.58v5.58h-5.58z"/><path class="cls-2" d="M262.23 11.16h5.58v5.58h-5.58zm0-5.58h5.58v5.58h-5.58zm0-5.58h5.58v5.58h-5.58zm-5.58 16.74h5.58v5.58h-5.58z"/><path class="cls-3" d="M256.65 11.16h5.58v5.58h-5.58z"/><path class="cls-4" d="M256.65 5.58h5.58v5.58h-5.58z"/><path class="cls-2" d="M256.65 0h5.58v5.58h-5.58zm-5.58 55.81h5.58v5.58h-5.58zm0-5.58h5.58v5.58h-5.58zm0-5.58h5.58v5.58h-5.58zm0-5.58h5.58v5.58h-5.58zm0-5.58h5.58v5.58h-5.58zm0-5.58h5.58v5.58h-5.58zm0-5.59h5.58v5.58h-5.58zm0-5.58h5.58v5.58h-5.58z"/><path class="cls-3" d="M251.07 11.16h5.58v5.58h-5.58z"/><path class="cls-4" d="M251.07 5.58h5.58v5.58h-5.58z"/><path class="cls-2" d="M251.07 0h5.58v5.58h-5.58zm-5.58 55.81h5.58v5.58h-5.58z"/><path class="cls-3" d="M245.49 50.23h5.58v5.58h-5.58z"/><path class="cls-4" d="M245.49 44.65h5.58v5.58h-5.58zm0-5.58h5.58v5.58h-5.58zm0-5.58h5.58v5.58h-5.58zm0-5.58h5.58v5.58h-5.58zm0-5.59h5.58v5.58h-5.58zm0-5.58h5.58v5.58h-5.58zm0-5.58h5.58v5.58h-5.58zm0-5.58h5.58v5.58h-5.58z"/><path class="cls-2" d="M245.49 0h5.58v5.58h-5.58zm-5.58 55.81h5.58v5.58h-5.58z"/><path class="cls-3" d="M239.91 50.23h5.58v5.58h-5.58z"/><path class="cls-4" d="M239.91 44.65h5.58v5.58h-5.58zm0-5.58h5.58v5.58h-5.58zm0-5.58h5.58v5.58h-5.58zm0-5.58h5.58v5.58h-5.58zm0-5.59h5.58v5.58h-5.58zm0-5.58h5.58v5.58h-5.58zm0-5.58h5.58v5.58h-5.58zm0-5.58h5.58v5.58h-5.58z"/><path class="cls-2" d="M239.91 0h5.58v5.58h-5.58zm-5.58 55.81h5.58v5.58h-5.58z"/><path class="cls-3" d="M234.33 50.23h5.58v5.58h-5.58z"/><path class="cls-4" d="M234.33 44.65h5.58v5.58h-5.58zm0-5.58h5.58v5.58h-5.58zm0-5.58h5.58v5.58h-5.58zm0-5.58h5.58v5.58h-5.58zm0-5.59h5.58v5.58h-5.58zm0-5.58h5.58v5.58h-5.58zm0-5.58h5.58v5.58h-5.58zm0-5.58h5.58v5.58h-5.58z"/><path class="cls-2" d="M234.33 0h5.58v5.58h-5.58zm-5.58 55.81h5.58v5.58h-5.58zm0-5.58h5.58v5.58h-5.58zm0-5.58h5.58v5.58h-5.58zm0-5.58h5.58v5.58h-5.58zm0-5.58h5.58v5.58h-5.58zm0-5.58h5.58v5.58h-5.58zm0-5.59h5.58v5.58h-5.58zm0-5.58h5.58v5.58h-5.58z"/><path class="cls-3" d="M228.75 11.16h5.58v5.58h-5.58z"/><path class="cls-1" d="M228.75 5.58h5.58v5.58h-5.58z"/><path class="cls-2" d="M228.75 0h5.58v5.58h-5.58zm-5.58 16.74h5.58v5.58h-5.58z"/><path class="cls-3" d="M223.17 11.16h5.58v5.58h-5.58z"/><path class="cls-1" d="M223.17 5.58h5.58v5.58h-5.58z"/><path class="cls-2" d="M223.17 0h5.58v5.58h-5.58zm-5.58 16.74h5.58v5.58h-5.58z"/><path class="cls-2" d="M217.59 11.16h5.58v5.58h-5.58zm0-5.58h5.58v5.58h-5.58zm0-5.58h5.58v5.58h-5.58zm67.04 92.52h5.58v5.58h-5.58zm0-5.59h5.58v5.58h-5.58zm0-5.58h5.58v5.58h-5.58zm0-5.58h5.58v5.58h-5.58zm-5.58 16.75h5.58v5.58h-5.58z"/><path class="cls-3" d="M279.05 86.93h5.58v5.58h-5.58z"/><path class="cls-4" d="M279.05 81.35h5.58v5.58h-5.58z"/><path class="cls-2" d="M279.05 75.77h5.58v5.58h-5.58zm-5.58 55.81h5.58v5.58h-5.58zm0-5.58h5.58v5.58h-5.58zm0-5.58h5.58V126h-5.58zm0-5.58h5.58v5.58h-5.58zm0-5.58h5.58v5.58h-5.58zm0-5.58h5.58v5.58h-5.58zm0-5.58h5.58v5.58h-5.58zm0-5.58h5.58v5.58h-5.58z"/><path class="cls-3" d="M273.47 86.93h5.58v5.58h-5.58z"/><path class="cls-4" d="M273.47 81.35h5.58v5.58h-5.58z"/><path class="cls-2" d="M273.47 75.77h5.58v5.58h-5.58zm-5.58 55.81h5.58v5.58h-5.58z"/><path class="cls-3" d="M267.89 126h5.58v5.58h-5.58z"/><path class="cls-4" d="M267.89 120.42h5.58V126h-5.58zm0-5.58h5.58v5.58h-5.58zm0-5.58h5.58v5.58h-5.58zm0-5.58h5.58v5.58h-5.58zm0-5.58h5.58v5.58h-5.58zm0-5.58h5.58v5.58h-5.58zm0-5.59h5.58v5.58h-5.58zm0-5.58h5.58v5.58h-5.58z"/><path class="cls-2" d="M267.89 75.77h5.58v5.58h-5.58zm-5.58 55.81h5.58v5.58h-5.58z"/><path class="cls-3" d="M262.31 126h5.58v5.58h-5.58z"/><path class="cls-4" d="M262.31 120.42h5.58V126h-5.58zm0-5.58h5.58v5.58h-5.58zm0-5.58h5.58v5.58h-5.58zm0-5.58h5.58v5.58h-5.58zm0-5.58h5.58v5.58h-5.58zm0-5.58h5.58v5.58h-5.58zm0-5.59h5.58v5.58h-5.58zm0-5.58h5.58v5.58h-5.58z"/><path class="cls-2" d="M262.31 75.77h5.58v5.58h-5.58zm-5.58 55.81h5.58v5.58h-5.58z"/><path class="cls-3" d="M256.73 126h5.58v5.58h-5.58z"/><path class="cls-4" d="M256.73 120.42h5.58V126h-5.58zm0-5.58h5.58v5.58h-5.58zm0-5.58h5.58v5.58h-5.58zm0-5.58h5.58v5.58h-5.58zm0-5.58h5.58v5.58h-5.58zm0-5.58h5.58v5.58h-5.58zm0-5.59h5.58v5.58h-5.58zm0-5.58h5.58v5.58h-5.58z"/><path class="cls-2" d="M256.73 75.77h5.58v5.58h-5.58zm-5.58 55.81h5.58v5.58h-5.58zm0-5.58h5.58v5.58h-5.58zm0-5.58h5.58V126h-5.58zm0-5.58h5.58v5.58h-5.58zm0-5.58h5.58v5.58h-5.58zm0-5.58h5.58v5.58h-5.58zm0-5.58h5.58v5.58h-5.58zm0-5.58h5.58v5.58h-5.58z"/><path class="cls-3" d="M251.15 86.93h5.58v5.58h-5.58z"/><path class="cls-1" d="M251.15 81.35h5.58v5.58h-5.58z"/><path class="cls-2" d="M251.15 75.77h5.58v5.58h-5.58zm-5.58 16.75h5.58v5.58h-5.58z"/><path class="cls-3" d="M245.57 86.93h5.58v5.58h-5.58z"/><path class="cls-1" d="M245.57 81.35h5.58v5.58h-5.58z"/><path class="cls-2" d="M245.57 75.77h5.58v5.58h-5.58zm-5.58 16.75h5.58v5.58h-5.58zm0-5.59h5.58v5.58h-5.58zm0-5.58h5.58v5.58h-5.58z"/><path class="cls-2" d="M239.99 75.77h5.58v5.58h-5.58zM460.42 126H466v5.58h-5.58zm0-5.58H466V126h-5.58zm0-5.58H466v5.58h-5.58zm0-5.58H466v5.58h-5.58zm0-5.58H466v5.58h-5.58zm0-5.58H466v5.58h-5.58zm0-5.58H466v5.58h-5.58zm0-5.59H466v5.58h-5.58zm0-5.58H466v5.58h-5.58zm-5.58 50.23h5.58v5.58h-5.58zm0-5.58h5.58v5.58h-5.58z"/><path class="cls-3" d="M454.84 120.42h5.58V126h-5.58z"/><path class="cls-4" d="M454.84 114.84h5.58v5.58h-5.58zm0-5.58h5.58v5.58h-5.58z"/><path class="cls-2" d="M454.84 103.68h5.58v5.58h-5.58zm0-5.58h5.58v5.58h-5.58z"/><path class="cls-3" d="M454.84 92.52h5.58v5.58h-5.58z"/><path class="cls-4" d="M454.84 86.93h5.58v5.58h-5.58z"/><path class="cls-2" d="M454.84 81.35h5.58v5.58h-5.58zm0-5.58h5.58v5.58h-5.58zm-5.58 55.81h5.58v5.58h-5.58z"/><path class="cls-3" d="M449.26 126h5.58v5.58h-5.58z"/><path class="cls-4" d="M449.26 120.42h5.58V126h-5.58zm0-5.58h5.58v5.58h-5.58zm0-5.58h5.58v5.58h-5.58zm0-5.58h5.58v5.58h-5.58z"/><path class="cls-2" d="M449.26 98.1h5.58v5.58h-5.58z"/><path class="cls-3" d="M449.26 92.52h5.58v5.58h-5.58z"/><path class="cls-4" d="M449.26 86.93h5.58v5.58h-5.58zm0-5.58h5.58v5.58h-5.58z"/><path class="cls-2" d="M449.26 75.77h5.58v5.58h-5.58zm-5.58 55.81h5.58v5.58h-5.58z"/><path class="cls-3" d="M443.68 126h5.58v5.58h-5.58z"/><path class="cls-4" d="M443.68 120.42h5.58V126h-5.58zm0-5.58h5.58v5.58h-5.58zm0-5.58h5.58v5.58h-5.58zm0-5.58h5.58v5.58h-5.58z"/><path class="cls-2" d="M443.68 98.1h5.58v5.58h-5.58zm0-5.58h5.58v5.58h-5.58z"/><path class="cls-3" d="M443.68 86.93h5.58v5.58h-5.58z"/><path class="cls-4" d="M443.68 81.35h5.58v5.58h-5.58z"/><path class="cls-2" d="M443.68 75.77h5.58v5.58h-5.58zm-5.58 55.81h5.58v5.58h-5.58z"/><path class="cls-3" d="M438.1 126h5.58v5.58h-5.58z"/><path class="cls-4" d="M438.1 120.42h5.58V126h-5.58z"/><path class="cls-2" d="M438.1 114.84h5.58v5.58h-5.58z"/><path class="cls-3" d="M438.1 109.26h5.58v5.58h-5.58z"/><path class="cls-4" d="M438.1 103.68h5.58v5.58h-5.58zm0-5.58h5.58v5.58h-5.58z"/><path class="cls-2" d="M438.1 92.52h5.58v5.58h-5.58z"/><path class="cls-3" d="M438.1 86.93h5.58v5.58h-5.58z"/><path class="cls-4" d="M438.1 81.35h5.58v5.58h-5.58z"/><path class="cls-2" d="M438.1 75.77h5.58v5.58h-5.58zm-5.58 55.81h5.58v5.58h-5.58z"/><path class="cls-3" d="M432.52 126h5.58v5.58h-5.58z"/><path class="cls-4" d="M432.52 120.42h5.58V126h-5.58z"/><path class="cls-2" d="M432.52 114.84h5.58v5.58h-5.58zm0-5.58h5.58v5.58h-5.58z"/><path class="cls-3" d="M432.52 103.68h5.58v5.58h-5.58z"/><path class="cls-4" d="M432.52 98.1h5.58v5.58h-5.58zm0-5.58h5.58v5.58h-5.58zm0-5.59h5.58v5.58h-5.58zm0-5.58h5.58v5.58h-5.58z"/><path class="cls-2" d="M432.52 75.77h5.58v5.58h-5.58zm-5.58 55.81h5.58v5.58h-5.58z"/><path class="cls-3" d="M426.94 126h5.58v5.58h-5.58z"/><path class="cls-4" d="M426.94 120.42h5.58V126h-5.58zm0-5.58h5.58v5.58h-5.58z"/><path class="cls-2" d="M426.94 109.26h5.58v5.58h-5.58z"/><path class="cls-3" d="M426.94 103.68h5.58v5.58h-5.58z"/><path class="cls-4" d="M426.94 98.1h5.58v5.58h-5.58zm0-5.58h5.58v5.58h-5.58z"/><path class="cls-1" d="M426.94 86.93h5.58v5.58h-5.58zm0-5.58h5.58v5.58h-5.58z"/><path class="cls-2" d="M426.94 75.77h5.58v5.58h-5.58zm-5.58 55.81h5.58v5.58h-5.58zm0-5.58h5.58v5.58h-5.58z"/><path class="cls-3" d="M421.36 120.42h5.58V126h-5.58z"/><path class="cls-4" d="M421.36 114.84h5.58v5.58h-5.58z"/><path class="cls-2" d="M421.36 109.26h5.58v5.58h-5.58zm0-5.58h5.58v5.58h-5.58z"/><path class="cls-3" d="M421.36 98.1h5.58v5.58h-5.58z"/><path class="cls-4" d="M421.36 92.52h5.58v5.58h-5.58z"/><path class="cls-1" d="M421.36 86.93h5.58v5.58h-5.58z"/><path class="cls-2" d="M421.36 81.35h5.58v5.58h-5.58zm0-5.58h5.58v5.58h-5.58zM415.78 126h5.58v5.58h-5.58zm0-5.58h5.58V126h-5.58zm0-5.58h5.58v5.58h-5.58zm0-5.58h5.58v5.58h-5.58zm0-5.58h5.58v5.58h-5.58zm0-5.58h5.58v5.58h-5.58zm0-5.58h5.58v5.58h-5.58zm0-5.59h5.58v5.58h-5.58zm0-5.58h5.58v5.58h-5.58z"/><path class="cls-2" d="M418.57 131.58h5.58v5.58h-5.58zm0-5.58h5.58v5.58h-5.58zm0-5.58h5.58V126h-5.58zm0-5.58h5.58v5.58h-5.58zm0-22.32h5.58v5.58h-5.58zm0-5.58h5.58v5.58h-5.58zm0-5.59h5.58v5.58h-5.58zm0-5.58h5.58v5.58h-5.58zm-5.58 55.81h5.58v5.58h-5.58z"/><path class="cls-3" d="M412.99 126h5.58v5.58h-5.58z"/><path class="cls-4" d="M412.99 120.42h5.58V126h-5.58z"/><path class="cls-2" d="M412.99 114.84h5.58v5.58h-5.58zm0-5.58h5.58v5.58h-5.58zm0-5.58h5.58v5.58h-5.58zm0-5.58h5.58v5.58h-5.58zm0-5.58h5.58v5.58h-5.58z"/><path class="cls-3" d="M412.99 86.94h5.58v5.58h-5.58z"/><path class="cls-4" d="M412.99 81.35h5.58v5.58h-5.58z"/><path class="cls-2" d="M412.99 75.77h5.58v5.58h-5.58zm-5.59 55.81h5.58v5.58h-5.58z"/><path class="cls-3" d="M407.4 126h5.58v5.58h-5.58z"/><path class="cls-4" d="M407.4 120.42h5.58V126h-5.58z"/><path class="cls-2" d="M407.4 114.84h5.58v5.58h-5.58z"/><path class="cls-3" d="M407.4 109.26h5.58v5.58h-5.58z"/><path class="cls-4" d="M407.4 103.68h5.58v5.58h-5.58z"/><path class="cls-2" d="M407.4 98.1h5.58v5.58h-5.58zm0-5.58h5.58v5.58h-5.58z"/><path class="cls-3" d="M407.4 86.94h5.58v5.58h-5.58z"/><path class="cls-4" d="M407.4 81.35h5.58v5.58h-5.58z"/><path class="cls-2" d="M407.4 75.77h5.58v5.58h-5.58zm-5.58 55.81h5.58v5.58h-5.58z"/><path class="cls-3" d="M401.82 126h5.58v5.58h-5.58z"/><path class="cls-4" d="M401.82 120.42h5.58V126h-5.58z"/><path class="cls-2" d="M401.82 114.84h5.58v5.58h-5.58z"/><path class="cls-3" d="M401.82 109.26h5.58v5.58h-5.58z"/><path class="cls-4" d="M401.82 103.68h5.58v5.58h-5.58z"/><path class="cls-2" d="M401.82 98.1h5.58v5.58h-5.58zm0-5.58h5.58v5.58h-5.58z"/><path class="cls-3" d="M401.82 86.94h5.58v5.58h-5.58z"/><path class="cls-4" d="M401.82 81.35h5.58v5.58h-5.58z"/><path class="cls-2" d="M401.82 75.77h5.58v5.58h-5.58zm-5.58 55.81h5.58v5.58h-5.58z"/><path class="cls-3" d="M396.24 126h5.58v5.58h-5.58z"/><path class="cls-4" d="M396.24 120.42h5.58V126h-5.58z"/><path class="cls-2" d="M396.24 114.84h5.58v5.58h-5.58z"/><path class="cls-3" d="M396.24 109.26h5.58v5.58h-5.58z"/><path class="cls-4" d="M396.24 103.68h5.58v5.58h-5.58z"/><path class="cls-2" d="M396.24 98.1h5.58v5.58h-5.58zm0-5.58h5.58v5.58h-5.58z"/><path class="cls-3" d="M396.24 86.94h5.58v5.58h-5.58z"/><path class="cls-4" d="M396.24 81.35h5.58v5.58h-5.58z"/><path class="cls-2" d="M396.24 75.77h5.58v5.58h-5.58zm-5.58 55.81h5.58v5.58h-5.58z"/><path class="cls-3" d="M390.66 126h5.58v5.58h-5.58z"/><path class="cls-4" d="M390.66 120.42h5.58V126h-5.58zm0-5.58h5.58v5.58h-5.58zm0-5.58h5.58v5.58h-5.58zm0-5.58h5.58v5.58h-5.58zm0-5.58h5.58v5.58h-5.58zm0-5.58h5.58v5.58h-5.58zm0-5.58h5.58v5.58h-5.58zm0-5.59h5.58v5.58h-5.58z"/><path class="cls-2" d="M390.66 75.77h5.58v5.58h-5.58zm-5.58 55.81h5.58v5.58h-5.58z"/><path class="cls-3" d="M385.08 126h5.58v5.58h-5.58z"/><path class="cls-4" d="M385.08 120.42h5.58V126h-5.58zm0-5.58h5.58v5.58h-5.58zm0-5.58h5.58v5.58h-5.58zm0-5.58h5.58v5.58h-5.58zm0-5.58h5.58v5.58h-5.58zm0-5.58h5.58v5.58h-5.58z"/><path class="cls-1" d="M385.08 86.94h5.58v5.58h-5.58zm0-5.59h5.58v5.58h-5.58z"/><path class="cls-2" d="M385.08 75.77h5.58v5.58h-5.58zm-5.58 55.81h5.58v5.58h-5.58zm0-5.58h5.58v5.58h-5.58z"/><path class="cls-3" d="M379.5 120.42h5.58V126h-5.58z"/><path class="cls-4" d="M379.5 114.84h5.58v5.58h-5.58zm0-5.58h5.58v5.58h-5.58zm0-5.58h5.58v5.58h-5.58zm0-5.58h5.58v5.58h-5.58zm0-5.58h5.58v5.58h-5.58z"/><path class="cls-1" d="M379.5 86.94h5.58v5.58h-5.58z"/><path class="cls-2" d="M379.5 81.35h5.58v5.58h-5.58zm0-5.58h5.58v5.58h-5.58zM373.92 126h5.58v5.58h-5.58zm0-5.58h5.58V126h-5.58zm0-5.58h5.58v5.58h-5.58zm0-5.58h5.58v5.58h-5.58zm0-5.58h5.58v5.58h-5.58zm0-5.58h5.58v5.58h-5.58zm0-5.58h5.58v5.58h-5.58zm0-5.58h5.58v5.58h-5.58zm0-5.59h5.58v5.58h-5.58zm-184.16 50.23h5.58v5.58h-5.58zm0-5.58h5.58v5.58h-5.58zm0-5.58h5.58V126h-5.58zm0-5.58h5.58v5.58h-5.58zm0-22.33h5.58v5.58h-5.58zm0-5.58h5.58v5.58h-5.58zm0-5.58h5.58v5.58h-5.58zm0-5.58h5.58v5.58h-5.58zm-5.58 55.81h5.58v5.58h-5.58z"/><path class="cls-3" d="M184.18 126h5.58v5.58h-5.58z"/><path class="cls-4" d="M184.18 120.42h5.58V126h-5.58z"/><path class="cls-2" d="M184.18 114.84h5.58v5.58h-5.58zm0-5.58h5.58v5.58h-5.58zm0-5.58h5.58v5.58h-5.58zm0-5.58h5.58v5.58h-5.58zm0-5.59h5.58v5.58h-5.58z"/><path class="cls-3" d="M184.18 86.93h5.58v5.58h-5.58z"/><path class="cls-4" d="M184.18 81.35h5.58v5.58h-5.58z"/><path class="cls-2" d="M184.18 75.77h5.58v5.58h-5.58zm-5.58 55.81h5.58v5.58h-5.58z"/><path class="cls-3" d="M178.6 126h5.58v5.58h-5.58z"/><path class="cls-4" d="M178.6 120.42h5.58V126h-5.58z"/><path class="cls-2" d="M178.6 114.84h5.58v5.58h-5.58z"/><path class="cls-3" d="M178.6 109.26h5.58v5.58h-5.58z"/><path class="cls-4" d="M178.6 103.68h5.58v5.58h-5.58z"/><path class="cls-2" d="M178.6 98.1h5.58v5.58h-5.58zm0-5.59h5.58v5.58h-5.58z"/><path class="cls-3" d="M178.6 86.93h5.58v5.58h-5.58z"/><path class="cls-4" d="M178.6 81.35h5.58v5.58h-5.58z"/><path class="cls-2" d="M178.6 75.77h5.58v5.58h-5.58zm-5.58 55.81h5.58v5.58h-5.58z"/><path class="cls-3" d="M173.02 126h5.58v5.58h-5.58z"/><path class="cls-4" d="M173.02 120.42h5.58V126h-5.58z"/><path class="cls-2" d="M173.02 114.84h5.58v5.58h-5.58z"/><path class="cls-3" d="M173.02 109.26h5.58v5.58h-5.58z"/><path class="cls-4" d="M173.02 103.68h5.58v5.58h-5.58z"/><path class="cls-2" d="M173.02 98.1h5.58v5.58h-5.58zm0-5.59h5.58v5.58h-5.58z"/><path class="cls-3" d="M173.02 86.93h5.58v5.58h-5.58z"/><path class="cls-4" d="M173.02 81.35h5.58v5.58h-5.58z"/><path class="cls-2" d="M173.02 75.77h5.58v5.58h-5.58zm-5.58 55.81h5.58v5.58h-5.58z"/><path class="cls-3" d="M167.44 126h5.58v5.58h-5.58z"/><path class="cls-4" d="M167.44 120.42h5.58V126h-5.58z"/><path class="cls-2" d="M167.44 114.84h5.58v5.58h-5.58z"/><path class="cls-3" d="M167.44 109.26h5.58v5.58h-5.58z"/><path class="cls-4" d="M167.44 103.68h5.58v5.58h-5.58z"/><path class="cls-2" d="M167.44 98.1h5.58v5.58h-5.58zm0-5.59h5.58v5.58h-5.58z"/><path class="cls-3" d="M167.44 86.93h5.58v5.58h-5.58z"/><path class="cls-4" d="M167.44 81.35h5.58v5.58h-5.58z"/><path class="cls-2" d="M167.44 75.77h5.58v5.58h-5.58zm-5.58 55.81h5.58v5.58h-5.58z"/><path class="cls-3" d="M161.86 126h5.58v5.58h-5.58z"/><path class="cls-4" d="M161.86 120.42h5.58V126h-5.58zm0-5.58h5.58v5.58h-5.58zm0-5.58h5.58v5.58h-5.58zm0-5.58h5.58v5.58h-5.58zm0-5.58h5.58v5.58h-5.58zm0-5.59h5.58v5.58h-5.58zm0-5.58h5.58v5.58h-5.58zm0-5.58h5.58v5.58h-5.58z"/><path class="cls-2" d="M161.86 75.77h5.58v5.58h-5.58zm-5.58 55.81h5.58v5.58h-5.58z"/><path class="cls-3" d="M156.28 126h5.58v5.58h-5.58z"/><path class="cls-4" d="M156.28 120.42h5.58V126h-5.58zm0-5.58h5.58v5.58h-5.58zm0-5.58h5.58v5.58h-5.58zm0-5.58h5.58v5.58h-5.58zm0-5.58h5.58v5.58h-5.58zm0-5.59h5.58v5.58h-5.58z"/><path class="cls-1" d="M156.28 86.93h5.58v5.58h-5.58zm0-5.58h5.58v5.58h-5.58z"/><path class="cls-2" d="M156.28 75.77h5.58v5.58h-5.58zm-5.58 55.81h5.58v5.58h-5.58zm0-5.58h5.58v5.58h-5.58z"/><path class="cls-3" d="M150.7 120.42h5.58V126h-5.58z"/><path class="cls-4" d="M150.7 114.84h5.58v5.58h-5.58zm0-5.58h5.58v5.58h-5.58zm0-5.58h5.58v5.58h-5.58zm0-5.58h5.58v5.58h-5.58zm0-5.59h5.58v5.58h-5.58z"/><path class="cls-1" d="M150.7 86.93h5.58v5.58h-5.58z"/><path class="cls-2" d="M150.7 81.35h5.58v5.58h-5.58zm0-5.58h5.58v5.58h-5.58zM145.12 126h5.58v5.58h-5.58zm0-5.58h5.58V126h-5.58zm0-5.58h5.58v5.58h-5.58zm0-5.58h5.58v5.58h-5.58zm0-5.58h5.58v5.58h-5.58zm0-5.58h5.58v5.58h-5.58zm0-5.59h5.58v5.58h-5.58zm0-5.58h5.58v5.58h-5.58z"/><path class="cls-2" d="M145.12 81.35h5.58v5.58h-5.58zM306.88 55.8h5.58v5.58h-5.58zm0-5.58h5.58v5.58h-5.58zm0-5.58h5.58v5.58h-5.58zm0-5.58h5.58v5.58h-5.58zm0-22.32h5.58v5.58h-5.58zm0-5.58h5.58v5.58h-5.58zm0-5.58h5.58v5.58h-5.58zm0-5.58h5.58v5.58h-5.58zm-5.58 55.8h5.58v5.58h-5.58z"/><path class="cls-3" d="M301.3 50.22h5.58v5.58h-5.58z"/><path class="cls-4" d="M301.3 44.64h5.58v5.58h-5.58z"/><path class="cls-2" d="M301.3 39.06h5.58v5.58h-5.58zm0-5.58h5.58v5.58h-5.58zm0-5.58h5.58v5.58h-5.58zm0-5.58h5.58v5.58h-5.58zm0-5.58h5.58v5.58h-5.58z"/><path class="cls-3" d="M301.3 11.16h5.58v5.58h-5.58z"/><path class="cls-4" d="M301.3 5.58h5.58v5.58h-5.58z"/><path class="cls-2" d="M301.3 0h5.58v5.58h-5.58zm-5.58 55.8h5.58v5.58h-5.58z"/><path class="cls-3" d="M295.72 50.22h5.58v5.58h-5.58z"/><path class="cls-4" d="M295.72 44.64h5.58v5.58h-5.58z"/><path class="cls-2" d="M295.72 39.06h5.58v5.58h-5.58z"/><path class="cls-3" d="M295.72 33.48h5.58v5.58h-5.58z"/><path class="cls-4" d="M295.72 27.9h5.58v5.58h-5.58z"/><path class="cls-2" d="M295.72 22.32h5.58v5.58h-5.58zm0-5.58h5.58v5.58h-5.58z"/><path class="cls-3" d="M295.72 11.16h5.58v5.58h-5.58z"/><path class="cls-4" d="M295.72 5.58h5.58v5.58h-5.58z"/><path class="cls-2" d="M295.72 0h5.58v5.58h-5.58zm-5.58 55.8h5.58v5.58h-5.58z"/><path class="cls-3" d="M290.14 50.22h5.58v5.58h-5.58z"/><path class="cls-4" d="M290.14 44.64h5.58v5.58h-5.58z"/><path class="cls-2" d="M290.14 39.06h5.58v5.58h-5.58z"/><path class="cls-3" d="M290.14 33.48h5.58v5.58h-5.58z"/><path class="cls-4" d="M290.14 27.9h5.58v5.58h-5.58z"/><path class="cls-2" d="M290.14 22.32h5.58v5.58h-5.58zm0-5.58h5.58v5.58h-5.58z"/><path class="cls-3" d="M290.14 11.16h5.58v5.58h-5.58z"/><path class="cls-4" d="M290.14 5.58h5.58v5.58h-5.58z"/><path class="cls-2" d="M290.14 0h5.58v5.58h-5.58zm-5.58 55.8h5.58v5.58h-5.58z"/><path class="cls-3" d="M284.56 50.22h5.58v5.58h-5.58z"/><path class="cls-4" d="M284.56 44.64h5.58v5.58h-5.58z"/><path class="cls-2" d="M284.56 39.06h5.58v5.58h-5.58z"/><path class="cls-3" d="M284.56 33.48h5.58v5.58h-5.58z"/><path class="cls-4" d="M284.56 27.9h5.58v5.58h-5.58z"/><path class="cls-2" d="M284.56 22.32h5.58v5.58h-5.58zm0-5.58h5.58v5.58h-5.58z"/><path class="cls-3" d="M284.56 11.16h5.58v5.58h-5.58z"/><path class="cls-4" d="M284.56 5.58h5.58v5.58h-5.58z"/><path class="cls-2" d="M284.56 0h5.58v5.58h-5.58zm-5.58 55.8h5.58v5.58h-5.58z"/><path class="cls-3" d="M278.98 50.22h5.58v5.58h-5.58z"/><path class="cls-4" d="M278.98 44.64h5.58v5.58h-5.58zm0-5.58h5.58v5.58h-5.58zm0-5.58h5.58v5.58h-5.58zm0-5.58h5.58v5.58h-5.58zm0-5.58h5.58v5.58h-5.58zm0-5.58h5.58v5.58h-5.58zm0-5.58h5.58v5.58h-5.58zm0-5.58h5.58v5.58h-5.58z"/><path class="cls-2" d="M278.98 0h5.58v5.58h-5.58zm-5.58 55.8h5.58v5.58h-5.58z"/><path class="cls-3" d="M273.4 50.22h5.58v5.58h-5.58z"/><path class="cls-4" d="M273.4 44.64h5.58v5.58h-5.58zm0-5.58h5.58v5.58h-5.58zm0-5.58h5.58v5.58h-5.58zm0-5.58h5.58v5.58h-5.58zm0-5.58h5.58v5.58h-5.58zm0-5.58h5.58v5.58h-5.58z"/><path class="cls-1" d="M273.4 11.16h5.58v5.58h-5.58zm0-5.58h5.58v5.58h-5.58z"/><path class="cls-2" d="M273.4 0h5.58v5.58h-5.58zm-5.59 55.8h5.58v5.58h-5.58zm0-5.58h5.58v5.58h-5.58z"/><path class="cls-3" d="M267.81 44.64h5.58v5.58h-5.58z"/><path class="cls-4" d="M267.81 39.06h5.58v5.58h-5.58zm0-5.58h5.58v5.58h-5.58zm0-5.58h5.58v5.58h-5.58zm0-5.58h5.58v5.58h-5.58zm0-5.58h5.58v5.58h-5.58z"/><path class="cls-1" d="M267.81 11.16h5.58v5.58h-5.58z"/><path class="cls-2" d="M267.81 5.58h5.58v5.58h-5.58zm0-5.58h5.58v5.58h-5.58zm-5.58 50.22h5.58v5.58h-5.58zm0-5.58h5.58v5.58h-5.58zm0-5.58h5.58v5.58h-5.58zm0-5.58h5.58v5.58h-5.58zm0-5.58h5.58v5.58h-5.58zm0-5.58h5.58v5.58h-5.58zm0-5.58h5.58v5.58h-5.58zm0-5.58h5.58v5.58h-5.58zm0-5.58h5.58v5.58h-5.58zM89.31 120.42h5.58V126h-5.58zm0-5.58h5.58v5.58h-5.58zm0-5.58h5.58v5.58h-5.58zm0-5.59h5.58v5.58h-5.58zm0-5.58h5.58v5.58h-5.58zm0-5.58h5.58v5.58h-5.58zm0-5.58h5.58v5.58h-5.58zM83.73 126h5.58v5.58h-5.58zm0-5.58h5.58V126h-5.58z"/><path class="cls-3" d="M83.73 114.84h5.58v5.58h-5.58z"/><path class="cls-4" d="M83.73 109.26h5.58v5.58h-5.58zm0-5.59h5.58v5.58h-5.58zm0-5.58h5.58v5.58h-5.58zm0-5.58h5.58v5.58h-5.58z"/><path class="cls-2" d="M83.73 86.93h5.58v5.58h-5.58zm0-5.58h5.58v5.58h-5.58zm-5.58 50.23h5.58v5.58h-5.58zm0-5.58h5.58v5.58h-5.58z"/><path class="cls-3" d="M78.15 120.42h5.58V126h-5.58z"/><path class="cls-4" d="M78.15 114.84h5.58v5.58h-5.58zm0-5.58h5.58v5.58h-5.58zm0-5.59h5.58v5.58h-5.58zm0-5.58h5.58v5.58h-5.58zm0-5.58h5.58v5.58h-5.58zm0-5.58h5.58v5.58h-5.58z"/><path class="cls-2" d="M78.15 81.35h5.58v5.58h-5.58zm0-5.58h5.58v5.58h-5.58zm-5.58 55.81h5.58v5.58h-5.58z"/><path class="cls-3" d="M72.57 126h5.58v5.58h-5.58z"/><path class="cls-4" d="M72.57 120.42h5.58V126h-5.58zm0-5.58h5.58v5.58h-5.58z"/><path class="cls-2" d="M72.57 109.26h5.58v5.58h-5.58zm0-5.59h5.58v5.58h-5.58z"/><path class="cls-3" d="M72.57 98.09h5.58v5.58h-5.58z"/><path class="cls-4" d="M72.57 92.51h5.58v5.58h-5.58zm0-5.58h5.58v5.58h-5.58zm0-5.58h5.58v5.58h-5.58z"/><path class="cls-2" d="M72.57 75.77h5.58v5.58h-5.58zm-5.58 55.81h5.58v5.58h-5.58z"/><path class="cls-3" d="M66.99 126h5.58v5.58h-5.58z"/><path class="cls-4" d="M66.99 120.42h5.58V126h-5.58zm0-5.58h5.58v5.58h-5.58z"/><path class="cls-2" d="M66.99 109.26h5.58v5.58h-5.58zm0-5.59h5.58v5.58h-5.58zm0-5.58h5.58v5.58h-5.58z"/><path class="cls-3" d="M66.99 92.51h5.58v5.58h-5.58z"/><path class="cls-4" d="M66.99 86.93h5.58v5.58h-5.58zm0-5.58h5.58v5.58h-5.58z"/><path class="cls-2" d="M66.99 75.77h5.58v5.58h-5.58zm-5.58 55.81h5.58v5.58h-5.58z"/><path class="cls-3" d="M61.41 126h5.58v5.58h-5.58z"/><path class="cls-4" d="M61.41 120.42h5.58V126h-5.58zm0-5.58h5.58v5.58h-5.58zm0-5.58h5.58v5.58h-5.58zm0-5.59h5.58v5.58h-5.58zm0-5.58h5.58v5.58h-5.58zm0-5.58h5.58v5.58h-5.58zm0-5.58h5.58v5.58h-5.58zm0-5.58h5.58v5.58h-5.58z"/><path class="cls-2" d="M61.41 75.77h5.58v5.58h-5.58zm-5.58 55.81h5.58v5.58h-5.58z"/><path class="cls-3" d="M55.83 126h5.58v5.58h-5.58z"/><path class="cls-4" d="M55.83 120.42h5.58V126h-5.58zm0-5.58h5.58v5.58h-5.58zm0-5.58h5.58v5.58h-5.58zm0-5.59h5.58v5.58h-5.58zm0-5.58h5.58v5.58h-5.58zm0-5.58h5.58v5.58h-5.58z"/><path class="cls-1" d="M55.83 86.93h5.58v5.58h-5.58zm0-5.58h5.58v5.58h-5.58z"/><path class="cls-2" d="M55.83 75.77h5.58v5.58h-5.58zm-5.58 55.81h5.58v5.58h-5.58z"/><path class="cls-3" d="M50.25 126h5.58v5.58h-5.58z"/><path class="cls-4" d="M50.25 120.42h5.58V126h-5.58zm0-5.58h5.58v5.58h-5.58zm0-5.58h5.58v5.58h-5.58zm0-5.59h5.58v5.58h-5.58zm0-5.58h5.58v5.58h-5.58zm0-5.58h5.58v5.58h-5.58z"/><path class="cls-1" d="M50.25 86.93h5.58v5.58h-5.58zm0-5.58h5.58v5.58h-5.58z"/><path class="cls-2" d="M50.25 75.77h5.58v5.58h-5.58zm-5.58 55.81h5.58v5.58h-5.58zm0-5.58h5.58v5.58h-5.58zm0-5.58h5.58V126h-5.58zm0-5.58h5.58v5.58h-5.58zm0-5.58h5.58v5.58h-5.58zm0-5.59h5.58v5.58h-5.58zm0-5.58h5.58v5.58h-5.58zm0-5.58h5.58v5.58h-5.58zm0-5.58h5.58v5.58h-5.58zm0-5.58h5.58v5.58h-5.58zm0-5.58h5.58v5.58h-5.58zM217.74 55.81h5.58v5.58h-5.58zm0-5.58h5.58v5.58h-5.58zm0-5.58h5.58v5.58h-5.58zm0-5.58h5.58v5.58h-5.58zm0-5.58h5.58v5.58h-5.58zm0-5.58h5.58v5.58h-5.58zm0-5.58h5.58v5.58h-5.58zm0-5.59h5.58v5.58h-5.58zm0-5.58h5.58v5.58h-5.58zm0-5.58h5.58v5.58h-5.58zm-5.58 50.23h5.58v5.58h-5.58z"/><path class="cls-3" d="M212.16 50.23h5.58v5.58h-5.58z"/><path class="cls-4" d="M212.16 44.65h5.58v5.58h-5.58zm0-5.58h5.58v5.58h-5.58zm0-5.58h5.58v5.58h-5.58zm0-5.58h5.58v5.58h-5.58zm0-5.58h5.58v5.58h-5.58zm0-5.59h5.58v5.58h-5.58zm0-5.58h5.58v5.58h-5.58z"/><path class="cls-2" d="M212.16 5.58h5.58v5.58h-5.58zm0-5.58h5.58v5.58h-5.58zm-5.58 55.81h5.58v5.58h-5.58z"/><path class="cls-3" d="M206.58 50.23h5.58v5.58h-5.58z"/><path class="cls-4" d="M206.58 44.65h5.58v5.58h-5.58zm0-5.58h5.58v5.58h-5.58zm0-5.58h5.58v5.58h-5.58zm0-5.58h5.58v5.58h-5.58zm0-5.58h5.58v5.58h-5.58zm0-5.59h5.58v5.58h-5.58zm0-5.58h5.58v5.58h-5.58zm0-5.58h5.58v5.58h-5.58z"/><path class="cls-2" d="M206.58 0h5.58v5.58h-5.58zM201 55.81h5.58v5.58H201z"/><path class="cls-3" d="M201 50.23h5.58v5.58H201z"/><path class="cls-4" d="M201 44.65h5.58v5.58H201zm0-5.58h5.58v5.58H201zm0-5.58h5.58v5.58H201zm0-5.58h5.58v5.58H201zm0-5.58h5.58v5.58H201zm0-5.59h5.58v5.58H201zm0-5.58h5.58v5.58H201zm0-5.58h5.58v5.58H201z"/><path class="cls-2" d="M201 0h5.58v5.58H201zm-5.58 55.81H201v5.58h-5.58zm0-5.58H201v5.58h-5.58zm0-5.58H201v5.58h-5.58z"/><path class="cls-3" d="M195.42 39.07H201v5.58h-5.58z"/><path class="cls-4" d="M195.42 33.49H201v5.58h-5.58zm0-5.58H201v5.58h-5.58z"/><path class="cls-2" d="M195.42 22.33H201v5.58h-5.58z"/><path class="cls-3" d="M195.42 16.74H201v5.58h-5.58z"/><path class="cls-4" d="M195.42 11.16H201v5.58h-5.58zm0-5.58H201v5.58h-5.58z"/><path class="cls-2" d="M195.42 0H201v5.58h-5.58zm-5.58 55.81h5.58v5.58h-5.58z"/><path class="cls-3" d="M189.84 50.23h5.58v5.58h-5.58z"/><path class="cls-4" d="M189.84 44.65h5.58v5.58h-5.58zm0-5.58h5.58v5.58h-5.58zm0-5.58h5.58v5.58h-5.58zm0-5.58h5.58v5.58h-5.58zm0-5.58h5.58v5.58h-5.58zm0-5.59h5.58v5.58h-5.58zm0-5.58h5.58v5.58h-5.58zm0-5.58h5.58v5.58h-5.58z"/><path class="cls-2" d="M189.84 0h5.58v5.58h-5.58zm-5.58 55.81h5.58v5.58h-5.58z"/><path class="cls-3" d="M184.26 50.23h5.58v5.58h-5.58z"/><path class="cls-4" d="M184.26 44.65h5.58v5.58h-5.58zm0-5.58h5.58v5.58h-5.58zm0-5.58h5.58v5.58h-5.58zm0-5.58h5.58v5.58h-5.58zm0-5.58h5.58v5.58h-5.58zm0-5.59h5.58v5.58h-5.58z"/><path class="cls-1" d="M184.26 11.16h5.58v5.58h-5.58zm0-5.58h5.58v5.58h-5.58z"/><path class="cls-2" d="M184.26 0h5.58v5.58h-5.58zm-5.58 55.81h5.58v5.58h-5.58z"/><path class="cls-3" d="M178.68 50.23h5.58v5.58h-5.58z"/><path class="cls-4" d="M178.68 44.65h5.58v5.58h-5.58zm0-5.58h5.58v5.58h-5.58zm0-5.58h5.58v5.58h-5.58zm0-5.58h5.58v5.58h-5.58zm0-5.58h5.58v5.58h-5.58zm0-5.59h5.58v5.58h-5.58z"/><path class="cls-1" d="M178.68 11.16h5.58v5.58h-5.58z"/><path class="cls-2" d="M178.68 5.58h5.58v5.58h-5.58zm0-5.58h5.58v5.58h-5.58zm-5.58 55.81h5.58v5.58h-5.58zm0-5.58h5.58v5.58h-5.58zm0-5.58h5.58v5.58h-5.58zm0-5.58h5.58v5.58h-5.58zm0-5.58h5.58v5.58h-5.58zm0-5.58h5.58v5.58h-5.58zm0-5.58h5.58v5.58h-5.58zm0-5.59h5.58v5.58h-5.58zm0-5.58h5.58v5.58h-5.58zm0-5.58h5.58v5.58h-5.58z"/><g><path class="cls-2" d="M44.64 131.58h5.58v5.58h-5.58zm0-5.58h5.58v5.58h-5.58zm0-5.58h5.58V126h-5.58zm0-5.58h5.58v5.58h-5.58zm0-5.58h5.58v5.58h-5.58zm0-5.58h5.58v5.58h-5.58zm0-5.58h5.58v5.58h-5.58zm0-5.59h5.58v5.58h-5.58zm0-5.58h5.58v5.58h-5.58zm0-5.58h5.58v5.58h-5.58zm-5.58 50.23h5.58v5.58h-5.58z"/><path class="cls-3" d="M39.06 126h5.58v5.58h-5.58z"/><path class="cls-4" d="M39.06 120.42h5.58V126h-5.58zm0-5.58h5.58v5.58h-5.58zm0-5.58h5.58v5.58h-5.58zm0-5.58h5.58v5.58h-5.58zm0-5.58h5.58v5.58h-5.58zm0-5.59h5.58v5.58h-5.58zm0-5.58h5.58v5.58h-5.58z"/><path class="cls-2" d="M39.06 81.35h5.58v5.58h-5.58zm0-5.58h5.58v5.58h-5.58zm-5.58 55.81h5.58v5.58h-5.58z"/><path class="cls-3" d="M33.48 126h5.58v5.58h-5.58z"/><path class="cls-4" d="M33.48 120.42h5.58V126h-5.58zm0-5.58h5.58v5.58h-5.58zm0-5.58h5.58v5.58h-5.58zm0-5.58h5.58v5.58h-5.58zm0-5.58h5.58v5.58h-5.58zm0-5.59h5.58v5.58h-5.58zm0-5.58h5.58v5.58h-5.58zm0-5.58h5.58v5.58h-5.58z"/><path class="cls-2" d="M33.48 75.77h5.58v5.58h-5.58zm-5.58 55.81h5.58v5.58H27.9z"/><path class="cls-3" d="M27.9 126h5.58v5.58H27.9z"/><path class="cls-4" d="M27.9 120.42h5.58V126H27.9zm0-5.58h5.58v5.58H27.9zm0-5.58h5.58v5.58H27.9zm0-5.58h5.58v5.58H27.9zm0-5.58h5.58v5.58H27.9zm0-5.59h5.58v5.58H27.9zm0-5.58h5.58v5.58H27.9zm0-5.58h5.58v5.58H27.9z"/><path class="cls-2" d="M27.9 75.77h5.58v5.58H27.9zm-5.58 55.81h5.58v5.58h-5.58zm0-5.58h5.58v5.58h-5.58zm0-5.58h5.58V126h-5.58z"/><path class="cls-3" d="M22.32 114.84h5.58v5.58h-5.58z"/><path class="cls-4" d="M22.32 109.26h5.58v5.58h-5.58zm0-5.58h5.58v5.58h-5.58z"/><path class="cls-2" d="M22.32 98.1h5.58v5.58h-5.58z"/><path class="cls-3" d="M22.32 92.51h5.58v5.58h-5.58z"/><path class="cls-4" d="M22.32 86.93h5.58v5.58h-5.58zm0-5.58h5.58v5.58h-5.58z"/><path class="cls-2" d="M22.32 75.77h5.58v5.58h-5.58zm-5.58 55.81h5.58v5.58h-5.58z"/><path class="cls-3" d="M16.74 126h5.58v5.58h-5.58z"/><path class="cls-4" d="M16.74 120.42h5.58V126h-5.58zm0-5.58h5.58v5.58h-5.58zm0-5.58h5.58v5.58h-5.58zm0-5.58h5.58v5.58h-5.58zm0-5.58h5.58v5.58h-5.58zm0-5.59h5.58v5.58h-5.58zm0-5.58h5.58v5.58h-5.58zm0-5.58h5.58v5.58h-5.58z"/><path class="cls-2" d="M16.74 75.77h5.58v5.58h-5.58zm-5.58 55.81h5.58v5.58h-5.58z"/><path class="cls-3" d="M11.16 126h5.58v5.58h-5.58z"/><path class="cls-4" d="M11.16 120.42h5.58V126h-5.58zm0-5.58h5.58v5.58h-5.58zm0-5.58h5.58v5.58h-5.58zm0-5.58h5.58v5.58h-5.58zm0-5.58h5.58v5.58h-5.58zm0-5.59h5.58v5.58h-5.58z"/><path class="cls-1" d="M11.16 86.93h5.58v5.58h-5.58zm0-5.58h5.58v5.58h-5.58z"/><path class="cls-2" d="M11.16 75.77h5.58v5.58h-5.58zm-5.58 55.81h5.58v5.58H5.58z"/><path class="cls-3" d="M5.58 126h5.58v5.58H5.58z"/><path class="cls-4" d="M5.58 120.42h5.58V126H5.58zm0-5.58h5.58v5.58H5.58zm0-5.58h5.58v5.58H5.58zm0-5.58h5.58v5.58H5.58zm0-5.58h5.58v5.58H5.58zm0-5.59h5.58v5.58H5.58z"/><path class="cls-1" d="M5.58 86.93h5.58v5.58H5.58z"/><path class="cls-2" d="M5.58 81.35h5.58v5.58H5.58zm0-5.58h5.58v5.58H5.58zM0 131.58h5.58v5.58H0zM0 126h5.58v5.58H0zm0-5.58h5.58V126H0zm0-5.58h5.58v5.58H0zm0-5.58h5.58v5.58H0zm0-5.58h5.58v5.58H0zm0-5.58h5.58v5.58H0zm0-5.59h5.58v5.58H0zm0-5.58h5.58v5.58H0zm0-5.58h5.58v5.58H0z"/></g><g><path class="cls-2" d="M145.12 98.08h5.58v5.58h-5.58zm0-5.58h5.58v5.58h-5.58zm0-5.59h5.58v5.58h-5.58zm0-5.58h5.58v5.58h-5.58zm0-5.58h5.58v5.58h-5.58zm-5.58 33.49h5.58v5.58h-5.58zm0-5.58h5.58v5.58h-5.58zm0-5.58h5.58v5.58h-5.58z"/><path class="cls-3" d="M139.54 92.5h5.58v5.58h-5.58z"/><path class="cls-4" d="M139.54 86.91h5.58v5.58h-5.58zm0-5.58h5.58v5.58h-5.58z"/><path class="cls-2" d="M139.54 75.75h5.58v5.58h-5.58zm-5.58 44.65h5.58v5.58h-5.58zm0-5.58h5.58v5.58h-5.58zm0-5.58h5.58v5.58h-5.58z"/><path class="cls-3" d="M133.96 103.66h5.58v5.58h-5.58z"/><path class="cls-4" d="M133.96 98.08h5.58v5.58h-5.58zm0-5.58h5.58v5.58h-5.58zm0-5.59h5.58v5.58h-5.58zm0-5.58h5.58v5.58h-5.58z"/><path class="cls-2" d="M133.96 75.75h5.58v5.58h-5.58zm-5.59 55.81h5.58v5.58h-5.58zm0-5.58h5.58v5.58h-5.58zm0-5.58h5.58v5.58h-5.58z"/><path class="cls-3" d="M128.37 114.82h5.58v5.58h-5.58z"/><path class="cls-4" d="M128.37 109.24h5.58v5.58h-5.58zm0-5.58h5.58v5.58h-5.58zm0-5.58h5.58v5.58h-5.58zm0-5.58h5.58v5.58h-5.58zm0-5.59h5.58v5.58h-5.58zm0-5.58h5.58v5.58h-5.58z"/><path class="cls-2" d="M128.37 75.75h5.58v5.58h-5.58zm-5.58 55.81h5.58v5.58h-5.58z"/><path class="cls-3" d="M122.79 125.98h5.58v5.58h-5.58z"/><path class="cls-4" d="M122.79 120.4h5.58v5.58h-5.58zm0-5.58h5.58v5.58h-5.58zm0-5.58h5.58v5.58h-5.58zm0-5.58h5.58v5.58h-5.58zm0-5.58h5.58v5.58h-5.58z"/><path class="cls-2" d="M122.79 92.5h5.58v5.58h-5.58zm0-5.59h5.58v5.58h-5.58zm0-5.58h5.58v5.58h-5.58zm0-5.58h5.58v5.58h-5.58zm-5.58 55.81h5.58v5.58h-5.58z"/><path class="cls-3" d="M117.21 125.98h5.58v5.58h-5.58z"/><path class="cls-4" d="M117.21 120.4h5.58v5.58h-5.58zm0-5.58h5.58v5.58h-5.58zm0-5.58h5.58v5.58h-5.58z"/><path class="cls-2" d="M117.21 103.66h5.58v5.58h-5.58zm0-5.58h5.58v5.58h-5.58zm0-5.58h5.58v5.58h-5.58zm-5.58 39.06h5.58v5.58h-5.58z"/><path class="cls-3" d="M111.63 125.98h5.58v5.58h-5.58z"/><path class="cls-4" d="M111.63 120.4h5.58v5.58h-5.58zm0-5.58h5.58v5.58h-5.58zm0-5.58h5.58v5.58h-5.58zm0-5.58h5.58v5.58h-5.58zm0-5.58h5.58v5.58h-5.58z"/><path class="cls-2" d="M111.63 92.5h5.58v5.58h-5.58zm0-5.59h5.58v5.58h-5.58zm0-5.58h5.58v5.58h-5.58zm0-5.58h5.58v5.58h-5.58zm-5.58 55.81h5.58v5.58h-5.58zm0-5.58h5.58v5.58h-5.58zm0-5.58h5.58v5.58h-5.58z"/><path class="cls-3" d="M106.05 114.82h5.58v5.58h-5.58z"/><path class="cls-4" d="M106.05 109.24h5.58v5.58h-5.58zm0-5.58h5.58v5.58h-5.58zm0-5.58h5.58v5.58h-5.58zm0-5.58h5.58v5.58h-5.58zm0-5.59h5.58v5.58h-5.58zm0-5.58h5.58v5.58h-5.58z"/><path class="cls-2" d="M106.05 75.75h5.58v5.58h-5.58zm-5.58 44.65h5.58v5.58h-5.58zm0-5.58h5.58v5.58h-5.58zm0-5.58h5.58v5.58h-5.58z"/><path class="cls-3" d="M100.47 103.66h5.58v5.58h-5.58z"/><path class="cls-4" d="M100.47 98.08h5.58v5.58h-5.58zm0-5.58h5.58v5.58h-5.58z"/><path class="cls-1" d="M100.47 86.91h5.58v5.58h-5.58zm0-5.58h5.58v5.58h-5.58z"/><path class="cls-2" d="M100.47 75.75h5.58v5.58h-5.58zm-5.58 33.49h5.58v5.58h-5.58zm0-5.58h5.58v5.58h-5.58zm0-5.58h5.58v5.58h-5.58z"/><path class="cls-3" d="M94.89 92.5h5.58v5.58h-5.58z"/><path class="cls-1" d="M94.89 86.91h5.58v5.58h-5.58zm0-5.58h5.58v5.58h-5.58z"/><path class="cls-2" d="M94.89 75.75h5.58v5.58h-5.58zm-5.58 22.33h5.58v5.58h-5.58zm0-5.58h5.58v5.58h-5.58zm0-5.59h5.58v5.58h-5.58zm0-5.58h5.58v5.58h-5.58zm0-5.58h5.58v5.58h-5.58z"/></g><g><path class="cls-2" d="M329.28 126h5.58v5.58h-5.58zm0-5.58h5.58V126h-5.58zm0-5.58h5.58v5.58h-5.58zm0-5.58h5.58v5.58h-5.58zm0-5.58h5.58v5.58h-5.58zm0-5.58h5.58v5.58h-5.58zm0-5.58h5.58v5.58h-5.58zm0-5.58h5.58v5.58h-5.58zm0-5.58h5.58v5.58h-5.58zm0-5.58h5.58v5.58h-5.58zm-5.58 55.8h5.58v5.58h-5.58zm0-5.58h5.58v5.58h-5.58z"/><path class="cls-3" d="M323.7 120.42h5.58V126h-5.58z"/><path class="cls-4" d="M323.7 114.84h5.58v5.58h-5.58zm0-5.58h5.58v5.58h-5.58zm0-5.58h5.58v5.58h-5.58zm0-5.58h5.58v5.58h-5.58zm0-5.58h5.58v5.58h-5.58zm0-5.58h5.58v5.58h-5.58zm0-5.58h5.58v5.58h-5.58z"/><path class="cls-2" d="M323.7 75.78h5.58v5.58h-5.58zm-5.58 55.8h5.58v5.58h-5.58z"/><path class="cls-3" d="M318.12 126h5.58v5.58h-5.58z"/><path class="cls-4" d="M318.12 120.42h5.58V126h-5.58zm0-5.58h5.58v5.58h-5.58zm0-5.58h5.58v5.58h-5.58zm0-5.58h5.58v5.58h-5.58zm0-5.58h5.58v5.58h-5.58zm0-5.58h5.58v5.58h-5.58zm0-5.58h5.58v5.58h-5.58zm0-5.58h5.58v5.58h-5.58z"/><path class="cls-2" d="M318.12 75.78h5.58v5.58h-5.58zm-5.58 55.8h5.58v5.58h-5.58z"/><path class="cls-3" d="M312.54 126h5.58v5.58h-5.58z"/><path class="cls-4" d="M312.54 120.42h5.58V126h-5.58zm0-5.58h5.58v5.58h-5.58zm0-5.58h5.58v5.58h-5.58zm0-5.58h5.58v5.58h-5.58zm0-5.58h5.58v5.58h-5.58zm0-5.58h5.58v5.58h-5.58zm0-5.58h5.58v5.58h-5.58zm0-5.58h5.58v5.58h-5.58z"/><path class="cls-2" d="M312.54 75.78h5.58v5.58h-5.58zm-5.58 55.8h5.58v5.58h-5.58z"/><path class="cls-3" d="M306.96 126h5.58v5.58h-5.58z"/><path class="cls-4" d="M306.96 120.42h5.58V126h-5.58zm0-5.58h5.58v5.58h-5.58z"/><path class="cls-2" d="M306.96 109.26h5.58v5.58h-5.58zm0-5.58h5.58v5.58h-5.58zm0-5.58h5.58v5.58h-5.58zm0-5.58h5.58v5.58h-5.58zm0-5.58h5.58v5.58h-5.58zm0-5.58h5.58v5.58h-5.58zm0-5.58h5.58v5.58h-5.58zm-5.58 55.8h5.58v5.58h-5.58z"/><path class="cls-3" d="M301.38 126h5.58v5.58h-5.58z"/><path class="cls-4" d="M301.38 120.42h5.58V126h-5.58zm0-5.58h5.58v5.58h-5.58zm0-5.58h5.58v5.58h-5.58zm0-5.58h5.58v5.58h-5.58zm0-5.58h5.58v5.58h-5.58zm0-5.58h5.58v5.58h-5.58zm0-5.58h5.58v5.58h-5.58zm0-5.58h5.58v5.58h-5.58z"/><path class="cls-2" d="M301.38 75.78h5.58v5.58h-5.58zm-5.59 55.8h5.58v5.58h-5.58z"/><path class="cls-3" d="M295.79 126h5.58v5.58h-5.58z"/><path class="cls-4" d="M295.79 120.42h5.58V126h-5.58zm0-5.58h5.58v5.58h-5.58zm0-5.58h5.58v5.58h-5.58zm0-5.58h5.58v5.58h-5.58zm0-5.58h5.58v5.58h-5.58zm0-5.58h5.58v5.58h-5.58z"/><path class="cls-1" d="M295.79 86.94h5.58v5.58h-5.58zm0-5.58h5.58v5.58h-5.58z"/><path class="cls-2" d="M295.79 75.78h5.58v5.58h-5.58zm-5.58 55.8h5.58v5.58h-5.58zm0-5.58h5.58v5.58h-5.58z"/><path class="cls-3" d="M290.21 120.42h5.58V126h-5.58z"/><path class="cls-4" d="M290.21 114.84h5.58v5.58h-5.58zm0-5.58h5.58v5.58h-5.58zm0-5.58h5.58v5.58h-5.58zm0-5.58h5.58v5.58h-5.58zm0-5.58h5.58v5.58h-5.58z"/><path class="cls-1" d="M290.21 86.94h5.58v5.58h-5.58zm0-5.58h5.58v5.58h-5.58z"/><path class="cls-2" d="M290.21 75.78h5.58v5.58h-5.58zM284.63 126h5.58v5.58h-5.58zm0-5.58h5.58V126h-5.58zm0-5.58h5.58v5.58h-5.58zm0-5.58h5.58v5.58h-5.58zm0-5.58h5.58v5.58h-5.58zm0-5.58h5.58v5.58h-5.58zm0-5.58h5.58v5.58h-5.58zm0-5.58h5.58v5.58h-5.58zm0-5.58h5.58v5.58h-5.58zm0-5.58h5.58v5.58h-5.58z"/></g></svg>