<svg width="60" height="73" fill="none" xmlns="http://www.w3.org/2000/svg"><g clip-path="url(#clip0_323_51016)"><path d="M55.772 8.492H4.264v55.9h51.508v-55.9z" fill="#4FA4B8"/><path d="M41.04 0H4.245v4.246h51.509V0H41.04z" fill="#3B2027"/><path d="M39.238 64.391H8.51v4.246h43.017v-4.246H39.238z" fill="#4C6885"/><path d="M0 22.637v45.988h4.246V4.246H0v18.391zm55.754 0v45.988H60V4.246h-4.246v18.391zM41.04 68.625H4.245v4.246h51.509v-4.246H41.04z" fill="#3B2027"/><path d="M7.297 60.145H4.264v4.246H8.51v-4.246H7.297zm47.263 0h-3.034v4.246h4.246v-4.246H54.56z" fill="#4C6885"/><path d="M20.799 8.492h30.728V4.246H8.51v4.246h12.289zm31.941 4.246h3.032V8.492h-4.246v4.246h1.213zm-47.263 0H8.51V8.492H4.264v4.246h1.213z" fill="#92E8C0"/><path d="M31.796 43.362h-6.187v6.187h6.186v-6.187zm7.078-8.734h-3.22v3.827h-3.859v2.584H25.61v-7.018h7.751v-9.274h-8.388v3.057h-5.514v-6.12h4.21v-3.063h11.925v3.063h3.214v12.974l.067-.03z" fill="#F5FFE8"/></g><defs><clipPath id="clip0_323_51016"><path fill="#fff" d="M0 0h60v72.871H0z"/></clipPath></defs></svg>