<svg width="60" height="73" viewBox="0 0 60 73" fill="none" xmlns="http://www.w3.org/2000/svg">
<g clip-path="url(#clip0_323_51016)">
<path d="M55.7724 8.4917H4.26416V64.3914H55.7724V8.4917Z" fill="#4FA4B8"/>
<path d="M41.0392 0H33.6818H26.3243H18.9608H11.6033H4.24585V4.24586H11.6033H18.9608H26.3243H33.6818H41.0392H48.3967H55.7541V0H48.3967H41.0392Z" fill="#3B2027"/>
<path d="M39.2379 64.3914H33.0874H26.9431H20.7987H14.6544H8.51001V68.6372H14.6544H20.7987H26.9431H33.0874H39.2379H45.3822H51.5266V64.3914H45.3822H39.2379Z" fill="#4C6885"/>
<path d="M0 22.6365V31.8378V41.0332V50.2285V59.4238V68.6251H4.24586V59.4238V50.2285V41.0332V31.8378V22.6365V13.4412V4.24585H0V13.4412V22.6365Z" fill="#3B2027"/>
<path d="M55.7542 22.6365V31.8378V41.0332V50.2285V59.4238V68.6251H60V59.4238V50.2285V41.0332V31.8378V22.6365V13.4412V4.24585H55.7542V13.4412V22.6365Z" fill="#3B2027"/>
<path d="M41.0392 68.6252H33.6818H26.3243H18.9608H11.6033H4.24585V72.8711H11.6033H18.9608H26.3243H33.6818H41.0392H48.3967H55.7541V68.6252H48.3967H41.0392Z" fill="#3B2027"/>
<path d="M7.29691 60.1455H6.69036H6.08381H5.47726H4.87071H4.26416V64.3914H4.87071H5.47726H6.08381H6.69036H7.29691H7.90346H8.51002V60.1455H7.90346H7.29691Z" fill="#4C6885"/>
<path d="M54.5591 60.1455H53.9526H53.346H52.7395H52.1329H51.5264V64.3914H52.1329H52.7395H53.346H53.9526H54.5591H55.1657H55.7722V60.1455H55.1657H54.5591Z" fill="#4C6885"/>
<path d="M20.7987 8.4917H26.9431H33.0874H39.2379H45.3822H51.5266V4.24585H45.3822H39.2379H33.0874H26.9431H20.7987H14.6544H8.51001V8.4917H14.6544H20.7987Z" fill="#92E8C0"/>
<path d="M52.7395 12.7376H53.346H53.9526H54.5591H55.1657H55.7722V8.4917H55.1657H54.5591H53.9526H53.346H52.7395H52.1329H51.5264V12.7376H52.1329H52.7395Z" fill="#92E8C0"/>
<path d="M5.47726 12.7376H6.08381H6.69036H7.29691H7.90346H8.51002V8.4917H7.90346H7.29691H6.69036H6.08381H5.47726H4.87071H4.26416V12.7376H4.87071H5.47726Z" fill="#92E8C0"/>
<path d="M31.7955 43.3623H25.6086V49.5491H31.7955V43.3623Z" fill="#F5FFE8"/>
<path d="M38.8739 34.628H35.6532V38.4553H31.7955V41.0392H25.6087V34.0214H33.3604V24.7473H24.9718V27.8043H19.4583V21.6842H23.6677V18.6211H35.5925V21.6842H38.8072V34.6583L38.8739 34.628Z" fill="#F5FFE8"/>
</g>
<defs>
<clipPath id="clip0_323_51016">
<rect width="60" height="72.871" fill="white"/>
</clipPath>
</defs>
</svg>
