<svg width="144" height="44" fill="none" xmlns="http://www.w3.org/2000/svg"><g clip-path="url(#clip0_323_62732)"><path d="M82.188 36.428h-7.25v7.249h7.25v-7.25zm-14.508 0H45.926v7.249h21.756v-7.25zm-29.004-7.259h-7.249v7.249h7.249v-7.25z" fill="#F50"/><path d="M38.676 21.92h-7.249v7.25h7.249v-7.25zm-16.92 0H0v7.25h21.756v-7.25z" fill="#FFA92C"/><path d="M14.507 14.671H7.249v7.25h7.258v-7.25z" fill="#FFA92C"/><path d="M14.507 29.169H7.249v7.249h7.258v-7.25z" fill="#F50"/><path d="M38.676 14.671h-7.249v7.25h7.249v-7.25z" fill="#FFA92C"/><path d="M38.676 7.414H24.169v7.258h14.507V7.413z" fill="#FFF143"/><path d="M38.676.165h-7.249v7.257h7.249V.165z" fill="#FFF143"/><path d="M38.676 36.428h-7.249v7.249h7.249v-7.25zm14.507-7.259h-7.258v7.249h7.258v-7.25z" fill="#F50"/><path d="M53.183 21.92h-7.258v7.25h7.258v-7.25z" fill="#FFA92C"/><path d="M53.183 14.671h-7.258v7.25h7.258v-7.25z" fill="#FFA92C"/><path d="M53.183 7.414h-7.258v7.249h7.258v-7.25z" fill="#FFF143"/><path d="M53.183.165h-7.258v7.257h7.258V.165z" fill="#FFF143"/><path d="M67.68 29.169h-7.248v7.249h7.249v-7.25z" fill="#F50"/><path d="M67.68 21.92h-7.248v7.25h7.249v-7.25z" fill="#FFA92C"/><path d="M67.68 14.671h-7.248v7.25h7.249v-7.25z" fill="#FFA92C"/><path d="M67.68 7.414h-7.248v7.249h7.249v-7.25z" fill="#FFF143"/><path d="M67.68.165h-7.248v7.257h7.249V.165z" fill="#FFF143"/><path d="M82.188 29.169h-7.25v7.249h7.25v-7.25z" fill="#F50"/><path d="M96.695 21.92H74.939v7.25h21.756v-7.25z" fill="#FFA92C"/><path d="M96.686 14.671h-7.25v7.25h7.25v-7.25z" fill="#FFA92C"/><path d="M96.686 7.414h-7.25v7.249h7.25v-7.25z" fill="#FFF143"/><path d="M82.188 14.671h-7.25v7.25h7.25v-7.25z" fill="#FFA92C"/><path d="M82.188 7.414h-7.25v7.249h7.25v-7.25z" fill="#FFF143"/><path d="M89.437 7.414h7.258V.164H74.939v7.25h14.498z" fill="#FFF143"/><path d="M129.44.004h-7.276V7.28h7.276V.004zm-7.276 7.276h-7.275v7.276h7.275V7.28zm7.276 0h-7.276v7.276h7.276V7.28zm7.284 0h-7.275v7.276h7.275V7.28z" fill="#00F206"/><path d="M122.164 14.565h-7.275v7.275h7.275v-7.275zm-7.276 0h-7.275v7.275h7.275v-7.275zm14.552 0h-7.276v7.275h7.276v-7.275zm7.284 0h-7.275v7.275h7.275v-7.275z" fill="#1CC72B"/><path d="M122.164 21.84h-7.275v7.276h7.275V21.84zm7.276 0h-7.276v7.276h7.276V21.84zm7.284 0h-7.275v7.276h7.275V21.84z" fill="#009118"/><path d="M122.164 29.116h-7.275v7.275h7.275v-7.275zm7.276 0h-7.276v7.275h7.276v-7.275zm7.284 0h-7.275v7.275h7.275v-7.275z" fill="#007500"/><path d="M122.164 36.4h-7.275v7.276h7.275V36.4zm7.276 0h-7.276v7.276h7.276V36.4zm7.284 0h-7.275v7.276h7.275V36.4z" fill="#00420E"/><path d="M144 14.565h-7.276v7.275H144v-7.275z" fill="#1CC72B"/></g><defs><clipPath id="clip0_323_62732"><path fill="#fff" transform="translate(0 .004)" d="M0 0h144v43.672H0z"/></clipPath></defs></svg>