<svg width="82" height="67" fill="none" xmlns="http://www.w3.org/2000/svg"><g filter="url(#filter0_i_323_62667)"><path fill="#F5FFE8" d="M10 12h61v44H10z"/></g><mask id="a" maskUnits="userSpaceOnUse" x="0" y="0" width="82" height="67" fill="#000"><path fill="#fff" d="M0 0h82v67H0z"/><path fill-rule="evenodd" clip-rule="evenodd" d="M11.407 4h59.19v3.69h3.688v3.69h-3.69V7.69H11.407V4zM78 11.38h-3.715v44.405h-3.69v3.69h3.69v-3.69H78V11.382zm-7.402 48.096h-59.19v3.714h59.19v-3.714zM7.69 55.786H4V11.38h3.69v44.404h3.715v3.69H7.69v-3.69zm0-48.096h3.715v3.69H7.69V7.69z"/></mask><path fill-rule="evenodd" clip-rule="evenodd" d="M11.407 4h59.19v3.69h3.688v3.69h-3.69V7.69H11.407V4zM78 11.38h-3.715v44.405h-3.69v3.69h3.69v-3.69H78V11.382zm-7.402 48.096h-59.19v3.714h59.19v-3.714zM7.69 55.786H4V11.38h3.69v44.404h3.715v3.69H7.69v-3.69zm0-48.096h3.715v3.69H7.69V7.69z" fill="#F5FFE8"/><path d="M70.598 4h3.7V.3h-3.7V4zm-59.19 0V.3h-3.7V4h3.7zm59.19 3.69h-3.7v3.7h3.7v-3.7zm3.687 0h3.7v-3.7h-3.7v3.7zm0 3.69v3.7h3.7v-3.7h-3.7zm-3.69 0h-3.7v3.7h3.7v-3.7zm0-3.69h3.7v-3.7h-3.7v3.7zm-59.188 0h-3.7v3.7h3.7v-3.7zm62.878 3.69v-3.7h-3.7v3.7h3.7zm3.715 0h3.7v-3.7H78v3.7zm-3.715 44.405v3.7h3.7v-3.7h-3.7zm-3.69 0v-3.7h-3.7v3.7h3.7zm0 3.69h-3.7v3.7h3.7v-3.7zm3.69 0v3.7h3.7v-3.7h-3.7zm0-3.69v-3.7h-3.7v3.7h3.7zm3.715 0v3.7h3.7v-3.7H78zm-66.593 3.69v-3.7h-3.7v3.7h3.7zm59.19 0h3.7v-3.7h-3.7v3.7zm-59.19 3.715h-3.7v3.7h3.7v-3.7zm59.19 0v3.7h3.7v-3.7h-3.7zM7.69 55.786h3.7v-3.7h-3.7v3.7zm-3.69 0H.3v3.7H4v-3.7zM4 11.38v-3.7H.3v3.7H4zm3.69 0h3.7v-3.7h-3.7v3.7zm0 44.404h-3.7v3.7h3.7v-3.7zm3.715 0h3.7v-3.7h-3.7v3.7zm0 3.69v3.7h3.7v-3.7h-3.7zm-3.715 0h-3.7v3.7h3.7v-3.7zM11.405 7.69h3.7v-3.7h-3.7v3.7zm-3.715 0v-3.7h-3.7v3.7h3.7zm3.715 3.69v3.7h3.7v-3.7h-3.7zm-3.715 0h-3.7v3.7h3.7v-3.7zM70.598.3h-59.19v7.4h59.19V.3zm3.7 7.39V4h-7.4v3.69h7.4zm-.013-3.7h-3.687v7.4h3.687v-7.4zm3.7 7.39V7.69h-7.4v3.69h7.4zm-7.39 3.7h3.69v-7.4h-3.69v7.4zm-3.7-7.39v3.69h7.4V7.69h-7.4zm-55.488 3.7h59.188v-7.4H11.407v7.4zM7.707 4v3.69h7.4V4h-7.4zm66.578 11.08H78v-7.4h-3.715v7.4zm3.7 40.705V11.381h-7.4v44.404h7.4zm-7.39 3.7h3.69v-7.4h-3.69v7.4zm3.7-.01v-3.69h-7.4v3.69h7.4zm-.01-3.7h-3.69v7.4h3.69v-7.4zm-3.7.01v3.69h7.4v-3.69h-7.4zm7.415-3.7h-3.715v7.4H78v-7.4zm-3.7-40.704v44.405h7.4V11.38h-7.4zM11.407 63.176h59.19v-7.4h-59.19v7.4zm3.7.014v-3.714h-7.4v3.714h7.4zm55.49-3.7h-59.19v7.4h59.19v-7.4zm-3.7-.014v3.714h7.4v-3.714h-7.4zM7.69 52.086H4v7.4h3.69v-7.4zm.01 3.7V11.38H.3v44.405h7.4zM4 15.08h3.69v-7.4H4v7.4zm-.01-3.7v44.404h7.4V11.381h-7.4zm3.7 48.104h3.715v-7.4H7.69v7.4zm.015-3.7v3.69h7.4v-3.69h-7.4zm3.7-.01H7.69v7.4h3.715v-7.4zm-.015 3.7v-3.69h-7.4v3.69h7.4zm.015-55.485H7.69v7.4h3.715v-7.4zm3.7 7.39V7.69h-7.4v3.69h7.4zm-7.415 3.7h3.715v-7.4H7.69v7.4zm-3.7-7.39v3.69h7.4V7.69h-7.4z" fill="#3B2027" mask="url(#a)"/><path d="M51.194 26.596h-3.192v-3.192h-3.215v-3.212h-3.191V17H32v32h9.596v-3.213h3.191v-3.191h3.215v-3.213h3.192v-3.191h3.19v-6.405h-3.19v-3.191z" fill="#3B2027"/><defs><filter id="filter0_i_323_62667" x="10" y="12" width="61" height="44" filterUnits="userSpaceOnUse" color-interpolation-filters="sRGB"><feFlood flood-opacity="0" result="BackgroundImageFix"/><feBlend in="SourceGraphic" in2="BackgroundImageFix" result="shape"/><feColorMatrix in="SourceAlpha" values="0 0 0 0 0 0 0 0 0 0 0 0 0 0 0 0 0 0 127 0" result="hardAlpha"/><feOffset dx="6" dy="3"/><feComposite in2="hardAlpha" operator="arithmetic" k2="-1" k3="1"/><feColorMatrix values="0 0 0 0 0.729412 0 0 0 0 0.733333 0 0 0 0 0.784314 0 0 0 1 0"/><feBlend in2="shape" result="effect1_innerShadow_323_62667"/></filter></defs></svg>