<svg width="82" height="67" viewBox="0 0 82 67" fill="none" xmlns="http://www.w3.org/2000/svg">
<g filter="url(#filter0_i_323_62667)">
<rect x="10" y="12" width="61" height="44" fill="#F5FFE8"/>
</g>
<mask id="path-2-outside-1_323_62667" maskUnits="userSpaceOnUse" x="0" y="0" width="82" height="67" fill="black">
<rect fill="white" width="82" height="67"/>
<path fill-rule="evenodd" clip-rule="evenodd" d="M11.4072 4H70.5976V7.69009L74.2854 7.69007V11.3804H70.5951V7.69007L11.4072 7.69009V4ZM78 11.3806H74.2854L74.2854 55.7851H70.5951V59.4755H74.2854L74.2854 55.7856H78V11.3806ZM70.5976 59.4757H11.4072V63.19H70.5976V59.4757ZM7.69029 55.7856H4V11.3806H7.69033V55.7851H11.4049V59.4755H7.69029V55.7856ZM7.69029 7.69007H11.4049V11.3804H7.69029V7.69007Z"/>
</mask>
<path fill-rule="evenodd" clip-rule="evenodd" d="M11.4072 4H70.5976V7.69009L74.2854 7.69007V11.3804H70.5951V7.69007L11.4072 7.69009V4ZM78 11.3806H74.2854L74.2854 55.7851H70.5951V59.4755H74.2854L74.2854 55.7856H78V11.3806ZM70.5976 59.4757H11.4072V63.19H70.5976V59.4757ZM7.69029 55.7856H4V11.3806H7.69033V55.7851H11.4049V59.4755H7.69029V55.7856ZM7.69029 7.69007H11.4049V11.3804H7.69029V7.69007Z" fill="#F5FFE8"/>
<path d="M70.5976 4H74.2976V0.299997H70.5976V4ZM11.4072 4V0.299997H7.70723V4H11.4072ZM70.5976 7.69009H66.8976V11.3901L70.5976 11.3901L70.5976 7.69009ZM74.2854 7.69007H77.9854V3.99004L74.2854 3.99006L74.2854 7.69007ZM74.2854 11.3804V15.0804H77.9854V11.3804H74.2854ZM70.5951 11.3804H66.8951V15.0804H70.5951V11.3804ZM70.5951 7.69007H74.2951V3.99006L70.5951 3.99006V7.69007ZM11.4072 7.69009H7.70723V11.3901L11.4072 11.3901L11.4072 7.69009ZM74.2854 11.3806V7.68058H70.5854V11.3806L74.2854 11.3806ZM78 11.3806H81.7V7.68058H78V11.3806ZM74.2854 55.7851V59.4851H77.9854V55.7851L74.2854 55.7851ZM70.5951 55.7851V52.0851H66.8951V55.7851H70.5951ZM70.5951 59.4755H66.8951V63.1755H70.5951V59.4755ZM74.2854 59.4755V63.1755H77.9855L77.9854 59.4754L74.2854 59.4755ZM74.2854 55.7856V52.0856H70.5853L70.5854 55.7856L74.2854 55.7856ZM78 55.7856V59.4856H81.7V55.7856H78ZM11.4072 59.4757V55.7757H7.70723V59.4757H11.4072ZM70.5976 59.4757H74.2976V55.7757H70.5976V59.4757ZM11.4072 63.19H7.70723V66.89H11.4072V63.19ZM70.5976 63.19V66.89H74.2976V63.19H70.5976ZM7.69029 55.7856H11.3903V52.0856H7.69029V55.7856ZM4 55.7856H0.299997V59.4856H4V55.7856ZM4 11.3806V7.68058H0.299997V11.3806H4ZM7.69033 11.3806H11.3903V7.68058H7.69033V11.3806ZM7.69033 55.7851H3.99032V59.4851H7.69033V55.7851ZM11.4049 55.7851H15.1049V52.0851H11.4049V55.7851ZM11.4049 59.4755V63.1755H15.1049V59.4755H11.4049ZM7.69029 59.4755H3.99029V63.1755H7.69029V59.4755ZM11.4049 7.69007H15.1049V3.99006H11.4049V7.69007ZM7.69029 7.69007V3.99006H3.99029V7.69007H7.69029ZM11.4049 11.3804V15.0804H15.1049V11.3804H11.4049ZM7.69029 11.3804H3.99029V15.0804H7.69029V11.3804ZM70.5976 0.299997H11.4072V7.7H70.5976V0.299997ZM74.2976 7.69009V4H66.8976V7.69009H74.2976ZM74.2854 3.99006L70.5976 3.99009L70.5976 11.3901L74.2854 11.3901L74.2854 3.99006ZM77.9854 11.3804V7.69007H70.5854V11.3804H77.9854ZM70.5951 15.0804H74.2854V7.68039H70.5951V15.0804ZM66.8951 7.69007V11.3804H74.2951V7.69007H66.8951ZM11.4072 11.3901L70.5951 11.3901V3.99006L11.4072 3.99009L11.4072 11.3901ZM7.70723 4V7.69009H15.1072V4H7.70723ZM74.2854 15.0806H78V7.68058H74.2854V15.0806ZM77.9854 55.7851L77.9854 11.3806L70.5854 11.3806L70.5854 55.7851L77.9854 55.7851ZM70.5951 59.4851H74.2854V52.0851H70.5951V59.4851ZM74.2951 59.4755V55.7851H66.8951V59.4755H74.2951ZM74.2854 55.7755H70.5951V63.1755H74.2854V55.7755ZM70.5854 55.7856L70.5854 59.4755L77.9854 59.4754L77.9854 55.7855L70.5854 55.7856ZM78 52.0856H74.2854V59.4856H78V52.0856ZM74.3 11.3806V55.7856H81.7V11.3806H74.3ZM11.4072 63.1757H70.5976V55.7757H11.4072V63.1757ZM15.1072 63.19V59.4757H7.70723V63.19H15.1072ZM70.5976 59.49H11.4072V66.89H70.5976V59.49ZM66.8976 59.4757V63.19H74.2976V59.4757H66.8976ZM7.69029 52.0856H4V59.4856H7.69029V52.0856ZM7.7 55.7856V11.3806H0.299997V55.7856H7.7ZM4 15.0806H7.69033V7.68058H4V15.0806ZM3.99032 11.3806V55.7851H11.3903V11.3806H3.99032ZM7.69033 59.4851H11.4049V52.0851H7.69033V59.4851ZM7.70492 55.7851V59.4755H15.1049V55.7851H7.70492ZM11.4049 55.7755H7.69029V63.1755H11.4049V55.7755ZM11.3903 59.4755V55.7856H3.99029V59.4755H11.3903ZM11.4049 3.99006H7.69029V11.3901H11.4049V3.99006ZM15.1049 11.3804V7.69007H7.70492V11.3804H15.1049ZM7.69029 15.0804H11.4049V7.68039H7.69029V15.0804ZM3.99029 7.69007V11.3804H11.3903V7.69007H3.99029Z" fill="#3B2027" mask="url(#path-2-outside-1_323_62667)"/>
<path d="M51.1937 26.5957H48.002V23.4043H44.7873V20.1916H41.5957V17H32V49H41.5957V45.7873H44.7873V42.5959H48.002V39.3833H51.1937V36.1916H54.3831V29.7873H51.1937V26.5957Z" fill="#3B2027"/>
<defs>
<filter id="filter0_i_323_62667" x="10" y="12" width="61" height="44" filterUnits="userSpaceOnUse" color-interpolation-filters="sRGB">
<feFlood flood-opacity="0" result="BackgroundImageFix"/>
<feBlend mode="normal" in="SourceGraphic" in2="BackgroundImageFix" result="shape"/>
<feColorMatrix in="SourceAlpha" type="matrix" values="0 0 0 0 0 0 0 0 0 0 0 0 0 0 0 0 0 0 127 0" result="hardAlpha"/>
<feOffset dx="6" dy="3"/>
<feComposite in2="hardAlpha" operator="arithmetic" k2="-1" k3="1"/>
<feColorMatrix type="matrix" values="0 0 0 0 0.729412 0 0 0 0 0.733333 0 0 0 0 0.784314 0 0 0 1 0"/>
<feBlend mode="normal" in2="shape" result="effect1_innerShadow_323_62667"/>
</filter>
</defs>
</svg>
