<svg id="Camada_2" data-name="Camada 2" xmlns="http://www.w3.org/2000/svg" viewBox="0 0 39.94 46.59"><defs><style>.cls-1{stroke-width:0;fill:#000}</style></defs><g id="_Ñëîé_1" data-name="Ñëîé 1"><path opacity=".2" stroke-width="0" d="M37.72 17.76H35.5v-2.21h-4.43v-2.22h-6.65v-2.22h-4.44V4.46h-2.22V2.24h-4.43v2.22h-2.22V22.2H8.9v-2.22H4.46v2.22H2.24v4.43h2.22v2.22h2.22v4.43H8.9v4.44h2.21v2.21h2.22v4.44h2.22v2.22h17.73v-2.22h2.22v-4.44h2.22V35.5h2.22V19.98h-2.22v-2.22z"/><path fill="#fff" stroke-width="0" d="M9.82 4.26l1.26-2.04 2.55-1.11 1.89 1.11 1.33 2.42L17 10l5.17 1.08 2.79 1.48 3.86.74 4.44 2.22 2.21 2.22 1.11 2.21-1.11 13.31-2.21 4.43-2.22 4.44-3.13 1.46-13.96-.48-.65-.98-2.22-4.44-2.21-2.22-2.22-4.43-2.22-4.43-2.21-2.22-1.33-2.94 1.33-1.5 2.37-1.11 2.06 1.11 3.11 1.8.06-17.49z"/><path class="cls-1" d="M35.47 17.74v15.52h2.22V17.74h-2.22zm-2.21 17.73v2.22h2.21v-4.43h-2.21v2.21zm0-19.95h2.22v2.22h-2.22zm-2.22 24.39v2.22h2.22v-4.44h-2.22v2.22zm-2.22-22.17v4.43h2.22v-6.65h2.22V13.3h-4.44v4.44zm-2.21 24.39H13.3v2.21h17.74v-2.21h-4.43z"/><path class="cls-1" d="M22.17 15.52v4.43h2.22V13.3h4.43v-2.22h-6.65v4.44zm-6.65-8.87v13.3h2.22v-8.87h4.43V8.87h-4.43V2.22h-2.22v4.43zm0-4.43V0h-4.44v2.22h4.44zM13.3 37.69h-2.22v4.44h2.22v-4.44zm-4.43-2.22h2.22v2.22H8.87zm0-4.43H6.65v4.43h2.22v-4.43zm0-8.87v4.44h2.21V2.22H8.87v17.73H6.65v2.22h2.22zm-2.22 4.44H4.43v4.43h2.22v-4.43zm0-6.66v-2.21H2.22v2.21h4.43zm-4.43 4.44h2.22v2.22H2.22zm0-4.44H0v4.44h2.22v-4.44z"/></g></svg>