<?xml version="1.0" encoding="UTF-8"?>
<svg id="Camada_2" data-name="Camada 2" xmlns="http://www.w3.org/2000/svg" viewBox="0 0 39.94 46.59">
  <defs>
    <style>
      .cls-1, .cls-2, .cls-3 {
        stroke-width: 0px;
      }

      .cls-1, .cls-3 {
        fill: #000;
      }

      .cls-2 {
        fill: #fff;
      }

      .cls-3 {
        opacity: .2;
      }
    </style>
  </defs>
  <g id="_Ñëîé_1" data-name="Ñëîé 1">
    <g>
      <polygon class="cls-3" points="37.72 17.76 35.5 17.76 35.5 15.55 33.28 15.55 31.07 15.55 31.07 13.33 28.85 13.33 26.63 13.33 24.42 13.33 24.42 11.11 22.2 11.11 19.98 11.11 19.98 8.9 19.98 6.68 19.98 4.46 17.76 4.46 17.76 2.24 15.55 2.24 13.33 2.24 13.33 4.46 11.11 4.46 11.11 6.68 11.11 8.9 11.11 11.11 11.11 13.33 11.11 15.55 11.11 17.76 11.11 19.98 11.11 22.2 8.9 22.2 8.9 19.98 6.68 19.98 4.46 19.98 4.46 22.2 2.24 22.2 2.24 24.42 2.24 26.63 4.46 26.63 4.46 28.85 6.68 28.85 6.68 31.07 6.68 33.28 8.9 33.28 8.9 35.5 8.9 37.72 11.11 37.72 11.11 39.93 13.33 39.93 13.33 42.15 13.33 44.37 15.55 44.37 15.55 46.59 17.76 46.59 19.98 46.59 22.2 46.59 24.42 46.59 26.63 46.59 28.85 46.59 31.07 46.59 33.28 46.59 33.28 44.37 35.5 44.37 35.5 42.15 35.5 39.93 37.72 39.93 37.72 37.72 37.72 35.5 39.94 35.5 39.94 33.28 39.94 31.07 39.94 28.85 39.94 26.63 39.94 24.42 39.94 22.2 39.94 19.98 37.72 19.98 37.72 17.76"/>
      <g>
        <polygon class="cls-2" points="9.82 4.26 11.08 2.22 13.63 1.11 15.52 2.22 16.85 4.64 17 10 22.17 11.08 24.96 12.56 28.82 13.3 33.26 15.52 35.47 17.74 36.58 19.95 35.47 33.26 33.26 37.69 31.04 42.13 27.91 43.59 13.95 43.11 13.3 42.13 11.08 37.69 8.87 35.47 6.65 31.04 4.43 26.61 2.22 24.39 .89 21.45 2.22 19.95 4.59 18.84 6.65 19.95 9.76 21.75 9.82 4.26"/>
        <g>
          <polygon class="cls-1" points="35.47 17.74 35.47 19.95 35.47 22.17 35.47 24.39 35.47 26.61 35.47 28.82 35.47 31.04 35.47 33.26 37.69 33.26 37.69 31.04 37.69 28.82 37.69 26.61 37.69 24.39 37.69 22.17 37.69 19.95 37.69 17.74 35.47 17.74"/>
          <polygon class="cls-1" points="33.26 35.47 33.26 37.69 35.47 37.69 35.47 35.47 35.47 33.26 33.26 33.26 33.26 35.47"/>
          <rect class="cls-1" x="33.26" y="15.52" width="2.22" height="2.22"/>
          <polygon class="cls-1" points="31.04 39.91 31.04 42.13 33.26 42.13 33.26 39.91 33.26 37.69 31.04 37.69 31.04 39.91"/>
          <polygon class="cls-1" points="28.82 17.74 28.82 19.95 28.82 22.17 31.04 22.17 31.04 19.95 31.04 17.74 31.04 15.52 33.26 15.52 33.26 13.3 31.04 13.3 28.82 13.3 28.82 15.52 28.82 17.74"/>
          <polygon class="cls-1" points="26.61 42.13 24.39 42.13 22.17 42.13 19.95 42.13 17.74 42.13 15.52 42.13 13.3 42.13 13.3 44.34 15.52 44.34 17.74 44.34 19.95 44.34 22.17 44.34 24.39 44.34 26.61 44.34 28.82 44.34 31.04 44.34 31.04 42.13 28.82 42.13 26.61 42.13"/>
          <polygon class="cls-1" points="22.17 15.52 22.17 17.74 22.17 19.95 24.39 19.95 24.39 17.74 24.39 15.52 24.39 13.3 26.61 13.3 28.82 13.3 28.82 11.08 26.61 11.08 24.39 11.08 22.17 11.08 22.17 13.3 22.17 15.52"/>
          <polygon class="cls-1" points="15.52 6.65 15.52 8.87 15.52 11.08 15.52 13.3 15.52 15.52 15.52 17.74 15.52 19.95 17.74 19.95 17.74 17.74 17.74 15.52 17.74 13.3 17.74 11.08 19.95 11.08 22.17 11.08 22.17 8.87 19.95 8.87 17.74 8.87 17.74 6.65 17.74 4.43 17.74 2.22 15.52 2.22 15.52 4.43 15.52 6.65"/>
          <polygon class="cls-1" points="15.52 2.22 15.52 0 13.3 0 11.08 0 11.08 2.22 13.3 2.22 15.52 2.22"/>
          <polygon class="cls-1" points="13.3 37.69 11.08 37.69 11.08 39.91 11.08 42.13 13.3 42.13 13.3 39.91 13.3 37.69"/>
          <rect class="cls-1" x="8.87" y="35.47" width="2.22" height="2.22"/>
          <polygon class="cls-1" points="8.87 31.04 6.65 31.04 6.65 33.26 6.65 35.47 8.87 35.47 8.87 33.26 8.87 31.04"/>
          <polygon class="cls-1" points="8.87 22.17 8.87 24.39 8.87 26.61 11.08 26.61 11.08 24.39 11.08 22.17 11.08 19.95 11.08 17.74 11.08 15.52 11.08 13.3 11.08 11.08 11.08 8.87 11.08 6.65 11.08 4.43 11.08 2.22 8.87 2.22 8.87 4.43 8.87 6.65 8.87 8.87 8.87 11.08 8.87 13.3 8.87 15.52 8.87 17.74 8.87 19.95 6.65 19.95 6.65 22.17 8.87 22.17"/>
          <polygon class="cls-1" points="6.65 26.61 4.43 26.61 4.43 28.82 4.43 31.04 6.65 31.04 6.65 28.82 6.65 26.61"/>
          <polygon class="cls-1" points="6.65 19.95 6.65 17.74 4.43 17.74 2.22 17.74 2.22 19.95 4.43 19.95 6.65 19.95"/>
          <rect class="cls-1" x="2.22" y="24.39" width="2.22" height="2.22"/>
          <polygon class="cls-1" points="2.22 19.95 0 19.95 0 22.17 0 24.39 2.22 24.39 2.22 22.17 2.22 19.95"/>
        </g>
      </g>
    </g>
  </g>
</svg>